<?xml version="1.0" standalone="no"?>
<!DOCTYPE svg PUBLIC "-//W3C//DTD SVG 1.1//EN" "http://www.w3.org/Graphics/SVG/1.1/DTD/svg11.dtd" >
<svg xmlns="http://www.w3.org/2000/svg" xmlns:xlink="http://www.w3.org/1999/xlink" version="1.1">
<metadata>
Created by FontForge 20170731 at Wed Feb  1 19:38:01 2017
 By Aleksey,,,
Copyright 2011 The Podkova Project Authors (contact@cyreal.org)
</metadata>
<defs>
<font id="Podkova-Bold" horiz-adv-x="0" >
  <font-face 
    font-family="Podkova"
    font-weight="700"
    font-stretch="normal"
    units-per-em="1000"
    panose-1="0 0 8 0 0 0 0 0 0 0"
    ascent="800"
    descent="-200"
    x-height="447"
    cap-height="589"
    bbox="-442 -332 1313.37 1028"
    underline-thickness="50"
    underline-position="-150"
    unicode-range="U+000D-FB02"
  />
<missing-glyph horiz-adv-x="967" 
d="M941 567l-64 -66l-1 1q-2 -237 -241 -399q0 -8 -4 -16t-14 -8l-12 -12q62 -22 95 -38q5 0 21 0.5t32 -4t30 -14.5q0 -4 -1.5 -5t-2.5 -2q-15 7 -24.5 10.5t-22.5 3.5l-11 -1q13 -7 21.5 -13t15.5 -17q-1 -5 -9 -6q-33 33 -64 32q-13 0 -21 -2t-17 -6t-13 -6q-1 1 -3 1.5
t-3 4.5q7 8 13 11t14.5 5.5t15.5 4.5q-19 11 -38.5 18t-23.5 8q-10 3 -17.5 6t-7.5 6q0 6 11 15q-7 0 -12.5 7t-6.5 12h-27q-30 0 -55 4q-10 -26 -27 -23q-12 -7 -15 -10q6 -4 33 -21t51 -36q7 -1 22 -3.5t27.5 -9t22.5 -20.5q0 -3 -2 -4.5t-3 -2.5q-13 12 -21.5 16t-27.5 7
q20 -12 27 -39q-2 -5 -8 -4q-12 19 -24.5 31.5t-28.5 15.5q-7 1 -20 1q-24 0 -50 -6q-3 4 -3 8q11 7 22.5 9t34.5 3q-17 14 -44 31q-31 19 -31 26q0 5 4.5 8t8.5 6q-8 8 -8 23l1 9q-54 29 -94.5 69t-65.5 75.5t-54 83.5q-11 3 -20 7q-63 21 -101.5 37t-64.5 37q-6 5 -6 11
q0 11 12 11l256 -22q85 17 119 23q118 23 160 35.5t58 36.5q30 53 61.5 75.5t74.5 22.5q24 0 47 -7v1l74 26q3 0 3 -2v-1l-25 -69l70 3q4 0 2 -3zM674 203.5q12 14.5 11 18.5q-5 5 -33 29q-28 23 -57 49l39 51q24 31 34 46q-22 19 -37 26l-74 -93q-57 46 -97 73
q-20 -23 -26 -39l91 -72l-72 -93q1 -4 15.5 -16t18.5 -11l78 88l93 -72q4 1 16 15.5z" />
    <glyph glyph-name="fi" unicode="fi" horiz-adv-x="740" 
d="M175 628.5q47 47.5 139 47.5q43 0 79 -10.5t60 -31.5l-39 -79q-45 28 -88 28q-42 0 -65 -24t-23 -72v-40h124v-90h-124v-266h90v-91h-284v91h84v266h-84v90h84v43q0 91 47 138.5zM435 447h198v-356h83v-91h-281v91h83v266h-83v90zM615 645q19 -19 19 -50t-19 -50t-50 -19
t-49.5 19t-18.5 50t18.5 50t49.5 19t50 -19z" />
    <glyph glyph-name="fl" unicode="fl" horiz-adv-x="702" 
d="M677 91v-91h-282v91h84v457q-29 22 -57 32.5t-62 10.5q-51 0 -84.5 -27.5t-33.5 -76.5v-40h124v-90h-124v-266h90v-91h-288v91h84v266h-84v90h84v43q0 56 30 100.5t83 70t120 25.5q75 0 131 -24.5t101 -71.5v-499h84z" />
    <glyph glyph-name=".notdef" horiz-adv-x="967" 
d="M941 567l-64 -66l-1 1q-2 -237 -241 -399q0 -8 -4 -16t-14 -8l-12 -12q62 -22 95 -38q5 0 21 0.5t32 -4t30 -14.5q0 -4 -1.5 -5t-2.5 -2q-15 7 -24.5 10.5t-22.5 3.5l-11 -1q13 -7 21.5 -13t15.5 -17q-1 -5 -9 -6q-33 33 -64 32q-13 0 -21 -2t-17 -6t-13 -6q-1 1 -3 1.5
t-3 4.5q7 8 13 11t14.5 5.5t15.5 4.5q-19 11 -38.5 18t-23.5 8q-10 3 -17.5 6t-7.5 6q0 6 11 15q-7 0 -12.5 7t-6.5 12h-27q-30 0 -55 4q-10 -26 -27 -23q-12 -7 -15 -10q6 -4 33 -21t51 -36q7 -1 22 -3.5t27.5 -9t22.5 -20.5q0 -3 -2 -4.5t-3 -2.5q-13 12 -21.5 16t-27.5 7
q20 -12 27 -39q-2 -5 -8 -4q-12 19 -24.5 31.5t-28.5 15.5q-7 1 -20 1q-24 0 -50 -6q-3 4 -3 8q11 7 22.5 9t34.5 3q-17 14 -44 31q-31 19 -31 26q0 5 4.5 8t8.5 6q-8 8 -8 23l1 9q-54 29 -94.5 69t-65.5 75.5t-54 83.5q-11 3 -20 7q-63 21 -101.5 37t-64.5 37q-6 5 -6 11
q0 11 12 11l256 -22q85 17 119 23q118 23 160 35.5t58 36.5q30 53 61.5 75.5t74.5 22.5q24 0 47 -7v1l74 26q3 0 3 -2v-1l-25 -69l70 3q4 0 2 -3zM674 203.5q12 14.5 11 18.5q-5 5 -33 29q-28 23 -57 49l39 51q24 31 34 46q-22 19 -37 26l-74 -93q-57 46 -97 73
q-20 -23 -26 -39l91 -72l-72 -93q1 -4 15.5 -16t18.5 -11l78 88l93 -72q4 1 16 15.5z" />
    <glyph glyph-name=".null" 
 />
    <glyph glyph-name="nonmarkingreturn" unicode="&#xd;" horiz-adv-x="239" 
 />
    <glyph glyph-name="NULL" 
 />
    <glyph glyph-name="NULL" 
 />
    <glyph glyph-name="space" unicode=" " horiz-adv-x="239" 
 />
    <glyph glyph-name="exclam" unicode="!" horiz-adv-x="239" 
d="M54 605h131l-24 -408h-86zM174.5 116q23.5 -24 23.5 -57q0 -31 -23.5 -55t-55.5 -24q-33 0 -56.5 23.5t-23.5 55.5q0 33 23.5 57t56.5 24q32 0 55.5 -24z" />
    <glyph glyph-name="quotedbl" unicode="&#x22;" horiz-adv-x="363" 
d="M52 605h106l-26 -199h-53zM205 605h106l-26 -199h-53z" />
    <glyph glyph-name="numbersign" unicode="#" horiz-adv-x="634" 
d="M257 588h90l-51 -181h113l50 181h89l-50 -181h124v-86h-148l-35 -130h148v-86h-172l-49 -180h-90l50 180h-113l-49 -180h-90l50 180h-111v86h134l37 130h-137v86h160zM273 321l-36 -130h113l35 130h-112z" />
    <glyph glyph-name="dollar" unicode="$" horiz-adv-x="487" 
d="M197 87v168q-84 13 -128 57t-44 113q0 70 47.5 112.5t124.5 44.5v90h83v-90q72 -1 140 -45l17 -135l-91 -9l-13 82q-22 15 -53 16v-159l17 -3q79 -14 119.5 -52t40.5 -108q0 -75 -46 -120t-132 -51v-81h-82v81q-44 3 -83.5 13t-66.5 22l-17 123l87 10l9 -62
q38 -14 71 -17zM136 477q-21 -18 -21 -49q0 -32 20.5 -52t61.5 -30v150q-40 -1 -61 -19zM342 116.5q22 20.5 22 52.5q0 35 -20.5 52t-64.5 21v-154q41 8 63 28.5z" />
    <glyph glyph-name="percent" unicode="%" horiz-adv-x="796" 
d="M335 441q0 -179 -140 -179t-140 179q0 180 140 180t140 -180zM490 619h88l-273 -641h-89zM156 517.5q-14 -21.5 -14 -76.5t14 -75.5t39 -20.5t39 20.5t14 75.5t-14 76.5t-39 21.5t-39 -21.5zM704 297.5q37 -41.5 37 -137.5t-37 -138t-104 -42q-140 0 -140 180
q0 179 140 179q67 0 104 -41.5zM561.5 236q-13.5 -21 -13.5 -76q0 -56 13.5 -77t38.5 -21t39 21.5t14 76.5t-14 76t-39 21t-38.5 -21z" />
    <glyph glyph-name="ampersand" unicode="&#x26;" horiz-adv-x="736" 
d="M403 -7.5q-53 -25.5 -130 -25.5q-92 0 -157 45.5t-65 150.5q0 49 18 85t47.5 60t73.5 50q-49 72 -49 126q0 77 44 107.5t102 30.5q63 0 104 -32.5t41 -94.5q0 -48 -26.5 -84t-73.5 -69q49 -56 137 -127q25 64 48 176l136 44l30 -94l-79 -26q-16 -55 -27.5 -91.5
t-28.5 -71.5q71 -51 149 -105l-52 -87q-11 8 -23.5 16.5t-26.5 19.5q-48 32 -100 71q-39 -49 -92 -74.5zM252 531.5q-12 -16.5 -12 -45.5q0 -19 8.5 -38.5t26.5 -48.5q33 24 50.5 45t17.5 50q0 26 -13.5 40t-39.5 14t-38 -16.5zM186 227.5q-22 -28.5 -22 -64.5
q0 -37 18 -61.5t44.5 -35.5t52.5 -11q48 0 79 18t61 53q-101 80 -171 159q-40 -29 -62 -57.5z" />
    <glyph glyph-name="quotesingle" unicode="'" horiz-adv-x="210" 
d="M57 605h108l-17 -219h-74z" />
    <glyph glyph-name="parenleft" unicode="(" horiz-adv-x="256" 
d="M155.5 432q-29.5 -92 -29.5 -169q0 -76 29.5 -168t108.5 -170l-59 -74q-50 32 -94.5 95.5t-72 146.5t-27.5 170t27.5 170.5t72 146.5t94.5 95l59 -73q-79 -78 -108.5 -170z" />
    <glyph glyph-name="parenright" unicode=")" horiz-adv-x="257" 
d="M146 580q45 -63 72.5 -146.5t27.5 -170.5t-27.5 -170t-72.5 -146.5t-95 -95.5l-59 74q79 78 108.5 170t29.5 168q0 77 -29.5 169t-108.5 170l59 73q50 -32 95 -95z" />
    <glyph glyph-name="asterisk" unicode="*" horiz-adv-x="442" 
d="M163 657h110l-17 -148l137 64l36 -105l-146 -30l97 -109l-89 -67l-72 125l-72 -125l-91 64l103 113l-145 27l33 107l134 -64z" />
    <glyph glyph-name="plus" unicode="+" horiz-adv-x="495" 
d="M195 500h105v-146h145v-95h-145v-145h-105v145h-145v95h145v146z" />
    <glyph glyph-name="comma" unicode="," horiz-adv-x="234" 
d="M53 -98q5 7 21.5 31.5t26.5 45.5q-30 6 -45 26t-15 46q0 34 22 55t57 21q32 0 57 -24.5t25 -57.5q0 -50 -31 -92.5t-54 -64t-27 -25.5z" />
    <glyph glyph-name="hyphen" unicode="-" horiz-adv-x="419" 
d="M46 271h327v-92h-327v92z" />
    <glyph glyph-name="period" unicode="." horiz-adv-x="250" 
d="M181 116q24 -24 24 -57q0 -31 -24 -55t-56 -24q-33 0 -56.5 23.5t-23.5 55.5q0 33 23.5 57t56.5 24q32 0 56 -24z" />
    <glyph glyph-name="slash" unicode="/" horiz-adv-x="387" 
d="M300 589h113l-325 -720h-114z" />
    <glyph glyph-name="zero" unicode="0" horiz-adv-x="606" 
d="M488.5 537.5q67.5 -71.5 67.5 -243.5q0 -171 -67.5 -242.5t-185.5 -71.5q-119 0 -186 71.5t-67 242.5q0 172 67 243.5t186 71.5q118 0 185.5 -71.5zM234.5 489q-28.5 -16 -45.5 -62t-17 -133q0 -86 17.5 -132t45.5 -62t68 -16t68.5 16t46 62t17.5 132t-17.5 132.5
t-46 62.5t-68.5 16t-68.5 -16z" />
    <glyph glyph-name="one" unicode="1" horiz-adv-x="494" 
d="M251 605h75v-504h150v-101h-425v101h159v333l-118 -98l-66 82z" />
    <glyph glyph-name="two" unicode="2" horiz-adv-x="546" 
d="M33 84l96 88q106 98 144 134q35 33 52 63t17 61q0 36 -25 57.5t-68 21.5q-37 0 -76 -18.5t-69 -49.5l-70 73q54 51 107 73.5t117 22.5q59 0 106 -22.5t73.5 -64t26.5 -94.5q0 -45 -31.5 -90t-90.5 -96q-61 -54 -90 -79l-72 -63h204l49 75l84 -48l-77 -128h-381z" />
    <glyph glyph-name="three" unicode="3" horiz-adv-x="518" 
d="M313 375.5q26 22.5 26 57.5t-29 55.5t-77 20.5q-37 0 -74 -14.5t-60 -37.5l-71 69q38 42 92.5 62.5t118.5 20.5q98 0 154.5 -46t56.5 -119q0 -46 -29 -85t-74 -51q61 -14 96 -51t35 -92q0 -85 -61 -135t-167 -50q-75 0 -127.5 20.5t-103.5 62.5l67 84q39 -35 76 -50.5
t85 -15.5q50 0 81 23.5t31 62.5t-32.5 63t-87.5 24h-63v99h70q41 0 67 22.5z" />
    <glyph glyph-name="four" unicode="4" horiz-adv-x="564" 
d="M212 0v101h118v66h-308l-1 87l229 371l90 -50l-198 -313h188v211h115v-211l79 1v-96h-79v-66h75v-101h-308z" />
    <glyph glyph-name="five" unicode="5" horiz-adv-x="534" 
d="M299 400q54 0 99 -24t71.5 -70t26.5 -108q0 -105 -65 -161t-180 -56q-57 0 -111 20.5t-98 59.5l71 75q34 -28 71 -43t72 -15q62 0 94.5 30t32.5 86q0 52 -34 82.5t-83 30.5q-33 0 -65.5 -15t-59.5 -45l-69 32v310h375v-101h-266v-121q55 33 118 33z" />
    <glyph glyph-name="six" unicode="6" horiz-adv-x="564" 
d="M396.5 498.5q-35.5 10.5 -66.5 10.5q-50 0 -86.5 -25.5t-55.5 -68t-20 -90.5q33 27 74 43t85 16q87 0 144.5 -46.5t57.5 -151.5q0 -46 -21 -92.5t-74 -80t-141 -33.5q-246 0 -246 312q0 91 34.5 163t98 113t148.5 41q46 0 92.5 -15.5t69.5 -31.5l-38 -88
q-20 14 -55.5 24.5zM229 278.5q-38 -15.5 -58 -39.5q8 -93 43 -128t86 -35q36 0 61 16.5t37.5 42t12.5 51.5q0 55 -28 81.5t-76 26.5q-40 0 -78 -15.5z" />
    <glyph glyph-name="seven" unicode="7" horiz-adv-x="504" 
d="M342 250.5q-50 -135.5 -45 -250.5h-117q4 121 45 236t133 252h-219l-14 -70l-104 23l28 148h447v-67q-104 -136 -154 -271.5z" />
    <glyph glyph-name="eight" unicode="8" horiz-adv-x="546" 
d="M426 565q60 -44 60 -130q0 -40 -27.5 -78.5t-74.5 -51.5q59 -16 87.5 -56t28.5 -86q0 -92 -64 -137.5t-162 -45.5q-99 0 -163.5 45.5t-64.5 137.5q0 47 28.5 86.5t87.5 55.5q-47 13 -74.5 51.5t-27.5 78.5q0 86 59 130t153 44t154 -44zM202.5 493q-25.5 -22 -25.5 -58
q0 -37 25.5 -61.5t69.5 -24.5t70 24.5t26 61.5q0 36 -25.5 58t-70.5 22q-44 0 -69.5 -22zM194.5 229q-27.5 -26 -27.5 -66t29 -64.5t76 -24.5q48 0 77 24.5t29 64.5t-27 66t-77 26q-52 0 -79.5 -26z" />
    <glyph glyph-name="nine" unicode="9" horiz-adv-x="557" 
d="M170.5 90.5q36.5 -10.5 69.5 -10.5q49 0 85 24.5t54 65t19 87.5q-34 -27 -74.5 -43t-83.5 -16q-87 0 -144.5 47.5t-57.5 155.5q0 46 21 93.5t73.5 81t140.5 33.5q248 0 248 -312q0 -100 -37 -171.5t-100.5 -108.5t-144.5 -37q-47 0 -92.5 15t-69.5 31l37 89
q20 -14 56.5 -24.5zM184.5 477.5q-28.5 -34.5 -28.5 -80.5q0 -54 28 -82t74 -28q42 0 79.5 16.5t57.5 42.5q-7 95 -42 130.5t-88 35.5q-52 0 -80.5 -34.5z" />
    <glyph glyph-name="colon" unicode=":" horiz-adv-x="238" 
d="M175 435q24 -24 24 -55q0 -33 -24 -57t-56 -24q-33 0 -56.5 24t-23.5 57q0 32 23.5 55.5t56.5 23.5q32 0 56 -24zM175 116q24 -24 24 -57q0 -31 -24 -55t-56 -24q-33 0 -56.5 23.5t-23.5 55.5q0 33 23.5 57t56.5 24q32 0 56 -24z" />
    <glyph glyph-name="semicolon" unicode=";" horiz-adv-x="232" 
d="M173 435q24 -24 24 -55q0 -33 -24 -57t-56 -24q-33 0 -56.5 24t-23.5 57q0 32 23.5 55.5t56.5 23.5q32 0 56 -24zM70.5 -70q17.5 25 28.5 50q-30 6 -45 26t-15 45q0 34 22 55.5t57 21.5q32 0 57 -24.5t25 -57.5q1 -51 -30 -93.5t-54 -63.5t-27 -25l-37 39q1 2 18.5 27z
" />
    <glyph glyph-name="less" unicode="&#x3c;" horiz-adv-x="495" 
d="M409 539l44 -90l-278 -137v-5l278 -142l-44 -91l-367 195v83z" />
    <glyph glyph-name="equal" unicode="=" horiz-adv-x="495" 
d="M50 354v94h395v-94h-395zM50 167v95h395v-95h-395z" />
    <glyph glyph-name="greater" unicode="&#x3e;" horiz-adv-x="495" 
d="M86 539l367 -187v-83l-367 -195l-44 91l278 142v5l-278 137z" />
    <glyph glyph-name="question" unicode="?" horiz-adv-x="387" 
d="M92 596q48 13 98 13q93 0 142 -38.5t49 -109.5q0 -43 -21.5 -71.5t-73.5 -56.5q-39 -20 -57 -31t-24.5 -20.5t-6.5 -22.5q0 -9 5.5 -18t18.5 -24l-64 -40q-31 24 -42 46t-11 52q0 25 9.5 43t33 35.5t68.5 41.5q36 20 48 33.5t12 34.5q0 28 -22 44.5t-60 16.5
q-48 0 -85 -17l-13 -82l-91 10l15 129q24 19 72 32zM246 116q24 -24 24 -57q0 -32 -24 -55.5t-56 -23.5t-56 23.5t-24 55.5q0 33 23.5 57t56.5 24q32 0 56 -24z" />
    <glyph glyph-name="at" unicode="@" horiz-adv-x="791" 
d="M536 -93q-21 -13 -56.5 -24t-82.5 -11q-108 0 -183.5 45t-114 122t-38.5 174q0 80 37.5 158.5t115 129.5t190.5 51q103 0 177.5 -43t113.5 -117.5t39 -165.5q0 -65 -23 -111t-59.5 -69t-78.5 -23q-30 0 -50.5 10.5t-39.5 30.5q-18 -15 -37.5 -25.5t-48.5 -10.5
q-72 0 -114.5 42.5t-42.5 130.5q0 62 26 103t66 60t84 19q35 0 70.5 -13.5t56.5 -30.5v-230q12 -12 28 -12q24 0 41.5 32t17.5 96q0 114 -56 175.5t-170 61.5q-66 0 -119.5 -31t-84 -87.5t-30.5 -130.5q0 -88 32.5 -144t84 -81t112.5 -25q33 0 63.5 8.5t46.5 17.5l48 -67
q0 -2 -21 -15zM418 305q-83 0 -83 -105q0 -49 19.5 -72.5t52.5 -23.5q15 0 25 3t16.5 7t9.5 5v179q-21 7 -40 7z" />
    <glyph glyph-name="A" unicode="A" horiz-adv-x="680" 
d="M6 0v101h99l151 387h-84v101h227l184 -488h90v-101h-259v101h53l-31 86h-199l-31 -86h58v-101h-258zM266 266h143l-70 209z" />
    <glyph glyph-name="B" unicode="B" horiz-adv-x="593" 
d="M41 101h85v387h-85v101h263q115 0 176.5 -40.5t61.5 -117.5q0 -44 -20.5 -77.5t-58.5 -53.5q46 -14 71.5 -49.5t25.5 -88.5q0 -77 -51 -119.5t-149 -42.5h-319v101zM349 340q35 0 53.5 19.5t18.5 54.5q0 74 -106 74h-73v-148h107zM342 101q48 0 73 19.5t25 56.5
q0 35 -23.5 54t-68.5 19h-106v-149h100z" />
    <glyph glyph-name="C" unicode="C" horiz-adv-x="607" 
d="M406.5 505q-31.5 7 -62.5 7q-87 0 -134 -56t-47 -160q0 -105 47.5 -162t133.5 -57q42 0 70.5 11.5t31.5 12.5l21 87l97 -22l-30 -142q0 -1 -27.5 -12.5t-70 -21.5t-92.5 -10q-139 0 -220 81t-81 237q0 96 37.5 166.5t105 107.5t157.5 37q56 0 99 -11.5t69 -24.5t26 -15
l28 -141l-98 -22l-21 99q-8 4 -39.5 11z" />
    <glyph glyph-name="D" unicode="D" horiz-adv-x="670" 
d="M546 508q83 -81 83 -224q0 -134 -81 -209t-225 -75h-282v101h85v387h-85v101h274q148 0 231 -81zM456.5 147q51.5 46 51.5 136q0 101 -49 153t-144 52h-73v-387h63q100 0 151.5 46z" />
    <glyph glyph-name="E" unicode="E" horiz-adv-x="609" 
d="M42 589h454l59 -177l-95 -32l-38 108h-179v-138h170v-100h-170v-149h204l37 100l94 -33l-58 -168h-479v101h85l1 387h-85v101z" />
    <glyph glyph-name="F" unicode="F" horiz-adv-x="583" 
d="M42 589h454l61 -183l-95 -32l-39 114h-181v-141h154v-101h-155v-145h127v-101h-327v101h86l1 387h-86v101z" />
    <glyph glyph-name="G" unicode="G" horiz-adv-x="626" 
d="M460.5 -1q-47.5 -19 -118.5 -19q-88 0 -156 38t-106 109t-38 167q0 95 36.5 166t105 109.5t161.5 38.5q117 0 197 -59l30 -134l-95 -23l-23 96q-44 25 -106 25q-49 0 -91.5 -27t-68 -77t-25.5 -115q0 -67 22.5 -115.5t63 -74t91.5 -25.5q33 0 59.5 7t55.5 21v104h-128v92
h238v-245q-57 -40 -104.5 -59z" />
    <glyph glyph-name="H" unicode="H" horiz-adv-x="737" 
d="M42 589l258 -1v-100h-57l-1 -140h252l1 140h-58v101h258v-101h-84l-1 -387h85v-101h-257v101h56v147h-252v-147h56v-101h-257v101h85l1 387h-85v101z" />
    <glyph glyph-name="I" unicode="I" horiz-adv-x="389" 
d="M42 589h306v-101h-95v-387h95v-101h-307v101h97v387h-96v101z" />
    <glyph glyph-name="J" unicode="J" horiz-adv-x="528" 
d="M207 -20q-43 0 -78 11t-76 32l-30 141l99 23l21 -98q30 -13 57 -13q47 0 72 38.5t25 105.5l1 268h-125v101h326v-101h-85v-249q0 -259 -207 -259z" />
    <glyph glyph-name="K" unicode="K" horiz-adv-x="692" 
d="M41 589h257v-101h-57v-146h74l108 146h-50v101h260v-101h-93l-138 -175l155 -212h100v-101h-295v101h70l-103 144h-88v-144h57v-101h-257v101h85v387h-85v101z" />
    <glyph glyph-name="L" unicode="L" horiz-adv-x="562" 
d="M41 589h314v-101h-103l-1 -387h159l36 100l96 -33l-59 -168h-442v101h96v387h-96v101z" />
    <glyph glyph-name="M" unicode="M" horiz-adv-x="869" 
d="M42 589h264l134 -365l121 365h267v-101h-85v-387h85v-101h-265v101h64v406l-40 -134l-106 -302h-85l-122 314l-40 115l-1 -399h66v-101h-258v101h85v387h-84v101z" />
    <glyph glyph-name="N" unicode="N" horiz-adv-x="740" 
d="M42 589h259l213 -423v322h-77v101h275v-101h-94v-488h-134l-253 489l1 -388h84v-101h-275v101h87v387h-86v101z" />
    <glyph glyph-name="O" unicode="O" horiz-adv-x="668" 
d="M486 572q66 -37 103 -108t37 -169t-36.5 -169t-102.5 -108.5t-153 -37.5q-86 0 -152 37.5t-102.5 108.5t-36.5 169t36.5 169t102 108t151.5 37q87 0 153 -37zM206.5 456q-43.5 -55 -43.5 -161t43.5 -161.5t127.5 -55.5t128 55.5t44 161.5t-43.5 161t-128.5 55
q-84 0 -127.5 -55z" />
    <glyph glyph-name="P" unicode="P" horiz-adv-x="560" 
d="M479 540q61 -49 61 -143q0 -97 -61 -147t-177 -50h-61v-99h101v-101h-301v101h84v387h-84v101h261q116 0 177 -49zM419 394q0 48 -29 71t-89 23h-59v-197h59q118 0 118 103z" />
    <glyph glyph-name="Q" unicode="Q" horiz-adv-x="691" 
d="M334 -20q-86 0 -152 37t-102.5 108t-36.5 170t36.5 169.5t102 107.5t151.5 37q87 0 153 -37t103 -107.5t37 -169.5q0 -143 -77 -228l119 -69l-74 -91l-122 103q-60 -30 -138 -30zM206 456.5q-43 -55.5 -43 -161.5q0 -107 43 -162.5t128 -55.5t128.5 56t43.5 162
q0 107 -43 162t-129 55q-85 0 -128 -55.5z" />
    <glyph glyph-name="R" unicode="R" horiz-adv-x="628" 
d="M599 101v-101h-171l-109 202h-78v-101h52v-101h-252v101h84v387h-84v101h265q130 0 181.5 -48.5t51.5 -144.5q0 -142 -110 -180l70 -115h100zM301 302q65 0 91.5 20t26.5 73t-28.5 73t-89.5 20h-59v-186h59z" />
    <glyph glyph-name="S" unicode="S" horiz-adv-x="559" 
d="M62 18l-18 137l94 11l11 -73q58 -20 125 -20q61 0 100.5 22t39.5 66q0 34 -22 55.5t-79 31.5l-72 12q-91 16 -138.5 60t-47.5 115q0 83 65.5 128.5t168.5 45.5q98 0 187 -37l19 -147l-101 -11l-13 90q-45 15 -96 15q-58 0 -92 -20.5t-34 -55.5t24.5 -54.5t80.5 -29.5
l75 -12q93 -14 136 -57t43 -114q0 -105 -70 -150.5t-166 -45.5q-123 0 -220 38z" />
    <glyph glyph-name="T" unicode="T" horiz-adv-x="600" 
d="M30 589h533v-200h-103v99h-105l-1 -387h85v-101h-287v101h85l1 387h-105v-99h-103v200z" />
    <glyph glyph-name="U" unicode="U" horiz-adv-x="688" 
d="M516 40q-58 -60 -172 -60q-115 0 -173 60t-58 173v275h-85v101h259v-101h-58v-295q0 -61 29 -89t86 -28q114 0 114 127v285h-57v101h259v-101h-86v-275q0 -113 -58 -173z" />
    <glyph glyph-name="V" unicode="V" horiz-adv-x="667" 
d="M6 589h271v-101h-63l92 -235l39 -134l39 133l87 236h-67v101h257v-101h-75l-181 -488h-121l-196 488h-82v101z" />
    <glyph glyph-name="W" unicode="W" horiz-adv-x="933" 
d="M5 589h271v-101h-55l60 -236l31 -132l25 130l72 265h141l70 -263l25 -132l28 132l61 236h-62v101h256v-101h-72l-155 -488h-134l-89 393l-32 -125l-68 -268h-133l-154 488h-86v101z" />
    <glyph glyph-name="X" unicode="X" horiz-adv-x="699" 
d="M26 0v99h100l153 193l-162 196h-83v101h269v-101h-58l102 -123l103 123h-55v101h263v-101h-90l-153 -195l157 -194h105v-99h-289v99h59l-100 121l-101 -121h50v-99h-270z" />
    <glyph glyph-name="Y" unicode="Y" horiz-adv-x="663" 
d="M6 589h272v-101h-65l126 -170l125 170h-66v101h259v-101h-72l-193 -250v-138h94v-100h-303v100h95v137l-194 251h-78v101z" />
    <glyph glyph-name="Z" unicode="Z" horiz-adv-x="567" 
d="M62 589h446v-73l-309 -415h205l35 96l96 -32l-56 -165h-432v80l304 408h-201l-19 -88l-99 14z" />
    <glyph glyph-name="bracketleft" unicode="[" horiz-adv-x="254" 
d="M56 663h197v-92h-88v-614h88v-92h-197v798z" />
    <glyph glyph-name="backslash" unicode="\" horiz-adv-x="390" 
d="M-26 589h113l329 -719h-114z" />
    <glyph glyph-name="bracketright" unicode="]" horiz-adv-x="254" 
d="M2 663h196v-798h-196v92h88v614h-88v92z" />
    <glyph glyph-name="asciicircum" unicode="^" horiz-adv-x="495" 
d="M293 718l189 -285l-79 -60l-146 226h-6l-146 -226l-79 60l189 285h78z" />
    <glyph glyph-name="underscore" unicode="_" horiz-adv-x="623" 
d="M64 -16h495v-98h-495v98z" />
    <glyph glyph-name="grave" unicode="`" horiz-adv-x="295" 
d="M202 509l-159 183l78 57l129 -207z" />
    <glyph glyph-name="a" unicode="a" horiz-adv-x="551" 
d="M227 -19q-93 0 -141.5 36.5t-48.5 106.5q0 68 46.5 102.5t136.5 34.5h112q0 58 -24 88t-66 30t-80 -12l-9 -49l-94 13l18 106q81 29 168 29q98 0 149.5 -52t51.5 -151v-166l84 -27l-31 -94l-129 44q-72 -39 -143 -39zM171 170.5q-18 -16.5 -18 -47.5q0 -57 78 -57
q55 0 101 29v91l-109 1q-34 0 -52 -16.5z" />
    <glyph glyph-name="b" unicode="b" horiz-adv-x="548" 
d="M65 37v505l-99 34l33 96l179 -62v-174q51 30 109 30q220 0 220 -238q0 -247 -235 -247q-121 0 -207 56zM391 228q0 145 -105 145q-65 0 -108 -33v-251q40 -17 93 -17q120 0 120 156z" />
    <glyph glyph-name="c" unicode="c" horiz-adv-x="497" 
d="M282 379q-62 0 -94.5 -40t-32.5 -119q0 -68 35 -107.5t89 -39.5q68 0 137 49l46 -68q-49 -38 -90 -55.5t-96 -17.5q-110 0 -173.5 62t-63.5 177q0 120 63.5 183.5t178.5 63.5q70 0 154 -29l25 -129l-96 -21l-14 81q-36 10 -68 10z" />
    <glyph glyph-name="d" unicode="d" horiz-adv-x="588" 
d="M409 20q-27 -18 -62.5 -28.5t-70.5 -10.5q-112 0 -174 65.5t-62 181.5q0 112 62 175t174 63q40 0 93 -17v93l-99 34l32 96l180 -62v-508l86 -29l-31 -97zM323.5 79q25.5 7 45.5 19v256q-18 9 -43 14t-49 5q-55 0 -88.5 -40t-33.5 -105q0 -70 33.5 -113t88.5 -43
q21 0 46.5 7z" />
    <glyph glyph-name="e" unicode="e" horiz-adv-x="521" 
d="M285 -19q-75 0 -131.5 30.5t-87.5 85t-31 125.5q0 72 29 127.5t82 86t121 30.5t119.5 -28t79.5 -79t28 -118q0 -26 -5 -56h-344q4 -56 43.5 -85t96.5 -29q83 0 149 52l40 -68q-87 -74 -189 -74zM350 343.5q-30 30.5 -80 30.5q-49 0 -84 -31t-39 -80h234q-1 50 -31 80.5z
" />
    <glyph glyph-name="f" unicode="f" horiz-adv-x="392" 
d="M175 628.5q47 47.5 139 47.5q43 0 79 -10.5t60 -31.5l-39 -79q-45 28 -88 28q-42 0 -65 -24t-23 -72v-40h124v-90h-124v-266h90v-91h-284v91h84v266h-84v90h84v43q0 91 47 138.5z" />
    <glyph glyph-name="g" unicode="g" horiz-adv-x="574" 
d="M439.5 15q44.5 -36 44.5 -104q0 -76 -64.5 -114t-165.5 -38q-74 0 -134.5 16t-95.5 35l41 89q50 -21 95.5 -32t93.5 -11q63 0 91.5 15t28.5 39q0 22 -17.5 34.5t-63.5 12.5h-157v175q-51 19 -77.5 57t-26.5 93q0 85 58.5 134.5t156.5 49.5q39 0 68 -6t55 -21l151 53
l35 -99l-122 -19q15 -17 22 -40t7 -47q0 -87 -60.5 -129.5t-156.5 -42.5h-20v-64h81q88 0 132.5 -36zM167.5 356q-28.5 -24 -28.5 -68q0 -40 29 -64t80 -24t80 24t29 64q0 44 -28.5 68t-80.5 24t-80.5 -24z" />
    <glyph glyph-name="h" unicode="h" horiz-adv-x="638" 
d="M22 91h83v457l-95 32l30 91l179 -61v-182q30 18 68 28t76 10q81 0 124 -47t43 -136v-192h84v-91h-240v91h42v176q0 54 -21 78.5t-67 24.5q-23 0 -53 -7.5t-55 -18.5v-253h41v-91h-239v91z" />
    <glyph glyph-name="i" unicode="i" horiz-adv-x="345" 
d="M40 447h198v-356h83v-91h-281v91h83v266h-83v90zM220 645q19 -19 19 -50t-19 -50t-50 -19t-49.5 19t-18.5 50t18.5 50t49.5 19t50 -19z" />
    <glyph glyph-name="j" unicode="j" horiz-adv-x="281" 
d="M212.5 -139.5q-9.5 -41.5 -51 -71.5t-128.5 -30q-30 0 -75 10l12 89q32 -4 55 -4q39 0 57 14t22 33.5t4 51.5v404h-84v90h198v-482q0 -63 -9.5 -104.5zM207 645q19 -19 19 -50t-19 -50t-50 -19t-49.5 19t-18.5 50t18.5 50t49.5 19t50 -19z" />
    <glyph glyph-name="k" unicode="k" horiz-adv-x="586" 
d="M43 672l179 -61v-344h73l53 90h-51v90h241v-90h-76l-86 -132l90 -134h83v-91h-140l-111 177h-76v-86h34v-91h-232v91h84v457l-95 32z" />
    <glyph glyph-name="l" unicode="l" horiz-adv-x="335" 
d="M29 0v91h84v460l-96 29l28 92l182 -57v-524h84v-91h-282z" />
    <glyph glyph-name="m" unicode="m" horiz-adv-x="923" 
d="M45 91h83v246l-95 30l30 92l142 -46q30 25 69 39t78 14q42 0 77 -14.5t57 -41.5q72 56 149 56q94 0 136 -45.5t42 -149.5v-180h85v-91h-238v91h39v174q0 56 -18 79.5t-62 23.5q-22 0 -48 -9.5t-43 -23.5v-244h39v-91h-193v91h40v174q0 56 -18 79.5t-62 23.5
q-22 0 -48 -9.5t-44 -23.5v-244h41v-91h-238v91z" />
    <glyph glyph-name="n" unicode="n" horiz-adv-x="661" 
d="M45 91h85v243l-96 33l29 91l139 -48q42 28 82 42t92 14q88 0 132 -51t44 -136v-188h83v-91h-238v91h42v173q0 103 -90 103q-28 0 -56 -9.5t-50 -24.5v-242h41v-91h-239v91z" />
    <glyph glyph-name="o" unicode="o" horiz-adv-x="555" 
d="M450.5 401.5q62.5 -64.5 62.5 -178.5t-62.5 -178t-174.5 -64q-110 0 -171.5 64t-61.5 178t61.5 178.5t171.5 64.5q112 0 174.5 -64.5zM186 334.5q-31 -38.5 -31 -111.5q0 -74 31 -112.5t91 -38.5q61 0 92 38.5t31 112.5q0 73 -31.5 111.5t-91.5 38.5t-91 -38.5z" />
    <glyph glyph-name="p" unicode="p" horiz-adv-x="596" 
d="M31 -130h84v470l-95 32l30 92l141 -48q33 23 70.5 36.5t71.5 13.5q104 0 164 -63.5t60 -174.5q0 -74 -29 -130.5t-82.5 -87t-124.5 -30.5q-50 0 -92 12v-122h84v-90h-282v90zM408.5 112q31.5 41 31.5 115q0 71 -29 108.5t-84 37.5q-28 0 -54.5 -9.5t-45.5 -26.5v-248
q17 -8 42.5 -13t50.5 -5q57 0 88.5 41z" />
    <glyph glyph-name="q" unicode="q" horiz-adv-x="548" 
d="M272 -130h97v135q-22 -11 -49.5 -17.5t-54.5 -6.5q-106 0 -165.5 66.5t-59.5 184.5q0 110 65.5 172t180.5 62q48 0 100 -14.5t97 -41.5v-540h71v-90h-282v90zM322.5 78q26.5 6 46.5 16v254q-17 11 -42 18t-53 7q-53 0 -86 -38.5t-33 -102.5q0 -71 32.5 -115.5t85.5 -44.5
q23 0 49.5 6z" />
    <glyph glyph-name="r" unicode="r" horiz-adv-x="472" 
d="M369 464q37 0 71 -13l17 -124l-94 -20l-10 54q-67 -4 -110 -36l-1 -234h98v-91h-295v91h84v244l-96 32l30 91l148 -49q84 55 158 55z" />
    <glyph glyph-name="s" unicode="s" horiz-adv-x="465" 
d="M236 383q-38 0 -64 -14t-26 -39t16.5 -38t61.5 -19l60 -9q77 -10 112.5 -42.5t35.5 -90.5q0 -73 -56 -111.5t-140 -38.5q-106 0 -182 45l-18 104l95 17l11 -55q41 -20 88 -20q44 0 72.5 14.5t28.5 41.5q0 22 -16 34.5t-59 17.5l-57 9q-74 11 -114 45.5t-40 89.5
q0 65 52.5 103.5t136.5 38.5q94 0 161 -45l18 -96l-85 -16l-16 61q-39 13 -76 13z" />
    <glyph glyph-name="t" unicode="t" horiz-adv-x="401" 
d="M152.5 25.5q-42.5 44.5 -42.5 136.5v195h-83v90h83v86l110 33v-119h121v-90h-121v-163q0 -121 67 -121q27 0 67 20l21 -84q-58 -28 -103 -28q-77 0 -119.5 44.5z" />
    <glyph glyph-name="u" unicode="u" horiz-adv-x="636" 
d="M374.5 -7.5q-39.5 -11.5 -74.5 -11.5q-102 0 -149.5 45t-47.5 140v191h-79v90h193v-264q0 -54 20.5 -78t66.5 -24q23 0 53.5 7.5t55.5 19.5v249h-79v90h193v-340l88 -30l-31 -98l-136 45q-34 -20 -73.5 -31.5z" />
    <glyph glyph-name="v" unicode="v" horiz-adv-x="595" 
d="M4 447h244v-90h-54l69 -165l36 -93l36 93l70 165h-54v90h239v-90h-67l-162 -357h-125l-158 357h-73z" />
    <glyph glyph-name="w" unicode="w" horiz-adv-x="791" 
d="M188 0l-118 357h-65v90h241v-90h-57l41 -154l29 -107l27 107l55 179h114l56 -181l27 -106l27 105l47 157h-61v90h235v-90h-64l-129 -357h-120l-76 261l-84 -261h-125z" />
    <glyph glyph-name="x" unicode="x" horiz-adv-x="620" 
d="M32 0v91h86l123 138l-129 128h-80v90h247v-90h-36l72 -77l69 77h-37v90h230v-90h-76l-119 -136l133 -130h79v-91h-249v91h43l-80 80l-73 -80h40v-91h-243z" />
    <glyph glyph-name="y" unicode="y" horiz-adv-x="597" 
d="M592 447v-90h-77l-184 -433q-37 -88 -80 -127t-101 -39q-43 0 -88 19l21 88q20 -7 34 -10.5t30 -3.5q24 0 40.5 11.5t31 38t35.5 79.5l-176 377h-73v90h244v-90h-55l108 -256l102 256h-52l5 90h235z" />
    <glyph glyph-name="z" unicode="z" horiz-adv-x="497" 
d="M50 0v77l249 280h-153l-12 -58l-100 20l25 128h376v-74l-252 -282h169l12 62l101 -19l-27 -134h-388z" />
    <glyph glyph-name="braceleft" unicode="{" horiz-adv-x="261" 
d="M66.5 318q5.5 20 5.5 58v90q0 174 176 186l13 -96q-53 -6 -71.5 -30t-18.5 -76v-108q0 -62 -61 -87q61 -25 61 -87v-105q0 -52 18 -76.5t72 -30.5l-13 -96q-94 7 -135 56t-41 131v87q0 44 -5.5 61.5t-21.5 17.5h-54v85h54q16 0 21.5 20z" />
    <glyph glyph-name="bar" unicode="|" horiz-adv-x="319" 
d="M106 653h107v-874h-107v874z" />
    <glyph glyph-name="braceright" unicode="}" horiz-adv-x="261" 
d="M194.5 195.5q-5.5 -17.5 -5.5 -61.5v-87q0 -174 -176 -187l-13 96q54 6 72 30.5t18 76.5v105q0 61 62 87q-62 26 -62 87v108q0 52 -18 76t-72 30l13 96q176 -12 176 -186v-90q0 -37 5.5 -57.5t21.5 -20.5h55v-85h-55q-16 0 -21.5 -17.5z" />
    <glyph glyph-name="asciitilde" unicode="~" horiz-adv-x="495" 
d="M46 290q35 36 65.5 56t67.5 20q20 0 40 -7t48 -21q3 -2 17.5 -8t25 -9t17.5 -3q15 0 31 9.5t38 31.5l53 -57q-43 -43 -70 -60t-60 -17q-18 0 -62 21q-24 12 -41 18t-32 6q-17 0 -34 -9.5t-44 -32.5z" />
    <glyph glyph-name="uni00A0" unicode="&#xa0;" horiz-adv-x="239" 
 />
    <glyph glyph-name="exclamdown" unicode="&#xa1;" horiz-adv-x="241" 
d="M176 424.5q24 -23.5 24 -56.5q0 -31 -24 -55.5t-56 -24.5q-33 0 -56 24t-23 56q0 33 23 56.5t56 23.5q32 0 56 -23.5zM77 231h86l23 -421h-130z" />
    <glyph glyph-name="cent" unicode="&#xa2;" horiz-adv-x="470" 
d="M319 436.5q-10 4.5 -25 4.5v-297q26 5 56 18t51 28l47 -68q-76 -58 -154 -70v-77h-83v79q-89 14 -137.5 75.5t-48.5 158.5q0 99 49 162.5t137 78.5v85h83v-82q35 -2 69 -9.5t51 -15.5l26 -129l-95 -21l-15 75q-1 0 -11 4.5zM153.5 385q-19.5 -38 -19.5 -97
q0 -114 77 -141v289q-38 -13 -57.5 -51z" />
    <glyph glyph-name="sterling" unicode="&#xa3;" horiz-adv-x="560" 
d="M536 37q-73 -57 -148 -57q-33 0 -56 5.5t-52 15.5q-27 9 -44.5 13.5t-40.5 4.5q-52 0 -120 -42l-51 70q61 44 89 87t28 99q0 15 -1 23h-91v73h79q-8 51 -8 86q0 100 51 147.5t152 47.5q47 0 85.5 -10t86.5 -34l25 -142l-80 -14l-20 100q-37 22 -99 22q-53 0 -78.5 -29.5
t-25.5 -91.5q0 -32 8 -82h164v-73h-151q1 -9 1 -24q0 -39 -16.5 -72.5t-58.5 -75.5l2 -3q38 23 86 23q22 0 44 -7t26 -8q41 -15 67 -15q27 0 49 9.5t49 30.5z" />
    <glyph glyph-name="currency" unicode="&#xa4;" horiz-adv-x="519" 
d="M40 164l64 42q-24 41 -24 87q0 48 25 92l-64 44l52 79l83 -58q37 19 84 19q44 0 81 -18l82 56l53 -77l-62 -43q27 -42 27 -94q0 -50 -25 -88l61 -40l-53 -78l-81 53q-36 -18 -82 -18q-48 0 -86 19l-82 -55zM324.5 229.5q26.5 27.5 26.5 65.5t-26.5 65.5t-64.5 27.5
t-65 -27.5t-27 -65.5t27 -65.5t65 -27.5t64.5 27.5z" />
    <glyph glyph-name="yen" unicode="&#xa5;" horiz-adv-x="672" 
d="M187 0v100h95v36h-146v64h146v33h-146v64h112l-159 191h-78v101h272v-101h-58l119 -165l112 165h-53v101h258v-101h-86l-147 -191h115v-64h-146v-33h146v-64h-146l-1 -36h94v-100h-303z" />
    <glyph glyph-name="brokenbar" unicode="&#xa6;" horiz-adv-x="318" 
d="M106 671h106v-378h-106v378zM106 151h106v-371h-106v371z" />
    <glyph glyph-name="section" unicode="&#xa7;" horiz-adv-x="523" 
d="M385 147q54 -46 54 -107q0 -42 -25.5 -74.5t-68.5 -50.5t-97 -18q-105 0 -167 55l-18 97l91 17l13 -60q31 -23 78 -23q44 0 68 16t24 46q0 53 -127 93q-63 21 -97 56.5t-34 82.5q0 35 19 63.5t54 45.5q-55 41 -55 102q0 62 48 99.5t123 37.5q93 0 163 -50l15 -100
l-86 -15l-12 68q-33 18 -74 18t-62.5 -13t-21.5 -40q0 -43 106 -79q72 -25 110.5 -65.5t38.5 -92.5q0 -60 -60 -109zM322 188q25 25 25 55q0 70 -106 102l-35 12q-20 -12 -29 -26.5t-9 -34.5q0 -50 100 -86q33 -12 54 -22z" />
    <glyph glyph-name="dieresis" unicode="&#xa8;" horiz-adv-x="453" 
d="M178.5 639.5q20.5 -20.5 20.5 -48.5t-20.5 -48t-47.5 -20q-28 0 -48.5 20t-20.5 48t20.5 48.5t48.5 20.5q27 0 47.5 -20.5zM369.5 639.5q20.5 -20.5 20.5 -48.5t-20.5 -48t-47.5 -20q-28 0 -48.5 20t-20.5 48t20.5 48.5t48.5 20.5q27 0 47.5 -20.5z" />
    <glyph glyph-name="copyright" unicode="&#xa9;" horiz-adv-x="868" 
d="M628 621.5q85 -48.5 133 -134t48 -194.5q0 -106 -48 -191.5t-133 -134t-192 -48.5q-108 0 -194 48.5t-135 134t-49 191.5q0 109 48.5 194.5t135 134t194.5 48.5q107 0 192 -48.5zM284.5 545.5q-64.5 -39.5 -100.5 -107.5t-36 -150q0 -79 35.5 -144t100.5 -102.5
t148 -37.5t148.5 38t102.5 103t37 143q0 82 -37 150t-102.5 107.5t-148.5 39.5t-147.5 -39.5zM446 431q-56 0 -85.5 -35t-29.5 -98q0 -64 30 -101t85 -37q28 0 60 10l17 62l76 -23l-24 -95q-4 -2 -21 -9.5t-46 -14t-63 -6.5q-95 0 -150.5 54.5t-55.5 159.5q0 98 55.5 153
t149.5 55q37 0 66.5 -8t48 -18t18.5 -11l20 -93l-72 -21l-20 67q-32 9 -59 9z" />
    <glyph glyph-name="ordfeminine" unicode="&#xaa;" horiz-adv-x="394" 
d="M265 175q-50 -28 -95 -28q-59 0 -93 26.5t-34 71.5q0 46 31 68t92 22h69q0 36 -13.5 52.5t-43.5 16.5q-22 0 -47 -7l-7 -33l-68 13l13 67q22 9 52 15.5t56 6.5q76 0 107 -32t31 -97v-106l52 -18l-22 -66zM235 233v44h-68q-41 0 -41 -32q0 -15 13.5 -24.5t33.5 -9.5
q30 0 62 22z" />
    <glyph glyph-name="guillemotleft" unicode="&#xab;" horiz-adv-x="348" 
d="M149 446l74 -52l-120 -177l120 -176l-74 -52l-155 229zM273 366l67 -53l-60 -97l60 -94l-67 -53l-89 149z" />
    <glyph glyph-name="logicalnot" unicode="&#xac;" horiz-adv-x="495" 
d="M50 354h395v-243h-114v148h-281v95z" />
    <glyph glyph-name="uni00AD" unicode="&#xad;" horiz-adv-x="388" 
d="M46 328h296v-104h-296v104z" />
    <glyph glyph-name="registered" unicode="&#xae;" horiz-adv-x="678" 
d="M198 96.5q-63 35.5 -99 98.5t-36 141t36 141t99 99t141 36t141 -36t98.5 -99t35.5 -141t-35.5 -141t-98.5 -98.5t-141 -35.5t-141 35.5zM442.5 156.5q45.5 26.5 71 72.5t25.5 103q0 59 -25.5 106.5t-71 75t-104.5 27.5t-104.5 -27.5t-70.5 -75t-25 -106.5q0 -57 25 -103
t70.5 -72.5t104.5 -26.5t104.5 26.5zM224 256h37v162h-37v52h119q56 0 81 -21.5t25 -65.5q0 -30 -10.5 -48t-34.5 -28l27 -51h46v-52h-79l-45 92h-34v-40h23v-52h-118v52zM342 344q24 0 35.5 7.5t11.5 28.5q0 23 -11 30.5t-36 7.5h-22v-74h22z" />
    <glyph glyph-name="macron" unicode="&#xaf;" horiz-adv-x="483" 
d="M75 618h334v-76h-334v76z" />
    <glyph glyph-name="degree" unicode="&#xb0;" horiz-adv-x="392" 
d="M276.5 585q33.5 -31 33.5 -84t-33.5 -83.5t-81.5 -30.5q-47 0 -80.5 30.5t-33.5 83.5t33.5 84t80.5 31q48 0 81.5 -31zM157.5 547q-15.5 -17 -15.5 -46t15.5 -45t37.5 -16q24 0 38.5 15.5t14.5 45.5t-15 46.5t-38 16.5q-22 0 -37.5 -17z" />
    <glyph glyph-name="plusminus" unicode="&#xb1;" horiz-adv-x="495" 
d="M195 501h105v-125h145v-95h-145v-105h-105v105h-145v95h145v125zM445 136v-94h-395v94h395z" />
    <glyph glyph-name="uni00B2" unicode="&#xb2;" horiz-adv-x="403" 
d="M22 303q101 55 147 88q75 53 75 93q0 22 -15.5 32.5t-40.5 10.5q-27 0 -58 -13t-58 -36l-55 65q80 70 165 70q69 0 114.5 -31.5t45.5 -85.5q0 -71 -82 -126q-24 -20 -55.5 -37t-78.5 -39h150l41 56l68 -45l-59 -86h-274z" />
    <glyph glyph-name="uni00B3" unicode="&#xb3;" horiz-adv-x="375" 
d="M220.5 452q17.5 13 17.5 32t-18.5 30.5t-52.5 11.5q-27 0 -55 -8.5t-49 -23.5l-46 61q65 52 148 52q76 0 120 -31t44 -78q0 -64 -75 -86q88 -22 88 -87q0 -33 -21 -61t-58 -44.5t-83 -16.5q-53 0 -94 13.5t-77 41.5l44 74q29 -23 58 -35t64 -12q34 0 53 13t19 31
q0 20 -18 32.5t-50 12.5h-49v65h44q29 0 46.5 13z" />
    <glyph glyph-name="acute" unicode="&#xb4;" horiz-adv-x="295" 
d="M175 749l77 -57l-158 -183l-49 33z" />
    <glyph glyph-name="uni00B5" unicode="&#xb5;" horiz-adv-x="646" 
d="M135 -171q-38 54 -38 166v452h114v-259q0 -113 96 -113q25 0 52 9.5t48 26.5v336h113v-339l89 -31l-31 -93l-136 47q-35 -23 -73.5 -35t-73.5 -12q-31 0 -58 11t-46 31v-45q0 -58 22.5 -85.5t62.5 -27.5q25 0 62 13l20 -89q-59 -17 -103 -17q-82 0 -120 54z" />
    <glyph glyph-name="paragraph" unicode="&#xb6;" horiz-adv-x="640" 
d="M52 430q0 78 42.5 118.5t120.5 40.5h383v-96h-91v-398h87v-95h-184v493h-68v-493h-190v95h97v181h-25q-172 0 -172 154z" />
    <glyph glyph-name="periodcentered" unicode="&#xb7;" horiz-adv-x="250" 
d="M181.5 276.5q23.5 -23.5 23.5 -56.5t-23.5 -56.5t-55.5 -23.5q-34 0 -57.5 23.5t-23.5 56.5t23.5 56.5t57.5 23.5q32 0 55.5 -23.5z" />
    <glyph glyph-name="cedilla" unicode="&#xb8;" horiz-adv-x="345" 
d="M98 -222q-29 13 -57 32l32 48q46 -29 92 -29q22 0 32.5 10.5t10.5 28.5q0 32 -53 32h-58v100h71v-51q64 2 95 -19t31 -67q0 -48 -36 -73t-92 -25q-39 0 -68 13z" />
    <glyph glyph-name="uni00B9" unicode="&#xb9;" horiz-adv-x="365" 
d="M186 590h55l1 -296h115v-75h-320v75h113v179l-93 -64l-41 58z" />
    <glyph glyph-name="ordmasculine" unicode="&#xba;" horiz-adv-x="394" 
d="M307 424.5q41 -41.5 41 -115.5q0 -70 -40.5 -113t-110.5 -43q-67 0 -109 41.5t-42 114.5q0 74 42 115.5t109 41.5q69 0 110 -41.5zM150.5 370q-16.5 -22 -16.5 -61q0 -38 16 -60t48 -22q30 0 46.5 22t16.5 60t-16.5 60.5t-46.5 22.5q-31 0 -47.5 -22z" />
    <glyph glyph-name="guillemotright" unicode="&#xbb;" horiz-adv-x="347" 
d="M198 446l155 -228l-155 -229l-73 52l119 176l-119 177zM74 366l89 -148l-89 -149l-67 53l60 94l-60 97z" />
    <glyph glyph-name="onequarter" unicode="&#xbc;" horiz-adv-x="962" 
d="M186 590h55l1 -296h115v-75h-320v75h113v179l-93 -64l-41 58zM650 652h91l-441 -728h-91zM751 0v75h21v20h-225l-1 74l177 248l64 -48l-148 -199h133v120h92l1 -120l67 -1v-74h-67v-20h15v-75h-129z" />
    <glyph glyph-name="onehalf" unicode="&#xbd;" horiz-adv-x="980" 
d="M186 590h55l1 -296h115v-75h-320v75h113v179l-93 -64l-41 58zM650 652h91l-441 -728h-91zM599 84q101 55 147 88q75 53 75 93q0 22 -15.5 32.5t-40.5 10.5q-27 0 -58 -13t-58 -36l-55 65q80 70 165 70q69 0 114.5 -31.5t45.5 -85.5q0 -71 -82 -126q-24 -20 -55.5 -37
t-78.5 -39h150l41 56l68 -45l-59 -86h-274z" />
    <glyph glyph-name="threequarters" unicode="&#xbe;" horiz-adv-x="939" 
d="M220.5 452q17.5 13 17.5 32t-18.5 30.5t-52.5 11.5q-27 0 -55 -8.5t-49 -23.5l-46 61q65 52 148 52q76 0 120 -31t44 -78q0 -64 -75 -86q88 -22 88 -87q0 -33 -21 -61t-58 -44.5t-83 -16.5q-53 0 -94 13.5t-77 41.5l44 74q29 -23 58 -35t64 -12q34 0 53 13t19 31
q0 20 -18 32.5t-50 12.5h-49v65h44q29 0 46.5 13zM627 652h91l-441 -728h-91zM728 0v75h21v20h-225l-1 74l177 248l64 -48l-148 -199h133v120h92l1 -120l67 -1v-74h-67v-20h15v-75h-129z" />
    <glyph glyph-name="questiondown" unicode="&#xbf;" horiz-adv-x="387" 
d="M141 255q-24 24 -24 57q0 32 24 55.5t56 23.5t56 -23.5t24 -55.5q0 -33 -23.5 -57t-56.5 -24q-32 0 -56 24zM295 -225q-48 -13 -98 -13q-93 0 -142 38.5t-49 109.5q0 43 21.5 71.5t73.5 56.5q39 20 57 31t24.5 20.5t6.5 22.5q0 9 -5.5 18t-18.5 24l64 40q31 -24 42 -46
t11 -52q0 -25 -9.5 -43t-33 -35.5t-68.5 -41.5q-36 -20 -48 -33.5t-12 -34.5q0 -28 22 -44.5t60 -16.5q48 0 85 17l13 82l91 -10l-15 -129q-24 -19 -72 -32z" />
    <glyph glyph-name="Agrave" unicode="&#xc0;" horiz-adv-x="680" 
d="M6 0v101h99l151 387h-84v101h227l184 -488h90v-101h-259v101h53l-31 86h-199l-31 -86h58v-101h-258zM266 266h143l-70 209zM158 793l244 -89l-15 -45l-254 40z" />
    <glyph glyph-name="Aacute" unicode="&#xc1;" horiz-adv-x="680" 
d="M6 0v101h99l151 387h-84v101h227l184 -488h90v-101h-259v101h53l-31 86h-199l-31 -86h58v-101h-258zM266 266h143l-70 209zM486 792l26 -95l-253 -39l-16 45z" />
    <glyph glyph-name="Acircumflex" unicode="&#xc2;" horiz-adv-x="680" 
d="M6 0v101h99l151 387h-84v101h227l184 -488h90v-101h-259v101h53l-31 86h-199l-31 -86h58v-101h-258zM266 266h143l-70 209zM330 794l180 -104l-31 -43l-148 59l-153 -59l-28 43z" />
    <glyph glyph-name="Atilde" unicode="&#xc3;" horiz-adv-x="680" 
d="M6 0v101h99l151 387h-84v101h227l184 -488h90v-101h-259v101h53l-31 86h-199l-31 -86h58v-101h-258zM266 266h143l-70 209zM163 735q35 27 60.5 37.5t59.5 10.5q20 0 37 -5.5t37 -16.5q18 -9 30.5 -13.5t25.5 -4.5q20 0 35 6t43 24l27 -64q-30 -27 -55 -38.5t-60 -11.5
q-15 0 -28.5 5t-33.5 15q-19 10 -33.5 15.5t-30.5 5.5q-17 0 -31 -4.5t-30.5 -12.5t-23.5 -11z" />
    <glyph glyph-name="Adieresis" unicode="&#xc4;" horiz-adv-x="680" 
d="M6 0v101h99l151 387h-84v101h227l184 -488h90v-101h-259v101h53l-31 86h-199l-31 -86h58v-101h-258zM266 266h143l-70 209zM282.5 779.5q20.5 -20.5 20.5 -48.5t-20.5 -48t-47.5 -20q-28 0 -48.5 20t-20.5 48t20.5 48.5t48.5 20.5q27 0 47.5 -20.5zM473.5 779.5
q20.5 -20.5 20.5 -48.5t-20.5 -48t-47.5 -20q-28 0 -48.5 20t-20.5 48t20.5 48.5t48.5 20.5q27 0 47.5 -20.5z" />
    <glyph glyph-name="Aring" unicode="&#xc5;" horiz-adv-x="695" 
d="M673 101v-101h-259v101h53l-31 86h-199l-31 -86h58v-101h-258v101h99l151 387h-84v101h106q-32 29 -32 79q0 47 28.5 75.5t75.5 28.5t75.5 -28.5t28.5 -75.5q0 -31 -13.5 -55t-36.5 -36l179 -476h90zM314 703.5q-14 -13.5 -14 -35.5t14 -35.5t36 -13.5t35.5 13.5
t13.5 35.5t-13.5 35.5t-35.5 13.5t-36 -13.5zM266 266h143l-70 209z" />
    <glyph glyph-name="AE" unicode="&#xc6;" horiz-adv-x="939" 
d="M28 0v101h95l239 387h-94v101h557l60 -177l-96 -32l-37 108h-172v-141h162v-99h-162v-147h196l37 100l95 -33l-58 -168h-472v101h86v71h-186l-43 -71h53v-101h-260zM336 272h128v216z" />
    <glyph glyph-name="Ccedilla" unicode="&#xc7;" horiz-adv-x="607" 
d="M467 188l97 -22l-30 -142q-5 -3 -25 -12t-55 -18.5t-77 -12.5v-32q64 2 95 -19t31 -67q0 -48 -36 -73t-92 -25q-39 0 -68 13t-57 32l32 48q46 -29 92 -29q22 0 32.5 10.5t10.5 28.5q0 32 -53 32h-58v82q-123 11 -193 91t-70 225q0 96 37.5 166.5t105 107.5t157.5 37
q56 0 99 -11.5t69 -24.5t26 -15l28 -141l-98 -22l-21 99q-8 4 -39.5 11t-62.5 7q-87 0 -134 -56t-47 -160q0 -105 47.5 -162t133.5 -57q42 0 70.5 11.5t31.5 12.5z" />
    <glyph glyph-name="Egrave" unicode="&#xc8;" horiz-adv-x="609" 
d="M42 589h454l59 -177l-95 -32l-38 108h-179v-138h170v-100h-170v-149h204l37 100l94 -33l-58 -168h-479v101h85l1 387h-85v101zM126 793l244 -89l-15 -45l-254 40z" />
    <glyph glyph-name="Eacute" unicode="&#xc9;" horiz-adv-x="609" 
d="M42 589h454l59 -177l-95 -32l-38 108h-179v-138h170v-100h-170v-149h204l37 100l94 -33l-58 -168h-479v101h85l1 387h-85v101zM454 792l26 -95l-253 -39l-16 45z" />
    <glyph glyph-name="Ecircumflex" unicode="&#xca;" horiz-adv-x="609" 
d="M42 589h454l59 -177l-95 -32l-38 108h-179v-138h170v-100h-170v-149h204l37 100l94 -33l-58 -168h-479v101h85l1 387h-85v101zM298 794l180 -104l-31 -43l-148 59l-153 -59l-28 43z" />
    <glyph glyph-name="Edieresis" unicode="&#xcb;" horiz-adv-x="609" 
d="M42 589h454l59 -177l-95 -32l-38 108h-179v-138h170v-100h-170v-149h204l37 100l94 -33l-58 -168h-479v101h85l1 387h-85v101zM250.5 779.5q20.5 -20.5 20.5 -48.5t-20.5 -48t-47.5 -20q-28 0 -48.5 20t-20.5 48t20.5 48.5t48.5 20.5q27 0 47.5 -20.5zM441.5 779.5
q20.5 -20.5 20.5 -48.5t-20.5 -48t-47.5 -20q-28 0 -48.5 20t-20.5 48t20.5 48.5t48.5 20.5q27 0 47.5 -20.5z" />
    <glyph glyph-name="Igrave" unicode="&#xcc;" horiz-adv-x="389" 
d="M42 589h306v-101h-95v-387h95v-101h-307v101h97v387h-96v101zM22 793l244 -89l-15 -45l-254 40z" />
    <glyph glyph-name="Iacute" unicode="&#xcd;" horiz-adv-x="389" 
d="M42 589h306v-101h-95v-387h95v-101h-307v101h97v387h-96v101zM350 792l26 -95l-253 -39l-16 45z" />
    <glyph glyph-name="Icircumflex" unicode="&#xce;" horiz-adv-x="389" 
d="M42 589h306v-101h-95v-387h95v-101h-307v101h97v387h-96v101zM194 794l180 -104l-31 -43l-148 59l-153 -59l-28 43z" />
    <glyph glyph-name="Idieresis" unicode="&#xcf;" horiz-adv-x="389" 
d="M42 589h306v-101h-95v-387h95v-101h-307v101h97v387h-96v101zM146.5 779.5q20.5 -20.5 20.5 -48.5t-20.5 -48t-47.5 -20q-28 0 -48.5 20t-20.5 48t20.5 48.5t48.5 20.5q27 0 47.5 -20.5zM337.5 779.5q20.5 -20.5 20.5 -48.5t-20.5 -48t-47.5 -20q-28 0 -48.5 20t-20.5 48
t20.5 48.5t48.5 20.5q27 0 47.5 -20.5z" />
    <glyph glyph-name="Eth" unicode="&#xd0;" horiz-adv-x="686" 
d="M562.5 517.5q81.5 -71.5 81.5 -233.5q0 -146 -82.5 -215t-223.5 -69h-282v101h85v154h-85v99h85v134h-85v101h274q151 0 232.5 -71.5zM436 117.5q44 16.5 65.5 56t21.5 109.5q0 78 -21 123t-63 63.5t-109 18.5h-73v-134h96v-99h-96v-154h63q72 0 116 16.5z" />
    <glyph glyph-name="Ntilde" unicode="&#xd1;" horiz-adv-x="740" 
d="M42 589h259l213 -423v322h-77v101h275v-101h-94v-488h-134l-253 489l1 -388h84v-101h-275v101h87v387h-86v101zM207 735q35 27 60.5 37.5t59.5 10.5q20 0 37 -5.5t37 -16.5q18 -9 30.5 -13.5t25.5 -4.5q20 0 35 6t43 24l27 -64q-30 -27 -55 -38.5t-60 -11.5
q-15 0 -28.5 5t-33.5 15q-19 10 -33.5 15.5t-30.5 5.5q-17 0 -31 -4.5t-30.5 -12.5t-23.5 -11z" />
    <glyph glyph-name="Ograve" unicode="&#xd2;" horiz-adv-x="668" 
d="M486 572q66 -37 103 -108t37 -169t-36.5 -169t-102.5 -108.5t-153 -37.5q-86 0 -152 37.5t-102.5 108.5t-36.5 169t36.5 169t102 108t151.5 37q87 0 153 -37zM206.5 456q-43.5 -55 -43.5 -161t43.5 -161.5t127.5 -55.5t128 55.5t44 161.5t-43.5 161t-128.5 55
q-84 0 -127.5 -55zM161 793l244 -89l-15 -45l-254 40z" />
    <glyph glyph-name="Oacute" unicode="&#xd3;" horiz-adv-x="668" 
d="M486 572q66 -37 103 -108t37 -169t-36.5 -169t-102.5 -108.5t-153 -37.5q-86 0 -152 37.5t-102.5 108.5t-36.5 169t36.5 169t102 108t151.5 37q87 0 153 -37zM206.5 456q-43.5 -55 -43.5 -161t43.5 -161.5t127.5 -55.5t128 55.5t44 161.5t-43.5 161t-128.5 55
q-84 0 -127.5 -55zM489 792l26 -95l-253 -39l-16 45z" />
    <glyph glyph-name="Ocircumflex" unicode="&#xd4;" horiz-adv-x="668" 
d="M486 572q66 -37 103 -108t37 -169t-36.5 -169t-102.5 -108.5t-153 -37.5q-86 0 -152 37.5t-102.5 108.5t-36.5 169t36.5 169t102 108t151.5 37q87 0 153 -37zM206.5 456q-43.5 -55 -43.5 -161t43.5 -161.5t127.5 -55.5t128 55.5t44 161.5t-43.5 161t-128.5 55
q-84 0 -127.5 -55zM333 794l180 -104l-31 -43l-148 59l-153 -59l-28 43z" />
    <glyph glyph-name="Otilde" unicode="&#xd5;" horiz-adv-x="668" 
d="M486 572q66 -37 103 -108t37 -169t-36.5 -169t-102.5 -108.5t-153 -37.5q-86 0 -152 37.5t-102.5 108.5t-36.5 169t36.5 169t102 108t151.5 37q87 0 153 -37zM206.5 456q-43.5 -55 -43.5 -161t43.5 -161.5t127.5 -55.5t128 55.5t44 161.5t-43.5 161t-128.5 55
q-84 0 -127.5 -55zM166 735q35 27 60.5 37.5t59.5 10.5q20 0 37 -5.5t37 -16.5q18 -9 30.5 -13.5t25.5 -4.5q20 0 35 6t43 24l27 -64q-30 -27 -55 -38.5t-60 -11.5q-15 0 -28.5 5t-33.5 15q-19 10 -33.5 15.5t-30.5 5.5q-17 0 -31 -4.5t-30.5 -12.5t-23.5 -11z" />
    <glyph glyph-name="Odieresis" unicode="&#xd6;" horiz-adv-x="668" 
d="M486 572q66 -37 103 -108t37 -169t-36.5 -169t-102.5 -108.5t-153 -37.5q-86 0 -152 37.5t-102.5 108.5t-36.5 169t36.5 169t102 108t151.5 37q87 0 153 -37zM206.5 456q-43.5 -55 -43.5 -161t43.5 -161.5t127.5 -55.5t128 55.5t44 161.5t-43.5 161t-128.5 55
q-84 0 -127.5 -55zM285.5 779.5q20.5 -20.5 20.5 -48.5t-20.5 -48t-47.5 -20q-28 0 -48.5 20t-20.5 48t20.5 48.5t48.5 20.5q27 0 47.5 -20.5zM476.5 779.5q20.5 -20.5 20.5 -48.5t-20.5 -48t-47.5 -20q-28 0 -48.5 20t-20.5 48t20.5 48.5t48.5 20.5q27 0 47.5 -20.5z" />
    <glyph glyph-name="multiply" unicode="&#xd7;" horiz-adv-x="495" 
d="M146 479l103 -103l104 104l67 -67l-105 -104l103 -103l-71 -70l-102 102l-105 -104l-66 67l104 104l-103 103z" />
    <glyph glyph-name="Oslash" unicode="&#xd8;" horiz-adv-x="668" 
d="M598 444.5q28 -64.5 28 -149.5q0 -98 -36.5 -169t-102.5 -108.5t-153 -37.5q-42 0 -80 9l-27 -58h-96l42 92q-62 39 -96 108.5t-34 163.5q0 98 36.5 169t102 108t151.5 37q58 0 109 -17l27 59h97l-47 -101q51 -41 79 -105.5zM206.5 456q-43.5 -55 -43.5 -161
q0 -125 60 -179l176 385q-27 10 -65 10q-84 0 -127.5 -55zM462 133.5q44 55.5 44 161.5q0 101 -39 155l-169 -369q17 -3 36 -3q84 0 128 55.5z" />
    <glyph glyph-name="Ugrave" unicode="&#xd9;" horiz-adv-x="688" 
d="M516 40q-58 -60 -172 -60q-115 0 -173 60t-58 173v275h-85v101h259v-101h-58v-295q0 -61 29 -89t86 -28q114 0 114 127v285h-57v101h259v-101h-86v-275q0 -113 -58 -173zM171 793l244 -89l-15 -45l-254 40z" />
    <glyph glyph-name="Uacute" unicode="&#xda;" horiz-adv-x="688" 
d="M516 40q-58 -60 -172 -60q-115 0 -173 60t-58 173v275h-85v101h259v-101h-58v-295q0 -61 29 -89t86 -28q114 0 114 127v285h-57v101h259v-101h-86v-275q0 -113 -58 -173zM499 792l26 -95l-253 -39l-16 45z" />
    <glyph glyph-name="Ucircumflex" unicode="&#xdb;" horiz-adv-x="688" 
d="M516 40q-58 -60 -172 -60q-115 0 -173 60t-58 173v275h-85v101h259v-101h-58v-295q0 -61 29 -89t86 -28q114 0 114 127v285h-57v101h259v-101h-86v-275q0 -113 -58 -173zM343 794l180 -104l-31 -43l-148 59l-153 -59l-28 43z" />
    <glyph glyph-name="Udieresis" unicode="&#xdc;" horiz-adv-x="688" 
d="M516 40q-58 -60 -172 -60q-115 0 -173 60t-58 173v275h-85v101h259v-101h-58v-295q0 -61 29 -89t86 -28q114 0 114 127v285h-57v101h259v-101h-86v-275q0 -113 -58 -173zM295.5 779.5q20.5 -20.5 20.5 -48.5t-20.5 -48t-47.5 -20q-28 0 -48.5 20t-20.5 48t20.5 48.5
t48.5 20.5q27 0 47.5 -20.5zM486.5 779.5q20.5 -20.5 20.5 -48.5t-20.5 -48t-47.5 -20q-28 0 -48.5 20t-20.5 48t20.5 48.5t48.5 20.5q27 0 47.5 -20.5z" />
    <glyph glyph-name="Yacute" unicode="&#xdd;" horiz-adv-x="663" 
d="M6 589h272v-101h-65l126 -170l125 170h-66v101h259v-101h-72l-193 -250v-138h94v-100h-303v100h95v137l-194 251h-78v101zM486 792l26 -95l-253 -39l-16 45z" />
    <glyph glyph-name="Thorn" unicode="&#xde;" horiz-adv-x="559" 
d="M41 101h84v387h-84v101h226v-59h-26v-29h68q121 0 175.5 -40t54.5 -124q0 -91 -55 -133.5t-172 -42.5h-71v-60h112v-101h-312v101zM307 259q58 0 85 15t27 58q0 41 -27 55t-86 14h-64v-142h65z" />
    <glyph glyph-name="germandbls" unicode="&#xdf;" horiz-adv-x="608" 
d="M342 -2.5q-38 13.5 -55 34.5l-16 87l87 18l9 -52q7 -7 21.5 -11.5t31.5 -4.5q25 0 40.5 13.5t15.5 35.5q0 46 -73 76q-63 28 -88.5 57t-25.5 73q0 40 18 65t53 53q26 20 38.5 35.5t12.5 36.5q0 28 -22.5 44t-60.5 16q-49 0 -68 -26t-19 -91v-457h-198v99h84v250h-84v98
h84v39q0 89 49.5 131.5t146.5 42.5q86 0 138 -39.5t52 -106.5q0 -42 -19.5 -67.5t-54.5 -52.5q-24 -19 -34.5 -31t-10.5 -28q0 -21 15 -35.5t56 -31.5q115 -51 115 -143q0 -62 -44.5 -101.5t-115.5 -39.5q-40 0 -78 13.5z" />
    <glyph glyph-name="agrave" unicode="&#xe0;" horiz-adv-x="551" 
d="M227 -19q-93 0 -141.5 36.5t-48.5 106.5q0 68 46.5 102.5t136.5 34.5h112q0 58 -24 88t-66 30t-80 -12l-9 -49l-94 13l18 106q81 29 168 29q98 0 149.5 -52t51.5 -151v-166l84 -27l-31 -94l-129 44q-72 -39 -143 -39zM171 170.5q-18 -16.5 -18 -47.5q0 -57 78 -57
q55 0 101 29v91l-109 1q-34 0 -52 -16.5zM248 509l-159 183l78 57l129 -207z" />
    <glyph glyph-name="aacute" unicode="&#xe1;" horiz-adv-x="551" 
d="M227 -19q-93 0 -141.5 36.5t-48.5 106.5q0 68 46.5 102.5t136.5 34.5h112q0 58 -24 88t-66 30t-80 -12l-9 -49l-94 13l18 106q81 29 168 29q98 0 149.5 -52t51.5 -151v-166l84 -27l-31 -94l-129 44q-72 -39 -143 -39zM171 170.5q-18 -16.5 -18 -47.5q0 -57 78 -57
q55 0 101 29v91l-109 1q-34 0 -52 -16.5zM334 749l77 -57l-158 -183l-49 33z" />
    <glyph glyph-name="acircumflex" unicode="&#xe2;" horiz-adv-x="551" 
d="M227 -19q-93 0 -141.5 36.5t-48.5 106.5q0 68 46.5 102.5t136.5 34.5h112q0 58 -24 88t-66 30t-80 -12l-9 -49l-94 13l18 106q81 29 168 29q98 0 149.5 -52t51.5 -151v-166l84 -27l-31 -94l-129 44q-72 -39 -143 -39zM171 170.5q-18 -16.5 -18 -47.5q0 -57 78 -57
q55 0 101 29v91l-109 1q-34 0 -52 -16.5zM249 675l164 -115l-35 -50l-128 75l-136 -75l-33 50z" />
    <glyph glyph-name="atilde" unicode="&#xe3;" horiz-adv-x="551" 
d="M227 -19q-93 0 -141.5 36.5t-48.5 106.5q0 68 46.5 102.5t136.5 34.5h112q0 58 -24 88t-66 30t-80 -12l-9 -49l-94 13l18 106q81 29 168 29q98 0 149.5 -52t51.5 -151v-166l84 -27l-31 -94l-129 44q-72 -39 -143 -39zM171 170.5q-18 -16.5 -18 -47.5q0 -57 78 -57
q55 0 101 29v91l-109 1q-34 0 -52 -16.5zM80 593q35 27 60.5 37.5t59.5 10.5q20 0 37 -5.5t37 -16.5q18 -9 30.5 -13.5t25.5 -4.5q20 0 35 6t43 24l27 -64q-30 -27 -55 -38.5t-60 -11.5q-15 0 -28.5 5t-33.5 15q-19 10 -33.5 15.5t-30.5 5.5q-17 0 -31 -4.5t-30.5 -12.5
t-23.5 -11z" />
    <glyph glyph-name="adieresis" unicode="&#xe4;" horiz-adv-x="551" 
d="M227 -19q-93 0 -141.5 36.5t-48.5 106.5q0 68 46.5 102.5t136.5 34.5h112q0 58 -24 88t-66 30t-80 -12l-9 -49l-94 13l18 106q81 29 168 29q98 0 149.5 -52t51.5 -151v-166l84 -27l-31 -94l-129 44q-72 -39 -143 -39zM171 170.5q-18 -16.5 -18 -47.5q0 -57 78 -57
q55 0 101 29v91l-109 1q-34 0 -52 -16.5zM199.5 637.5q20.5 -20.5 20.5 -48.5t-20.5 -48t-47.5 -20q-28 0 -48.5 20t-20.5 48t20.5 48.5t48.5 20.5q27 0 47.5 -20.5zM390.5 637.5q20.5 -20.5 20.5 -48.5t-20.5 -48t-47.5 -20q-28 0 -48.5 20t-20.5 48t20.5 48.5t48.5 20.5
q27 0 47.5 -20.5z" />
    <glyph glyph-name="aring" unicode="&#xe5;" horiz-adv-x="551" 
d="M227 -19q-93 0 -141.5 36.5t-48.5 106.5q0 68 46.5 102.5t136.5 34.5h112q0 58 -24 88t-66 30t-80 -12l-9 -49l-94 13l18 106q81 29 168 29q98 0 149.5 -52t51.5 -151v-166l84 -27l-31 -94l-129 44q-72 -39 -143 -39zM171 170.5q-18 -16.5 -18 -47.5q0 -57 78 -57
q55 0 101 29v91l-109 1q-34 0 -52 -16.5zM322.5 698.5q28.5 -28.5 28.5 -75.5t-28.5 -75.5t-75.5 -28.5t-75.5 28.5t-28.5 75.5t28.5 75.5t75.5 28.5t75.5 -28.5zM211 658.5q-14 -13.5 -14 -35.5t14 -35.5t36 -13.5t35.5 13.5t13.5 35.5t-13.5 35.5t-35.5 13.5t-36 -13.5z
" />
    <glyph glyph-name="ae" unicode="&#xe6;" horiz-adv-x="801" 
d="M154 450q37 8 81 8q67 0 108.5 -24t56.5 -65q32 43 76 66t93 23q55 0 98 -28t66.5 -77t23.5 -110q0 -23 -5 -55l-311 -1q7 -55 40.5 -86t85.5 -31q84 0 147 47l49 -64q-2 -5 -26.5 -23t-68.5 -34t-102 -16q-52 0 -92.5 13t-72.5 43q-31 -21 -81.5 -38.5t-91.5 -17.5
q-89 0 -140 38t-51 104q0 75 51 110.5t133 35.5h119q0 46 -20 68.5t-81 22.5q-25 0 -77 -8l-8 -50l-96 18l19 107q40 16 77 24zM636 340.5q-24 24.5 -74 24.5q-47 0 -78 -24.5t-41 -69.5l218 1q-1 44 -25 68.5zM153 123q0 -26 22.5 -39t56.5 -13q30 0 67 11.5t58 24.5
q-15 39 -18 77h-115q-71 0 -71 -61z" />
    <glyph glyph-name="ccedilla" unicode="&#xe7;" horiz-adv-x="497" 
d="M408 -70q31 -21 31 -67q0 -48 -36 -73t-92 -25q-39 0 -68 13t-57 32l32 48q46 -29 92 -29q22 0 32.5 10.5t10.5 28.5q0 32 -53 32h-58v83q-95 9 -149 70t-54 167q0 120 63.5 183.5t178.5 63.5q70 0 154 -29l25 -129l-96 -21l-14 81q-36 10 -68 10q-62 0 -94.5 -40
t-32.5 -119q0 -68 35 -107.5t89 -39.5q68 0 137 49l46 -68q-40 -31 -74 -48t-75 -23v-34q64 2 95 -19z" />
    <glyph glyph-name="egrave" unicode="&#xe8;" horiz-adv-x="521" 
d="M285 -19q-75 0 -131.5 30.5t-87.5 85t-31 125.5q0 72 29 127.5t82 86t121 30.5t119.5 -28t79.5 -79t28 -118q0 -26 -5 -56h-344q4 -56 43.5 -85t96.5 -29q83 0 149 52l40 -68q-87 -74 -189 -74zM350 343.5q-30 30.5 -80 30.5q-49 0 -84 -31t-39 -80h234q-1 50 -31 80.5z
M264 509l-159 183l78 57l129 -207z" />
    <glyph glyph-name="eacute" unicode="&#xe9;" horiz-adv-x="521" 
d="M285 -19q-75 0 -131.5 30.5t-87.5 85t-31 125.5q0 72 29 127.5t82 86t121 30.5t119.5 -28t79.5 -79t28 -118q0 -26 -5 -56h-344q4 -56 43.5 -85t96.5 -29q83 0 149 52l40 -68q-87 -74 -189 -74zM350 343.5q-30 30.5 -80 30.5q-49 0 -84 -31t-39 -80h234q-1 50 -31 80.5z
M350 749l77 -57l-158 -183l-49 33z" />
    <glyph glyph-name="ecircumflex" unicode="&#xea;" horiz-adv-x="521" 
d="M285 -19q-75 0 -131.5 30.5t-87.5 85t-31 125.5q0 72 29 127.5t82 86t121 30.5t119.5 -28t79.5 -79t28 -118q0 -26 -5 -56h-344q4 -56 43.5 -85t96.5 -29q83 0 149 52l40 -68q-87 -74 -189 -74zM350 343.5q-30 30.5 -80 30.5q-49 0 -84 -31t-39 -80h234q-1 50 -31 80.5z
M265 675l164 -115l-35 -50l-128 75l-136 -75l-33 50z" />
    <glyph glyph-name="edieresis" unicode="&#xeb;" horiz-adv-x="521" 
d="M285 -19q-75 0 -131.5 30.5t-87.5 85t-31 125.5q0 72 29 127.5t82 86t121 30.5t119.5 -28t79.5 -79t28 -118q0 -26 -5 -56h-344q4 -56 43.5 -85t96.5 -29q83 0 149 52l40 -68q-87 -74 -189 -74zM350 343.5q-30 30.5 -80 30.5q-49 0 -84 -31t-39 -80h234q-1 50 -31 80.5z
M215.5 637.5q20.5 -20.5 20.5 -48.5t-20.5 -48t-47.5 -20q-28 0 -48.5 20t-20.5 48t20.5 48.5t48.5 20.5q27 0 47.5 -20.5zM406.5 637.5q20.5 -20.5 20.5 -48.5t-20.5 -48t-47.5 -20q-28 0 -48.5 20t-20.5 48t20.5 48.5t48.5 20.5q27 0 47.5 -20.5z" />
    <glyph glyph-name="igrave" unicode="&#xec;" horiz-adv-x="345" 
d="M40 447h198v-356h83v-91h-281v91h83v266h-83v90zM171 509l-159 183l78 57l129 -207z" />
    <glyph glyph-name="iacute" unicode="&#xed;" horiz-adv-x="345" 
d="M40 447h198v-356h83v-91h-281v91h83v266h-83v90zM257 749l77 -57l-158 -183l-49 33z" />
    <glyph glyph-name="icircumflex" unicode="&#xee;" horiz-adv-x="345" 
d="M40 447h198v-356h83v-91h-281v91h83v266h-83v90zM172 675l164 -115l-35 -50l-128 75l-136 -75l-33 50z" />
    <glyph glyph-name="idieresis" unicode="&#xef;" horiz-adv-x="345" 
d="M40 447h198v-356h83v-91h-281v91h83v266h-83v90zM122.5 637.5q20.5 -20.5 20.5 -48.5t-20.5 -48t-47.5 -20q-28 0 -48.5 20t-20.5 48t20.5 48.5t48.5 20.5q27 0 47.5 -20.5zM313.5 637.5q20.5 -20.5 20.5 -48.5t-20.5 -48t-47.5 -20q-28 0 -48.5 20t-20.5 48t20.5 48.5
t48.5 20.5q27 0 47.5 -20.5z" />
    <glyph glyph-name="eth" unicode="&#xf0;" horiz-adv-x="554" 
d="M457.5 450q51.5 -86 52.5 -187q0 -144 -65.5 -213.5t-171.5 -69.5q-102 0 -169.5 59t-67.5 181q0 64 32 112.5t83 74t106 25.5q70 0 110 -21q-39 66 -108 110l-43 -47l-59 54l29 34q-34 16 -84 34l20 71q36 -10 68 -20.5t54 -21.5l47 52l59 -56l-32 -35
q88 -50 139.5 -136zM185 315.5q-33 -36.5 -33 -102.5q0 -141 122 -141q60 0 91.5 49.5t31.5 127.5q0 36 -10 76q-19 13 -48 20t-60 7q-61 0 -94 -36.5z" />
    <glyph glyph-name="ntilde" unicode="&#xf1;" horiz-adv-x="661" 
d="M45 91h85v243l-96 33l29 91l139 -48q42 28 82 42t92 14q88 0 132 -51t44 -136v-188h83v-91h-238v91h42v173q0 103 -90 103q-28 0 -56 -9.5t-50 -24.5v-242h41v-91h-239v91zM166 593q35 27 60.5 37.5t59.5 10.5q20 0 37 -5.5t37 -16.5q18 -9 30.5 -13.5t25.5 -4.5
q20 0 35 6t43 24l27 -64q-30 -27 -55 -38.5t-60 -11.5q-15 0 -28.5 5t-33.5 15q-19 10 -33.5 15.5t-30.5 5.5q-17 0 -31 -4.5t-30.5 -12.5t-23.5 -11z" />
    <glyph glyph-name="ograve" unicode="&#xf2;" horiz-adv-x="555" 
d="M450.5 401.5q62.5 -64.5 62.5 -178.5t-62.5 -178t-174.5 -64q-110 0 -171.5 64t-61.5 178t61.5 178.5t171.5 64.5q112 0 174.5 -64.5zM186 334.5q-31 -38.5 -31 -111.5q0 -74 31 -112.5t91 -38.5q61 0 92 38.5t31 112.5q0 73 -31.5 111.5t-91.5 38.5t-91 -38.5zM278 509
l-159 183l78 57l129 -207z" />
    <glyph glyph-name="oacute" unicode="&#xf3;" horiz-adv-x="555" 
d="M450.5 401.5q62.5 -64.5 62.5 -178.5t-62.5 -178t-174.5 -64q-110 0 -171.5 64t-61.5 178t61.5 178.5t171.5 64.5q112 0 174.5 -64.5zM186 334.5q-31 -38.5 -31 -111.5q0 -74 31 -112.5t91 -38.5q61 0 92 38.5t31 112.5q0 73 -31.5 111.5t-91.5 38.5t-91 -38.5zM364 749
l77 -57l-158 -183l-49 33z" />
    <glyph glyph-name="ocircumflex" unicode="&#xf4;" horiz-adv-x="555" 
d="M450.5 401.5q62.5 -64.5 62.5 -178.5t-62.5 -178t-174.5 -64q-110 0 -171.5 64t-61.5 178t61.5 178.5t171.5 64.5q112 0 174.5 -64.5zM186 334.5q-31 -38.5 -31 -111.5q0 -74 31 -112.5t91 -38.5q61 0 92 38.5t31 112.5q0 73 -31.5 111.5t-91.5 38.5t-91 -38.5zM279 675
l164 -115l-35 -50l-128 75l-136 -75l-33 50z" />
    <glyph glyph-name="otilde" unicode="&#xf5;" horiz-adv-x="555" 
d="M450.5 401.5q62.5 -64.5 62.5 -178.5t-62.5 -178t-174.5 -64q-110 0 -171.5 64t-61.5 178t61.5 178.5t171.5 64.5q112 0 174.5 -64.5zM186 334.5q-31 -38.5 -31 -111.5q0 -74 31 -112.5t91 -38.5q61 0 92 38.5t31 112.5q0 73 -31.5 111.5t-91.5 38.5t-91 -38.5zM110 593
q35 27 60.5 37.5t59.5 10.5q20 0 37 -5.5t37 -16.5q18 -9 30.5 -13.5t25.5 -4.5q20 0 35 6t43 24l27 -64q-30 -27 -55 -38.5t-60 -11.5q-15 0 -28.5 5t-33.5 15q-19 10 -33.5 15.5t-30.5 5.5q-17 0 -31 -4.5t-30.5 -12.5t-23.5 -11z" />
    <glyph glyph-name="odieresis" unicode="&#xf6;" horiz-adv-x="555" 
d="M450.5 401.5q62.5 -64.5 62.5 -178.5t-62.5 -178t-174.5 -64q-110 0 -171.5 64t-61.5 178t61.5 178.5t171.5 64.5q112 0 174.5 -64.5zM186 334.5q-31 -38.5 -31 -111.5q0 -74 31 -112.5t91 -38.5q61 0 92 38.5t31 112.5q0 73 -31.5 111.5t-91.5 38.5t-91 -38.5z
M229.5 637.5q20.5 -20.5 20.5 -48.5t-20.5 -48t-47.5 -20q-28 0 -48.5 20t-20.5 48t20.5 48.5t48.5 20.5q27 0 47.5 -20.5zM420.5 637.5q20.5 -20.5 20.5 -48.5t-20.5 -48t-47.5 -20q-28 0 -48.5 20t-20.5 48t20.5 48.5t48.5 20.5q27 0 47.5 -20.5z" />
    <glyph glyph-name="divide" unicode="&#xf7;" horiz-adv-x="495" 
d="M299.5 525q22.5 -23 22.5 -52q0 -31 -22.5 -53.5t-52.5 -22.5q-31 0 -53.5 22.5t-22.5 53.5q0 30 22.5 52.5t53.5 22.5q30 0 52.5 -23zM445 354v-95h-395v95h395zM299.5 185q22.5 -23 22.5 -53q0 -31 -22.5 -53t-52.5 -22q-31 0 -53.5 22t-22.5 53q0 30 22.5 53t53.5 23
q30 0 52.5 -23z" />
    <glyph glyph-name="oslash" unicode="&#xf8;" horiz-adv-x="555" 
d="M483.5 356q29.5 -55 29.5 -133q0 -114 -62.5 -178t-174.5 -64q-37 0 -72 8l-28 -65h-61l37 85q-53 29 -81 83.5t-28 130.5q0 114 61.5 178.5t171.5 64.5q36 0 70 -8l24 55h61l-32 -74q55 -28 84.5 -83zM193 103l115 267q-15 3 -31 3q-60 0 -91 -38.5t-31 -111.5
q0 -80 38 -120zM369 110.5q31 38.5 31 112.5q0 84 -42 122l-116 -269q15 -4 35 -4q61 0 92 38.5z" />
    <glyph glyph-name="ugrave" unicode="&#xf9;" horiz-adv-x="636" 
d="M374.5 -7.5q-39.5 -11.5 -74.5 -11.5q-102 0 -149.5 45t-47.5 140v191h-79v90h193v-264q0 -54 20.5 -78t66.5 -24q23 0 53.5 7.5t55.5 19.5v249h-79v90h193v-340l88 -30l-31 -98l-136 45q-34 -20 -73.5 -31.5zM294 509l-159 183l78 57l129 -207z" />
    <glyph glyph-name="uacute" unicode="&#xfa;" horiz-adv-x="636" 
d="M374.5 -7.5q-39.5 -11.5 -74.5 -11.5q-102 0 -149.5 45t-47.5 140v191h-79v90h193v-264q0 -54 20.5 -78t66.5 -24q23 0 53.5 7.5t55.5 19.5v249h-79v90h193v-340l88 -30l-31 -98l-136 45q-34 -20 -73.5 -31.5zM380 749l77 -57l-158 -183l-49 33z" />
    <glyph glyph-name="ucircumflex" unicode="&#xfb;" horiz-adv-x="636" 
d="M374.5 -7.5q-39.5 -11.5 -74.5 -11.5q-102 0 -149.5 45t-47.5 140v191h-79v90h193v-264q0 -54 20.5 -78t66.5 -24q23 0 53.5 7.5t55.5 19.5v249h-79v90h193v-340l88 -30l-31 -98l-136 45q-34 -20 -73.5 -31.5zM295 675l164 -115l-35 -50l-128 75l-136 -75l-33 50z" />
    <glyph glyph-name="udieresis" unicode="&#xfc;" horiz-adv-x="636" 
d="M374.5 -7.5q-39.5 -11.5 -74.5 -11.5q-102 0 -149.5 45t-47.5 140v191h-79v90h193v-264q0 -54 20.5 -78t66.5 -24q23 0 53.5 7.5t55.5 19.5v249h-79v90h193v-340l88 -30l-31 -98l-136 45q-34 -20 -73.5 -31.5zM245.5 637.5q20.5 -20.5 20.5 -48.5t-20.5 -48t-47.5 -20
q-28 0 -48.5 20t-20.5 48t20.5 48.5t48.5 20.5q27 0 47.5 -20.5zM436.5 637.5q20.5 -20.5 20.5 -48.5t-20.5 -48t-47.5 -20q-28 0 -48.5 20t-20.5 48t20.5 48.5t48.5 20.5q27 0 47.5 -20.5z" />
    <glyph glyph-name="yacute" unicode="&#xfd;" horiz-adv-x="597" 
d="M592 447v-90h-77l-184 -433q-37 -88 -80 -127t-101 -39q-43 0 -88 19l21 88q20 -7 34 -10.5t30 -3.5q24 0 40.5 11.5t31 38t35.5 79.5l-176 377h-73v90h244v-90h-55l108 -256l102 256h-52l5 90h235zM389 749l77 -57l-158 -183l-49 33z" />
    <glyph glyph-name="thorn" unicode="&#xfe;" horiz-adv-x="550" 
d="M229.5 455q27.5 7 54.5 7q105 0 166 -62.5t61 -171.5q0 -75 -29 -131t-82.5 -86.5t-124.5 -30.5q-51 0 -93 12v-122h84v-90h-281v90h84v672l-100 34l33 97l180 -62v-175q20 12 47.5 19zM273 71q59 0 90.5 41t31.5 114q0 69 -30.5 106t-87.5 37q-26 0 -51.5 -10t-43.5 -22
v-248q44 -18 91 -18z" />
    <glyph glyph-name="ydieresis" unicode="&#xff;" horiz-adv-x="597" 
d="M592 447v-90h-77l-184 -433q-37 -88 -80 -127t-101 -39q-43 0 -88 19l21 88q20 -7 34 -10.5t30 -3.5q24 0 40.5 11.5t31 38t35.5 79.5l-176 377h-73v90h244v-90h-55l108 -256l102 256h-52l5 90h235zM254.5 637.5q20.5 -20.5 20.5 -48.5t-20.5 -48t-47.5 -20
q-28 0 -48.5 20t-20.5 48t20.5 48.5t48.5 20.5q27 0 47.5 -20.5zM445.5 637.5q20.5 -20.5 20.5 -48.5t-20.5 -48t-47.5 -20q-28 0 -48.5 20t-20.5 48t20.5 48.5t48.5 20.5q27 0 47.5 -20.5z" />
    <glyph glyph-name="Amacron" unicode="&#x100;" horiz-adv-x="680" 
d="M6 0v101h99l151 387h-84v101h227l184 -488h90v-101h-259v101h53l-31 86h-199l-31 -86h58v-101h-258zM266 266h143l-70 209zM163 760h334v-76h-334v76z" />
    <glyph glyph-name="amacron" unicode="&#x101;" horiz-adv-x="551" 
d="M227 -19q-93 0 -141.5 36.5t-48.5 106.5q0 68 46.5 102.5t136.5 34.5h112q0 58 -24 88t-66 30t-80 -12l-9 -49l-94 13l18 106q81 29 168 29q98 0 149.5 -52t51.5 -151v-166l84 -27l-31 -94l-129 44q-72 -39 -143 -39zM171 170.5q-18 -16.5 -18 -47.5q0 -57 78 -57
q55 0 101 29v91l-109 1q-34 0 -52 -16.5zM80 618h334v-76h-334v76z" />
    <glyph glyph-name="Abreve" unicode="&#x102;" horiz-adv-x="680" 
d="M6 0v101h99l151 387h-84v101h227l184 -488h90v-101h-259v101h53l-31 86h-199l-31 -86h58v-101h-258zM266 266h143l-70 209zM211 693.5q-44 35.5 -54 104.5l78 11q3 -37 27 -56.5t68 -19.5q45 0 70 19.5t27 56.5l78 -11q-10 -69 -54 -104.5t-121 -35.5q-75 0 -119 35.5z
" />
    <glyph glyph-name="abreve" unicode="&#x103;" horiz-adv-x="551" 
d="M227 -19q-93 0 -141.5 36.5t-48.5 106.5q0 68 46.5 102.5t136.5 34.5h112q0 58 -24 88t-66 30t-80 -12l-9 -49l-94 13l18 106q81 29 168 29q98 0 149.5 -52t51.5 -151v-166l84 -27l-31 -94l-129 44q-72 -39 -143 -39zM171 170.5q-18 -16.5 -18 -47.5q0 -57 78 -57
q55 0 101 29v91l-109 1q-34 0 -52 -16.5zM128 551.5q-44 35.5 -54 104.5l78 11q3 -37 27 -56.5t68 -19.5q45 0 70 19.5t27 56.5l78 -11q-10 -69 -54 -104.5t-121 -35.5q-75 0 -119 35.5z" />
    <glyph glyph-name="Aogonek" unicode="&#x104;" horiz-adv-x="680" 
d="M500.5 -50q-19.5 -27 -19.5 -59q0 -22 16.5 -35t43.5 -13q25 0 49 10v-72q-43 -19 -89 -19q-59 0 -93 26.5t-34 67.5q0 86 98 144h-58v101h53l-31 86h-199l-31 -86h58v-101h-258v101h99l151 387h-84v101h227l184 -488h90v-101h-108q-45 -23 -64.5 -50zM266 266h143
l-70 209z" />
    <glyph glyph-name="aogonek" unicode="&#x105;" horiz-adv-x="551" 
d="M431.5 -168q16.5 -13 43.5 -13q25 0 49 10v-72q-43 -19 -89 -19q-59 0 -93 26.5t-34 67.5q0 50 32.5 90.5t101.5 72.5l-72 25q-72 -39 -143 -39q-93 0 -141.5 36.5t-48.5 106.5q0 68 46.5 102.5t136.5 34.5h112q0 58 -24 88t-66 30t-80 -12l-9 -49l-94 13l18 106
q81 29 168 29q98 0 149.5 -52t51.5 -151v-166l84 -27l-31 -94q-45 -23 -64.5 -50t-19.5 -59q0 -22 16.5 -35zM332 186l-109 1q-34 0 -52 -16.5t-18 -47.5q0 -57 78 -57q55 0 101 29v91z" />
    <glyph glyph-name="Cacute" unicode="&#x106;" horiz-adv-x="607" 
d="M406.5 505q-31.5 7 -62.5 7q-87 0 -134 -56t-47 -160q0 -105 47.5 -162t133.5 -57q42 0 70.5 11.5t31.5 12.5l21 87l97 -22l-30 -142q0 -1 -27.5 -12.5t-70 -21.5t-92.5 -10q-139 0 -220 81t-81 237q0 96 37.5 166.5t105 107.5t157.5 37q56 0 99 -11.5t69 -24.5t26 -15
l28 -141l-98 -22l-21 99q-8 4 -39.5 11zM496 792l26 -95l-253 -39l-16 45z" />
    <glyph glyph-name="cacute" unicode="&#x107;" horiz-adv-x="497" 
d="M282 379q-62 0 -94.5 -40t-32.5 -119q0 -68 35 -107.5t89 -39.5q68 0 137 49l46 -68q-49 -38 -90 -55.5t-96 -17.5q-110 0 -173.5 62t-63.5 177q0 120 63.5 183.5t178.5 63.5q70 0 154 -29l25 -129l-96 -21l-14 81q-36 10 -68 10zM367 749l77 -57l-158 -183l-49 33z" />
    <glyph glyph-name="Ccircumflex" unicode="&#x108;" horiz-adv-x="607" 
d="M406.5 505q-31.5 7 -62.5 7q-87 0 -134 -56t-47 -160q0 -105 47.5 -162t133.5 -57q42 0 70.5 11.5t31.5 12.5l21 87l97 -22l-30 -142q0 -1 -27.5 -12.5t-70 -21.5t-92.5 -10q-139 0 -220 81t-81 237q0 96 37.5 166.5t105 107.5t157.5 37q56 0 99 -11.5t69 -24.5t26 -15
l28 -141l-98 -22l-21 99q-8 4 -39.5 11zM340 794l180 -104l-31 -43l-148 59l-153 -59l-28 43z" />
    <glyph glyph-name="ccircumflex" unicode="&#x109;" horiz-adv-x="497" 
d="M282 379q-62 0 -94.5 -40t-32.5 -119q0 -68 35 -107.5t89 -39.5q68 0 137 49l46 -68q-49 -38 -90 -55.5t-96 -17.5q-110 0 -173.5 62t-63.5 177q0 120 63.5 183.5t178.5 63.5q70 0 154 -29l25 -129l-96 -21l-14 81q-36 10 -68 10zM282 675l164 -115l-35 -50l-128 75
l-136 -75l-33 50z" />
    <glyph glyph-name="Cdotaccent" unicode="&#x10a;" horiz-adv-x="607" 
d="M406.5 505q-31.5 7 -62.5 7q-87 0 -134 -56t-47 -160q0 -105 47.5 -162t133.5 -57q42 0 70.5 11.5t31.5 12.5l21 87l97 -22l-30 -142q0 -1 -27.5 -12.5t-70 -21.5t-92.5 -10q-139 0 -220 81t-81 237q0 96 37.5 166.5t105 107.5t157.5 37q56 0 99 -11.5t69 -24.5t26 -15
l28 -141l-98 -22l-21 99q-8 4 -39.5 11zM390 787q19 -19 19 -50t-19 -50t-50 -19t-49.5 19t-18.5 50t18.5 50t49.5 19t50 -19z" />
    <glyph glyph-name="cdotaccent" unicode="&#x10b;" horiz-adv-x="497" 
d="M282 379q-62 0 -94.5 -40t-32.5 -119q0 -68 35 -107.5t89 -39.5q68 0 137 49l46 -68q-49 -38 -90 -55.5t-96 -17.5q-110 0 -173.5 62t-63.5 177q0 120 63.5 183.5t178.5 63.5q70 0 154 -29l25 -129l-96 -21l-14 81q-36 10 -68 10zM330 645q19 -19 19 -50t-19 -50t-50 -19
t-49.5 19t-18.5 50t18.5 50t49.5 19t50 -19z" />
    <glyph glyph-name="Ccaron" unicode="&#x10c;" horiz-adv-x="607" 
d="M406.5 505q-31.5 7 -62.5 7q-87 0 -134 -56t-47 -160q0 -105 47.5 -162t133.5 -57q42 0 70.5 11.5t31.5 12.5l21 87l97 -22l-30 -142q0 -1 -27.5 -12.5t-70 -21.5t-92.5 -10q-139 0 -220 81t-81 237q0 96 37.5 166.5t105 107.5t157.5 37q56 0 99 -11.5t69 -24.5t26 -15
l28 -141l-98 -22l-21 99q-8 4 -39.5 11zM342 642l-168 115l33 50l136 -75l128 75l35 -50z" />
    <glyph glyph-name="ccaron" unicode="&#x10d;" horiz-adv-x="497" 
d="M282 379q-62 0 -94.5 -40t-32.5 -119q0 -68 35 -107.5t89 -39.5q68 0 137 49l46 -68q-49 -38 -90 -55.5t-96 -17.5q-110 0 -173.5 62t-63.5 177q0 120 63.5 183.5t178.5 63.5q70 0 154 -29l25 -129l-96 -21l-14 81q-36 10 -68 10zM282 500l-168 115l33 50l136 -75l128 75
l35 -50z" />
    <glyph glyph-name="Dcaron" unicode="&#x10e;" horiz-adv-x="670" 
d="M546 508q83 -81 83 -224q0 -134 -81 -209t-225 -75h-282v101h85v387h-85v101h274q148 0 231 -81zM456.5 147q51.5 46 51.5 136q0 101 -49 153t-144 52h-73v-387h63q100 0 151.5 46zM299 638l-180 104l28 43l153 -59l148 59l31 -43z" />
    <glyph glyph-name="dcaron" unicode="&#x10f;" horiz-adv-x="588" 
d="M409 20q-27 -18 -62.5 -28.5t-70.5 -10.5q-112 0 -174 65.5t-62 181.5q0 112 62 175t174 63q40 0 93 -17v93l-99 34l32 96l180 -62v-508l86 -29l-31 -97zM323.5 79q25.5 7 45.5 19v256q-18 9 -43 14t-49 5q-55 0 -88.5 -40t-33.5 -105q0 -70 33.5 -113t88.5 -43
q21 0 46.5 7zM421 676l-168 115l33 50l136 -75l128 75l35 -50z" />
    <glyph glyph-name="Dcroat" unicode="&#x110;" horiz-adv-x="686" 
d="M562.5 517.5q81.5 -71.5 81.5 -233.5q0 -146 -82.5 -215t-223.5 -69h-282v101h85v154h-85v99h85v134h-85v101h274q151 0 232.5 -71.5zM436 117.5q44 16.5 65.5 56t21.5 109.5q0 78 -21 123t-63 63.5t-109 18.5h-73v-134h96v-99h-96v-154h63q72 0 116 16.5z" />
    <glyph glyph-name="dcroat" unicode="&#x111;" horiz-adv-x="588" 
d="M568 73l-31 -97l-128 44q-27 -18 -62.5 -28.5t-70.5 -10.5q-112 0 -174 60.5t-62 168.5q0 105 62.5 164t173.5 59q40 0 93 -17v46h-133v61h133v19l-99 34l32 96l180 -62v-87h81v-61h-81v-360zM369 320q-19 9 -44 14.5t-48 5.5q-55 0 -88.5 -36t-33.5 -93q0 -63 33.5 -101
t88.5 -38q23 0 47.5 7t44.5 19v222z" />
    <glyph glyph-name="Emacron" unicode="&#x112;" horiz-adv-x="609" 
d="M42 589h454l59 -177l-95 -32l-38 108h-179v-138h170v-100h-170v-149h204l37 100l94 -33l-58 -168h-479v101h85l1 387h-85v101zM131 760h334v-76h-334v76z" />
    <glyph glyph-name="emacron" unicode="&#x113;" horiz-adv-x="521" 
d="M285 -19q-75 0 -131.5 30.5t-87.5 85t-31 125.5q0 72 29 127.5t82 86t121 30.5t119.5 -28t79.5 -79t28 -118q0 -26 -5 -56h-344q4 -56 43.5 -85t96.5 -29q83 0 149 52l40 -68q-87 -74 -189 -74zM350 343.5q-30 30.5 -80 30.5q-49 0 -84 -31t-39 -80h234q-1 50 -31 80.5z
M96 618h334v-76h-334v76z" />
    <glyph glyph-name="Ebreve" unicode="&#x114;" horiz-adv-x="609" 
d="M42 589h454l59 -177l-95 -32l-38 108h-179v-138h170v-100h-170v-149h204l37 100l94 -33l-58 -168h-479v101h85l1 387h-85v101zM179 693.5q-44 35.5 -54 104.5l78 11q3 -37 27 -56.5t68 -19.5q45 0 70 19.5t27 56.5l78 -11q-10 -69 -54 -104.5t-121 -35.5q-75 0 -119 35.5
z" />
    <glyph glyph-name="ebreve" unicode="&#x115;" horiz-adv-x="521" 
d="M285 -19q-75 0 -131.5 30.5t-87.5 85t-31 125.5q0 72 29 127.5t82 86t121 30.5t119.5 -28t79.5 -79t28 -118q0 -26 -5 -56h-344q4 -56 43.5 -85t96.5 -29q83 0 149 52l40 -68q-87 -74 -189 -74zM350 343.5q-30 30.5 -80 30.5q-49 0 -84 -31t-39 -80h234q-1 50 -31 80.5z
M144 551.5q-44 35.5 -54 104.5l78 11q3 -37 27 -56.5t68 -19.5q45 0 70 19.5t27 56.5l78 -11q-10 -69 -54 -104.5t-121 -35.5q-75 0 -119 35.5z" />
    <glyph glyph-name="Edotaccent" unicode="&#x116;" horiz-adv-x="609" 
d="M42 589h454l59 -177l-95 -32l-38 108h-179v-138h170v-100h-170v-149h204l37 100l94 -33l-58 -168h-479v101h85l1 387h-85v101zM348 787q19 -19 19 -50t-19 -50t-50 -19t-49.5 19t-18.5 50t18.5 50t49.5 19t50 -19z" />
    <glyph glyph-name="edotaccent" unicode="&#x117;" horiz-adv-x="521" 
d="M285 -19q-75 0 -131.5 30.5t-87.5 85t-31 125.5q0 72 29 127.5t82 86t121 30.5t119.5 -28t79.5 -79t28 -118q0 -26 -5 -56h-344q4 -56 43.5 -85t96.5 -29q83 0 149 52l40 -68q-87 -74 -189 -74zM350 343.5q-30 30.5 -80 30.5q-49 0 -84 -31t-39 -80h234q-1 50 -31 80.5z
M313 645q19 -19 19 -50t-19 -50t-50 -19t-49.5 19t-18.5 50t18.5 50t49.5 19t50 -19z" />
    <glyph glyph-name="Eogonek" unicode="&#x118;" horiz-adv-x="609" 
d="M452.5 -144q16.5 -13 43.5 -13q25 0 49 10v-72q-43 -19 -89 -19q-59 0 -93 26.5t-34 67.5q0 86 98 144h-386v101h85l1 387h-85v101h454l59 -177l-95 -32l-38 108h-179v-138h170v-100h-170v-149h204l37 100l94 -33l-58 -168q-45 -23 -64.5 -50t-19.5 -59q0 -22 16.5 -35z
" />
    <glyph glyph-name="eogonek" unicode="&#x119;" horiz-adv-x="521" 
d="M489 185h-344q4 -56 43.5 -85t96.5 -29q83 0 149 52l40 -68q-32 -28 -68 -45q-58 -39 -58 -94q0 -22 16.5 -35t43.5 -13q25 0 49 10v-72q-43 -19 -89 -19q-59 0 -93 26.5t-34 67.5q0 56 41 100q-74 0 -130 30.5t-86.5 85t-30.5 125.5q0 72 29 127.5t82 86t121 30.5
t119.5 -28t79.5 -79t28 -118q0 -26 -5 -56zM381 263q-1 50 -31 80.5t-80 30.5q-49 0 -84 -31t-39 -80h234z" />
    <glyph glyph-name="Ecaron" unicode="&#x11a;" horiz-adv-x="609" 
d="M42 589h454l59 -177l-95 -32l-38 108h-179v-138h170v-100h-170v-149h204l37 100l94 -33l-58 -168h-479v101h85l1 387h-85v101zM300 642l-168 115l33 50l136 -75l128 75l35 -50z" />
    <glyph glyph-name="ecaron" unicode="&#x11b;" horiz-adv-x="521" 
d="M285 -19q-75 0 -131.5 30.5t-87.5 85t-31 125.5q0 72 29 127.5t82 86t121 30.5t119.5 -28t79.5 -79t28 -118q0 -26 -5 -56h-344q4 -56 43.5 -85t96.5 -29q83 0 149 52l40 -68q-87 -74 -189 -74zM350 343.5q-30 30.5 -80 30.5q-49 0 -84 -31t-39 -80h234q-1 50 -31 80.5z
M265 500l-168 115l33 50l136 -75l128 75l35 -50z" />
    <glyph glyph-name="Gcircumflex" unicode="&#x11c;" horiz-adv-x="626" 
d="M460.5 -1q-47.5 -19 -118.5 -19q-88 0 -156 38t-106 109t-38 167q0 95 36.5 166t105 109.5t161.5 38.5q117 0 197 -59l30 -134l-95 -23l-23 96q-44 25 -106 25q-49 0 -91.5 -27t-68 -77t-25.5 -115q0 -67 22.5 -115.5t63 -74t91.5 -25.5q33 0 59.5 7t55.5 21v104h-128v92
h238v-245q-57 -40 -104.5 -59zM347 794l180 -104l-31 -43l-148 59l-153 -59l-28 43z" />
    <glyph glyph-name="gcircumflex" unicode="&#x11d;" horiz-adv-x="574" 
d="M439.5 15q44.5 -36 44.5 -104q0 -76 -64.5 -114t-165.5 -38q-74 0 -134.5 16t-95.5 35l41 89q50 -21 95.5 -32t93.5 -11q63 0 91.5 15t28.5 39q0 22 -17.5 34.5t-63.5 12.5h-157v175q-51 19 -77.5 57t-26.5 93q0 85 58.5 134.5t156.5 49.5q39 0 68 -6t55 -21l151 53
l35 -99l-122 -19q15 -17 22 -40t7 -47q0 -87 -60.5 -129.5t-156.5 -42.5h-20v-64h81q88 0 132.5 -36zM167.5 356q-28.5 -24 -28.5 -68q0 -40 29 -64t80 -24t80 24t29 64q0 44 -28.5 68t-80.5 24t-80.5 -24zM248 675l164 -115l-35 -50l-128 75l-136 -75l-33 50z" />
    <glyph glyph-name="Gbreve" unicode="&#x11e;" horiz-adv-x="626" 
d="M460.5 -1q-47.5 -19 -118.5 -19q-88 0 -156 38t-106 109t-38 167q0 95 36.5 166t105 109.5t161.5 38.5q117 0 197 -59l30 -134l-95 -23l-23 96q-44 25 -106 25q-49 0 -91.5 -27t-68 -77t-25.5 -115q0 -67 22.5 -115.5t63 -74t91.5 -25.5q33 0 59.5 7t55.5 21v104h-128v92
h238v-245q-57 -40 -104.5 -59zM228 693.5q-44 35.5 -54 104.5l78 11q3 -37 27 -56.5t68 -19.5q45 0 70 19.5t27 56.5l78 -11q-10 -69 -54 -104.5t-121 -35.5q-75 0 -119 35.5z" />
    <glyph glyph-name="gbreve" unicode="&#x11f;" horiz-adv-x="574" 
d="M439.5 15q44.5 -36 44.5 -104q0 -76 -64.5 -114t-165.5 -38q-74 0 -134.5 16t-95.5 35l41 89q50 -21 95.5 -32t93.5 -11q63 0 91.5 15t28.5 39q0 22 -17.5 34.5t-63.5 12.5h-157v175q-51 19 -77.5 57t-26.5 93q0 85 58.5 134.5t156.5 49.5q39 0 68 -6t55 -21l151 53
l35 -99l-122 -19q15 -17 22 -40t7 -47q0 -87 -60.5 -129.5t-156.5 -42.5h-20v-64h81q88 0 132.5 -36zM167.5 356q-28.5 -24 -28.5 -68q0 -40 29 -64t80 -24t80 24t29 64q0 44 -28.5 68t-80.5 24t-80.5 -24zM127 551.5q-44 35.5 -54 104.5l78 11q3 -37 27 -56.5t68 -19.5
q45 0 70 19.5t27 56.5l78 -11q-10 -69 -54 -104.5t-121 -35.5q-75 0 -119 35.5z" />
    <glyph glyph-name="Gdotaccent" unicode="&#x120;" horiz-adv-x="626" 
d="M460.5 -1q-47.5 -19 -118.5 -19q-88 0 -156 38t-106 109t-38 167q0 95 36.5 166t105 109.5t161.5 38.5q117 0 197 -59l30 -134l-95 -23l-23 96q-44 25 -106 25q-49 0 -91.5 -27t-68 -77t-25.5 -115q0 -67 22.5 -115.5t63 -74t91.5 -25.5q33 0 59.5 7t55.5 21v104h-128v92
h238v-245q-57 -40 -104.5 -59zM397 787q19 -19 19 -50t-19 -50t-50 -19t-49.5 19t-18.5 50t18.5 50t49.5 19t50 -19z" />
    <glyph glyph-name="gdotaccent" unicode="&#x121;" horiz-adv-x="574" 
d="M439.5 15q44.5 -36 44.5 -104q0 -76 -64.5 -114t-165.5 -38q-74 0 -134.5 16t-95.5 35l41 89q50 -21 95.5 -32t93.5 -11q63 0 91.5 15t28.5 39q0 22 -17.5 34.5t-63.5 12.5h-157v175q-51 19 -77.5 57t-26.5 93q0 85 58.5 134.5t156.5 49.5q39 0 68 -6t55 -21l151 53
l35 -99l-122 -19q15 -17 22 -40t7 -47q0 -87 -60.5 -129.5t-156.5 -42.5h-20v-64h81q88 0 132.5 -36zM167.5 356q-28.5 -24 -28.5 -68q0 -40 29 -64t80 -24t80 24t29 64q0 44 -28.5 68t-80.5 24t-80.5 -24zM296 645q19 -19 19 -50t-19 -50t-50 -19t-49.5 19t-18.5 50
t18.5 50t49.5 19t50 -19z" />
    <glyph glyph-name="Gcommaaccent" unicode="&#x122;" horiz-adv-x="626" 
d="M460.5 -1q-47.5 -19 -118.5 -19q-88 0 -156 38t-106 109t-38 167q0 95 36.5 166t105 109.5t161.5 38.5q117 0 197 -59l30 -134l-95 -23l-23 96q-44 25 -106 25q-49 0 -91.5 -27t-68 -77t-25.5 -115q0 -67 22.5 -115.5t63 -74t91.5 -25.5q33 0 59.5 7t55.5 21v104h-128v92
h238v-245q-57 -40 -104.5 -59zM279 -293q5 7 21.5 31.5t26.5 45.5q-30 6 -45 26t-15 46q0 34 22 55t57 21q32 0 57 -24.5t25 -57.5q0 -50 -31 -92.5t-54 -64t-27 -25.5z" />
    <glyph glyph-name="gcommaaccent" unicode="&#x123;" horiz-adv-x="574" 
d="M439.5 15q44.5 -36 44.5 -104q0 -76 -64.5 -114t-165.5 -38q-74 0 -134.5 16t-95.5 35l41 89q50 -21 95.5 -32t93.5 -11q63 0 91.5 15t28.5 39q0 22 -17.5 34.5t-63.5 12.5h-157v175q-51 19 -77.5 57t-26.5 93q0 85 58.5 134.5t156.5 49.5q39 0 68 -6t55 -21l151 53
l35 -99l-122 -19q15 -17 22 -40t7 -47q0 -87 -60.5 -129.5t-156.5 -42.5h-20v-64h81q88 0 132.5 -36zM167.5 356q-28.5 -24 -28.5 -68q0 -40 29 -64t80 -24t80 24t29 64q0 44 -28.5 68t-80.5 24t-80.5 -24zM315 738q-5 -7 -21.5 -31.5t-26.5 -45.5q30 -6 45 -26t15 -46
q0 -34 -22 -55t-57 -21q-32 0 -57 24.5t-25 57.5q0 50 31 92.5t54 64t27 25.5z" />
    <glyph glyph-name="Hcircumflex" unicode="&#x124;" horiz-adv-x="737" 
d="M42 589l258 -1v-100h-57l-1 -140h252l1 140h-58v101h258v-101h-84l-1 -387h85v-101h-257v101h56v147h-252v-147h56v-101h-257v101h85l1 387h-85v101zM368 794l180 -104l-31 -43l-148 59l-153 -59l-28 43z" />
    <glyph glyph-name="hcircumflex" unicode="&#x125;" horiz-adv-x="638" 
d="M22 91h83v457l-95 32l30 91l179 -61v-182q30 18 68 28t76 10q81 0 124 -47t43 -136v-192h84v-91h-240v91h42v176q0 54 -21 78.5t-67 24.5q-23 0 -53 -7.5t-55 -18.5v-253h41v-91h-239v91zM118 821l180 -104l-31 -43l-148 59l-153 -59l-28 43z" />
    <glyph glyph-name="Hbar" unicode="&#x126;" horiz-adv-x="737" 
d="M695 488h-84v-36h69v-58h-69l-1 -293h85v-101h-257v101h56v147h-252v-147h56v-101h-257v101h85l1 293h-76v58h76v36h-85v101l258 -1v-100h-57v-36h252v36h-58v101h258v-101zM494 348v46h-252v-46h252z" />
    <glyph glyph-name="hbar" unicode="&#x127;" horiz-adv-x="638" 
d="M614 91v-91h-240v91h42v128q0 54 -21 78.5t-67 24.5q-23 0 -53 -7.5t-55 -18.5v-205h41v-91h-239v91h83v371h-89v61h89v25l-95 32l30 91l179 -61v-87h117v-61h-117v-82q30 18 68 28t76 10q81 0 124 -47t43 -136v-144h84z" />
    <glyph glyph-name="Itilde" unicode="&#x128;" horiz-adv-x="389" 
d="M42 589h306v-101h-95v-387h95v-101h-307v101h97v387h-96v101zM27 735q35 27 60.5 37.5t59.5 10.5q20 0 37 -5.5t37 -16.5q18 -9 30.5 -13.5t25.5 -4.5q20 0 35 6t43 24l27 -64q-30 -27 -55 -38.5t-60 -11.5q-15 0 -28.5 5t-33.5 15q-19 10 -33.5 15.5t-30.5 5.5
q-17 0 -31 -4.5t-30.5 -12.5t-23.5 -11z" />
    <glyph glyph-name="itilde" unicode="&#x129;" horiz-adv-x="345" 
d="M40 447h198v-356h83v-91h-281v91h83v266h-83v90zM18 593q30 26 53 37t52 11q15 0 28.5 -5.5t30.5 -15.5t27.5 -14.5t22.5 -4.5q18 0 32.5 6t39.5 24l23 -64q-24 -28 -46.5 -39t-58.5 -11q-13 0 -24 5t-29 15q-19 11 -30 16t-25 5q-13 0 -24 -5t-25 -12.5t-19 -10.5z" />
    <glyph glyph-name="Imacron" unicode="&#x12a;" horiz-adv-x="389" 
d="M42 589h306v-101h-95v-387h95v-101h-307v101h97v387h-96v101zM27 760h334v-76h-334v76z" />
    <glyph glyph-name="imacron" unicode="&#x12b;" horiz-adv-x="345" 
d="M40 447h198v-356h83v-91h-281v91h83v266h-83v90zM33 618h274v-76h-274v76z" />
    <glyph glyph-name="Ibreve" unicode="&#x12c;" horiz-adv-x="389" 
d="M42 589h306v-101h-95v-387h95v-101h-307v101h97v387h-96v101zM75 693.5q-44 35.5 -54 104.5l78 11q3 -37 27 -56.5t68 -19.5q45 0 70 19.5t27 56.5l78 -11q-10 -69 -54 -104.5t-121 -35.5q-75 0 -119 35.5z" />
    <glyph glyph-name="ibreve" unicode="&#x12d;" horiz-adv-x="345" 
d="M40 447h198v-356h83v-91h-281v91h83v266h-83v90zM17 656l77 11q6 -76 76 -76q35 0 55 19.5t22 56.5l77 -11q-8 -69 -47 -104.5t-107 -35.5q-135 0 -153 140z" />
    <glyph glyph-name="Iogonek" unicode="&#x12e;" horiz-adv-x="389" 
d="M373 -147v-72q-43 -19 -89 -19q-59 0 -93 26.5t-34 67.5q0 86 98 144h-214v101h97v387h-96v101h306v-101h-95v-387h95v-101q-45 -23 -64.5 -50t-19.5 -59q0 -22 16.5 -35t43.5 -13q25 0 49 10z" />
    <glyph glyph-name="iogonek" unicode="&#x12f;" horiz-adv-x="345" 
d="M120.5 545q-18.5 19 -18.5 50t18.5 50t49.5 19t50 -19t19 -50t-19 -50t-50 -19t-49.5 19zM200.5 -50q-19.5 -27 -19.5 -59q0 -22 16.5 -35t43.5 -13q25 0 49 10v-72q-43 -19 -89 -19q-59 0 -93 26.5t-34 67.5q0 86 98 144h-132v91h83v266h-83v90h198v-356h83v-91h-56
q-45 -23 -64.5 -50z" />
    <glyph glyph-name="Idotaccent" unicode="&#x130;" horiz-adv-x="389" 
d="M42 589h306v-101h-95v-387h95v-101h-307v101h97v387h-96v101zM244 787q19 -19 19 -50t-19 -50t-50 -19t-49.5 19t-18.5 50t18.5 50t49.5 19t50 -19z" />
    <glyph glyph-name="dotlessi" unicode="&#x131;" horiz-adv-x="345" 
d="M40 447h198v-356h83v-91h-281v91h83v266h-83v90z" />
    <glyph glyph-name="Jcircumflex" unicode="&#x134;" horiz-adv-x="528" 
d="M207 -20q-43 0 -78 11t-76 32l-30 141l99 23l21 -98q30 -13 57 -13q47 0 72 38.5t25 105.5l1 268h-125v101h326v-101h-85v-249q0 -259 -207 -259zM346 794l180 -104l-31 -43l-148 59l-153 -59l-28 43z" />
    <glyph glyph-name="jcircumflex" unicode="&#x135;" horiz-adv-x="281" 
d="M212.5 -139.5q-9.5 -41.5 -51 -71.5t-128.5 -30q-30 0 -75 10l12 89q32 -4 55 -4q39 0 57 14t22 33.5t4 51.5v404h-84v90h198v-482q0 -63 -9.5 -104.5zM159 675l164 -115l-35 -50l-128 75l-136 -75l-33 50z" />
    <glyph glyph-name="Kcommaaccent" unicode="&#x136;" horiz-adv-x="692" 
d="M41 589h257v-101h-57v-146h74l108 146h-50v101h260v-101h-93l-138 -175l155 -212h100v-101h-295v101h70l-103 144h-88v-144h57v-101h-257v101h85v387h-85v101zM264 -293q5 7 21.5 31.5t26.5 45.5q-30 6 -45 26t-15 46q0 34 22 55t57 21q32 0 57 -24.5t25 -57.5
q0 -50 -31 -92.5t-54 -64t-27 -25.5z" />
    <glyph glyph-name="kcommaaccent" unicode="&#x137;" horiz-adv-x="586" 
d="M43 672l179 -61v-344h73l53 90h-51v90h241v-90h-76l-86 -132l90 -134h83v-91h-140l-111 177h-76v-86h34v-91h-232v91h84v457l-95 32zM240 -293q5 7 21.5 31.5t26.5 45.5q-30 6 -45 26t-15 46q0 34 22 55t57 21q32 0 57 -24.5t25 -57.5q0 -50 -31 -92.5t-54 -64t-27 -25.5
z" />
    <glyph glyph-name="kgreenlandic" unicode="&#x138;" horiz-adv-x="615" 
d="M46 447h232v-90h-34v-92h77l62 92h-51v90h241v-90h-76l-96 -134l94 -132h83v-91h-148l-121 175h-65v-84h34v-91h-232v91h84v266h-84v90z" />
    <glyph glyph-name="Lacute" unicode="&#x139;" horiz-adv-x="562" 
d="M41 589h314v-101h-103l-1 -387h159l36 100l96 -33l-59 -168h-442v101h96v387h-96v101zM367 792l26 -95l-253 -39l-16 45z" />
    <glyph glyph-name="lacute" unicode="&#x13a;" horiz-adv-x="335" 
d="M29 0v91h84v460l-96 29l28 92l182 -57v-524h84v-91h-282zM309 836l26 -95l-253 -39l-16 45z" />
    <glyph glyph-name="Lcommaaccent" unicode="&#x13b;" horiz-adv-x="562" 
d="M41 589h314v-101h-103l-1 -387h159l36 100l96 -33l-59 -168h-442v101h96v387h-96v101zM206 -293q5 7 21.5 31.5t26.5 45.5q-30 6 -45 26t-15 46q0 34 22 55t57 21q32 0 57 -24.5t25 -57.5q0 -50 -31 -92.5t-54 -64t-27 -25.5z" />
    <glyph glyph-name="lcommaaccent" unicode="&#x13c;" horiz-adv-x="335" 
d="M29 0v91h84v460l-96 29l28 92l182 -57v-524h84v-91h-282zM95 -293q5 7 21.5 31.5t26.5 45.5q-30 6 -45 26t-15 46q0 34 22 55t57 21q32 0 57 -24.5t25 -57.5q0 -50 -31 -92.5t-54 -64t-27 -25.5z" />
    <glyph glyph-name="Lcaron" unicode="&#x13d;" horiz-adv-x="562" 
d="M41 589h314v-101h-103l-1 -387h159l36 100l96 -33l-59 -168h-442v101h96v387h-96v101zM445 630l94 -21l-72 -232l-57 11z" />
    <glyph glyph-name="lcaron" unicode="&#x13e;" horiz-adv-x="335" 
d="M25 764l129 -63l131 63l38 -51l-169 -113l-171 113zM29 0v91h84v375l-96 29l28 92l182 -57v-439h84v-91h-282z" />
    <glyph glyph-name="Ldot" unicode="&#x13f;" horiz-adv-x="600" 
d="M41 589h314v-101h-103l-1 -387h159l36 100l96 -33l-59 -168h-442v101h96v387h-96v101zM430.5 389.5q23.5 -23.5 23.5 -56.5t-23.5 -56.5t-55.5 -23.5q-34 0 -57.5 23.5t-23.5 56.5t23.5 56.5t57.5 23.5q32 0 55.5 -23.5z" />
    <glyph glyph-name="ldot" unicode="&#x140;" horiz-adv-x="439" 
d="M29 0v91h84v460l-96 29l28 92l182 -57v-524h84v-91h-282zM395.5 348.5q23.5 -23.5 23.5 -56.5t-23.5 -56.5t-55.5 -23.5q-34 0 -57.5 23.5t-23.5 56.5t23.5 56.5t57.5 23.5q32 0 55.5 -23.5z" />
    <glyph glyph-name="Lslash" unicode="&#x141;" horiz-adv-x="562" 
d="M446 201l96 -33l-59 -168h-442v101h96v94l-63 -33v86l63 33v207h-96v101h314v-101h-103v-147l193 102v-86l-194 -102v-154h159z" />
    <glyph glyph-name="lslash" unicode="&#x142;" horiz-adv-x="335" 
d="M227 91h84v-91h-282v91h84v149l-72 -63v93l72 63v218l-96 29l28 92l182 -57v-182l78 69v-93l-78 -69v-249z" />
    <glyph glyph-name="Nacute" unicode="&#x143;" horiz-adv-x="740" 
d="M42 589h259l213 -423v322h-77v101h275v-101h-94v-488h-134l-253 489l1 -388h84v-101h-275v101h87v387h-86v101zM530 792l26 -95l-253 -39l-16 45z" />
    <glyph glyph-name="nacute" unicode="&#x144;" horiz-adv-x="661" 
d="M45 91h85v243l-96 33l29 91l139 -48q42 28 82 42t92 14q88 0 132 -51t44 -136v-188h83v-91h-238v91h42v173q0 103 -90 103q-28 0 -56 -9.5t-50 -24.5v-242h41v-91h-239v91zM420 749l77 -57l-158 -183l-49 33z" />
    <glyph glyph-name="Ncommaaccent" unicode="&#x145;" horiz-adv-x="740" 
d="M42 589h259l213 -423v322h-77v101h275v-101h-94v-488h-134l-253 489l1 -388h84v-101h-275v101h87v387h-86v101zM306 -293q5 7 21.5 31.5t26.5 45.5q-30 6 -45 26t-15 46q0 34 22 55t57 21q32 0 57 -24.5t25 -57.5q0 -50 -31 -92.5t-54 -64t-27 -25.5z" />
    <glyph glyph-name="ncommaaccent" unicode="&#x146;" horiz-adv-x="661" 
d="M45 91h85v243l-96 33l29 91l139 -48q42 28 82 42t92 14q88 0 132 -51t44 -136v-188h83v-91h-238v91h42v173q0 103 -90 103q-28 0 -56 -9.5t-50 -24.5v-242h41v-91h-239v91zM265 -293q5 7 21.5 31.5t26.5 45.5q-30 6 -45 26t-15 46q0 34 22 55t57 21q32 0 57 -24.5
t25 -57.5q0 -50 -31 -92.5t-54 -64t-27 -25.5z" />
    <glyph glyph-name="Ncaron" unicode="&#x147;" horiz-adv-x="740" 
d="M42 589h259l213 -423v322h-77v101h275v-101h-94v-488h-134l-253 489l1 -388h84v-101h-275v101h87v387h-86v101zM376 642l-168 115l33 50l136 -75l128 75l35 -50z" />
    <glyph glyph-name="ncaron" unicode="&#x148;" horiz-adv-x="661" 
d="M45 91h85v243l-96 33l29 91l139 -48q42 28 82 42t92 14q88 0 132 -51t44 -136v-188h83v-91h-238v91h42v173q0 103 -90 103q-28 0 -56 -9.5t-50 -24.5v-242h41v-91h-239v91zM335 500l-168 115l33 50l136 -75l128 75l35 -50z" />
    <glyph glyph-name="Eng" unicode="&#x14a;" horiz-adv-x="740" 
d="M349 -234q-36 7 -74 23l28 82q49 -20 100 -20q46 0 74 25.5t35 74.5l-281 538l1 -388h84v-101h-275v101h87v387h-86v101h259l213 -423v322h-77v101h275v-101h-94v-495q-1 -113 -51.5 -173.5t-139.5 -60.5q-42 0 -78 7z" />
    <glyph glyph-name="eng" unicode="&#x14b;" horiz-adv-x="602" 
d="M506 417q46 -49 46 -138v-280q0 -116 -50 -178t-140 -62q-42 0 -78.5 7t-74.5 23l29 82q49 -20 99 -20q49 0 75.5 33t26.5 95v285q0 103 -90 103q-25 0 -54 -9.5t-52 -24.5v-242h41v-91h-239v91h85v243l-96 33l29 91l139 -48q44 30 84 43t90 13q84 0 130 -49z" />
    <glyph glyph-name="Omacron" unicode="&#x14c;" horiz-adv-x="668" 
d="M486 572q66 -37 103 -108t37 -169t-36.5 -169t-102.5 -108.5t-153 -37.5q-86 0 -152 37.5t-102.5 108.5t-36.5 169t36.5 169t102 108t151.5 37q87 0 153 -37zM206.5 456q-43.5 -55 -43.5 -161t43.5 -161.5t127.5 -55.5t128 55.5t44 161.5t-43.5 161t-128.5 55
q-84 0 -127.5 -55zM166 760h334v-76h-334v76z" />
    <glyph glyph-name="omacron" unicode="&#x14d;" horiz-adv-x="555" 
d="M450.5 401.5q62.5 -64.5 62.5 -178.5t-62.5 -178t-174.5 -64q-110 0 -171.5 64t-61.5 178t61.5 178.5t171.5 64.5q112 0 174.5 -64.5zM186 334.5q-31 -38.5 -31 -111.5q0 -74 31 -112.5t91 -38.5q61 0 92 38.5t31 112.5q0 73 -31.5 111.5t-91.5 38.5t-91 -38.5zM110 618
h334v-76h-334v76z" />
    <glyph glyph-name="Obreve" unicode="&#x14e;" horiz-adv-x="668" 
d="M486 572q66 -37 103 -108t37 -169t-36.5 -169t-102.5 -108.5t-153 -37.5q-86 0 -152 37.5t-102.5 108.5t-36.5 169t36.5 169t102 108t151.5 37q87 0 153 -37zM206.5 456q-43.5 -55 -43.5 -161t43.5 -161.5t127.5 -55.5t128 55.5t44 161.5t-43.5 161t-128.5 55
q-84 0 -127.5 -55zM214 693.5q-44 35.5 -54 104.5l78 11q3 -37 27 -56.5t68 -19.5q45 0 70 19.5t27 56.5l78 -11q-10 -69 -54 -104.5t-121 -35.5q-75 0 -119 35.5z" />
    <glyph glyph-name="obreve" unicode="&#x14f;" horiz-adv-x="555" 
d="M450.5 401.5q62.5 -64.5 62.5 -178.5t-62.5 -178t-174.5 -64q-110 0 -171.5 64t-61.5 178t61.5 178.5t171.5 64.5q112 0 174.5 -64.5zM186 334.5q-31 -38.5 -31 -111.5q0 -74 31 -112.5t91 -38.5q61 0 92 38.5t31 112.5q0 73 -31.5 111.5t-91.5 38.5t-91 -38.5z
M158 551.5q-44 35.5 -54 104.5l78 11q3 -37 27 -56.5t68 -19.5q45 0 70 19.5t27 56.5l78 -11q-10 -69 -54 -104.5t-121 -35.5q-75 0 -119 35.5z" />
    <glyph glyph-name="Ohungarumlaut" unicode="&#x150;" horiz-adv-x="668" 
d="M486 572q66 -37 103 -108t37 -169t-36.5 -169t-102.5 -108.5t-153 -37.5q-86 0 -152 37.5t-102.5 108.5t-36.5 169t36.5 169t102 108t151.5 37q87 0 153 -37zM206.5 456q-43.5 -55 -43.5 -161t43.5 -161.5t127.5 -55.5t128 55.5t44 161.5t-43.5 161t-128.5 55
q-84 0 -127.5 -55zM385 833l58 -68l-168 -112l-30 32zM556 791l37 -81l-195 -54l-21 38z" />
    <glyph glyph-name="ohungarumlaut" unicode="&#x151;" horiz-adv-x="555" 
d="M450.5 401.5q62.5 -64.5 62.5 -178.5t-62.5 -178t-174.5 -64q-110 0 -171.5 64t-61.5 178t61.5 178.5t171.5 64.5q112 0 174.5 -64.5zM186 334.5q-31 -38.5 -31 -111.5q0 -74 31 -112.5t91 -38.5q61 0 92 38.5t31 112.5q0 73 -31.5 111.5t-91.5 38.5t-91 -38.5zM277 749
l77 -57l-158 -183l-49 33zM474 728l63 -69l-189 -150l-42 42z" />
    <glyph glyph-name="OE" unicode="&#x152;" horiz-adv-x="902" 
d="M123 74.5q-80 74.5 -80 224.5q0 148 78.5 219t219.5 71h447l60 -177l-96 -33l-37 109h-179v-139h169v-99h-170v-149h205l36 100l95 -33l-58 -168h-474q-136 0 -216 74.5zM207.5 447.5q-44.5 -41.5 -44.5 -148.5q0 -199 183 -199l74 1v388h-77q-91 0 -135.5 -41.5z" />
    <glyph glyph-name="oe" unicode="&#x153;" horiz-adv-x="775" 
d="M659 6q-48 -26 -130 -26q-65 0 -119 37q-55 -37 -135 -37q-107 0 -171.5 63.5t-64.5 176.5q0 74 30 127.5t83.5 82t122.5 28.5q42 0 78.5 -10.5t61.5 -27.5q56 38 118 38q95 0 148.5 -54t53.5 -164q0 -35 -6 -59l-313 -1q7 -53 35.5 -81.5t78.5 -28.5q85 0 148 47l50 -64
q-21 -21 -69 -47zM185.5 326.5q-31.5 -38.5 -31.5 -106.5q0 -71 31.5 -110.5t90.5 -39.5q35 0 71 16q-32 51 -32 132q0 79 34 133q-30 14 -73 14q-59 0 -90.5 -38.5zM607.5 340q-25.5 25 -77.5 25q-46 0 -74 -24t-38 -70l214 1q1 43 -24.5 68z" />
    <glyph glyph-name="Racute" unicode="&#x154;" horiz-adv-x="628" 
d="M599 101v-101h-171l-109 202h-78v-101h52v-101h-252v101h84v387h-84v101h265q130 0 181.5 -48.5t51.5 -144.5q0 -142 -110 -180l70 -115h100zM301 302q65 0 91.5 20t26.5 73t-28.5 73t-89.5 20h-59v-186h59zM432 792l26 -95l-253 -39l-16 45z" />
    <glyph glyph-name="racute" unicode="&#x155;" horiz-adv-x="472" 
d="M369 464q37 0 71 -13l17 -124l-94 -20l-10 54q-67 -4 -110 -36l-1 -234h98v-91h-295v91h84v244l-96 32l30 91l148 -49q84 55 158 55zM314 749l77 -57l-158 -183l-49 33z" />
    <glyph glyph-name="Rcommaaccent" unicode="&#x156;" horiz-adv-x="628" 
d="M599 101v-101h-171l-109 202h-78v-101h52v-101h-252v101h84v387h-84v101h265q130 0 181.5 -48.5t51.5 -144.5q0 -142 -110 -180l70 -115h100zM301 302q65 0 91.5 20t26.5 73t-28.5 73t-89.5 20h-59v-186h59zM245 -293q5 7 21.5 31.5t26.5 45.5q-30 6 -45 26t-15 46
q0 34 22 55t57 21q32 0 57 -24.5t25 -57.5q0 -50 -31 -92.5t-54 -64t-27 -25.5z" />
    <glyph glyph-name="rcommaaccent" unicode="&#x157;" horiz-adv-x="472" 
d="M369 464q37 0 71 -13l17 -124l-94 -20l-10 54q-67 -4 -110 -36l-1 -234h98v-91h-295v91h84v244l-96 32l30 91l148 -49q84 55 158 55zM111 -293q5 7 21.5 31.5t26.5 45.5q-30 6 -45 26t-15 46q0 34 22 55t57 21q32 0 57 -24.5t25 -57.5q0 -50 -31 -92.5t-54 -64t-27 -25.5
z" />
    <glyph glyph-name="Rcaron" unicode="&#x158;" horiz-adv-x="628" 
d="M599 101v-101h-171l-109 202h-78v-101h52v-101h-252v101h84v387h-84v101h265q130 0 181.5 -48.5t51.5 -144.5q0 -142 -110 -180l70 -115h100zM301 302q65 0 91.5 20t26.5 73t-28.5 73t-89.5 20h-59v-186h59zM278 642l-168 115l33 50l136 -75l128 75l35 -50z" />
    <glyph glyph-name="rcaron" unicode="&#x159;" horiz-adv-x="472" 
d="M369 464q37 0 71 -13l17 -124l-94 -20l-10 54q-67 -4 -110 -36l-1 -234h98v-91h-295v91h84v244l-96 32l30 91l148 -49q84 55 158 55zM229 500l-168 115l33 50l136 -75l128 75l35 -50z" />
    <glyph glyph-name="Sacute" unicode="&#x15a;" horiz-adv-x="559" 
d="M62 18l-18 137l94 11l11 -73q58 -20 125 -20q61 0 100.5 22t39.5 66q0 34 -22 55.5t-79 31.5l-72 12q-91 16 -138.5 60t-47.5 115q0 83 65.5 128.5t168.5 45.5q98 0 187 -37l19 -147l-101 -11l-13 90q-45 15 -96 15q-58 0 -92 -20.5t-34 -55.5t24.5 -54.5t80.5 -29.5
l75 -12q93 -14 136 -57t43 -114q0 -105 -70 -150.5t-166 -45.5q-123 0 -220 38zM435 792l26 -95l-253 -39l-16 45z" />
    <glyph glyph-name="sacute" unicode="&#x15b;" horiz-adv-x="465" 
d="M236 383q-38 0 -64 -14t-26 -39t16.5 -38t61.5 -19l60 -9q77 -10 112.5 -42.5t35.5 -90.5q0 -73 -56 -111.5t-140 -38.5q-106 0 -182 45l-18 104l95 17l11 -55q41 -20 88 -20q44 0 72.5 14.5t28.5 41.5q0 22 -16 34.5t-59 17.5l-57 9q-74 11 -114 45.5t-40 89.5
q0 65 52.5 103.5t136.5 38.5q94 0 161 -45l18 -96l-85 -16l-16 61q-39 13 -76 13zM316 749l77 -57l-158 -183l-49 33z" />
    <glyph glyph-name="Scircumflex" unicode="&#x15c;" horiz-adv-x="559" 
d="M62 18l-18 137l94 11l11 -73q58 -20 125 -20q61 0 100.5 22t39.5 66q0 34 -22 55.5t-79 31.5l-72 12q-91 16 -138.5 60t-47.5 115q0 83 65.5 128.5t168.5 45.5q98 0 187 -37l19 -147l-101 -11l-13 90q-45 15 -96 15q-58 0 -92 -20.5t-34 -55.5t24.5 -54.5t80.5 -29.5
l75 -12q93 -14 136 -57t43 -114q0 -105 -70 -150.5t-166 -45.5q-123 0 -220 38zM279 794l180 -104l-31 -43l-148 59l-153 -59l-28 43z" />
    <glyph glyph-name="scircumflex" unicode="&#x15d;" horiz-adv-x="465" 
d="M236 383q-38 0 -64 -14t-26 -39t16.5 -38t61.5 -19l60 -9q77 -10 112.5 -42.5t35.5 -90.5q0 -73 -56 -111.5t-140 -38.5q-106 0 -182 45l-18 104l95 17l11 -55q41 -20 88 -20q44 0 72.5 14.5t28.5 41.5q0 22 -16 34.5t-59 17.5l-57 9q-74 11 -114 45.5t-40 89.5
q0 65 52.5 103.5t136.5 38.5q94 0 161 -45l18 -96l-85 -16l-16 61q-39 13 -76 13zM231 675l164 -115l-35 -50l-128 75l-136 -75l-33 50z" />
    <glyph glyph-name="Scedilla" unicode="&#x15e;" horiz-adv-x="559" 
d="M446 -70q31 -21 31 -67q0 -48 -36 -73t-92 -25q-39 0 -68 13t-57 32l32 48q46 -29 92 -29q22 0 32.5 10.5t10.5 28.5q0 32 -53 32h-58v80q-121 0 -218 38l-18 137l94 11l11 -73q58 -20 125 -20q61 0 100.5 22t39.5 66q0 34 -22 55.5t-79 31.5l-72 12q-91 16 -138.5 60
t-47.5 115q0 83 65.5 128.5t168.5 45.5q98 0 187 -37l19 -147l-101 -11l-13 90q-45 15 -96 15q-58 0 -92 -20.5t-34 -55.5t24.5 -54.5t80.5 -29.5l75 -12q93 -14 136 -57t43 -114q0 -84 -47 -130t-120 -60v-37q64 2 95 -19z" />
    <glyph glyph-name="scedilla" unicode="&#x15f;" horiz-adv-x="465" 
d="M396 -70q31 -21 31 -67q0 -48 -36 -73t-92 -25q-39 0 -68 13t-57 32l32 48q46 -29 92 -29q22 0 32.5 10.5t10.5 28.5q0 32 -53 32h-58v81q-101 1 -176 45l-18 104l95 17l11 -55q41 -20 88 -20q44 0 72.5 14.5t28.5 41.5q0 22 -16 34.5t-59 17.5l-57 9q-74 11 -114 45.5
t-40 89.5q0 65 52.5 103.5t136.5 38.5q94 0 161 -45l18 -96l-85 -16l-16 61q-39 13 -76 13q-38 0 -64 -14t-26 -39t16.5 -38t61.5 -19l60 -9q77 -10 112.5 -42.5t35.5 -90.5q0 -57 -36 -93.5t-95 -49.5v-39q64 2 95 -19z" />
    <glyph glyph-name="Scaron" unicode="&#x160;" horiz-adv-x="559" 
d="M62 18l-18 137l94 11l11 -73q58 -20 125 -20q61 0 100.5 22t39.5 66q0 34 -22 55.5t-79 31.5l-72 12q-91 16 -138.5 60t-47.5 115q0 83 65.5 128.5t168.5 45.5q98 0 187 -37l19 -147l-101 -11l-13 90q-45 15 -96 15q-58 0 -92 -20.5t-34 -55.5t24.5 -54.5t80.5 -29.5
l75 -12q93 -14 136 -57t43 -114q0 -105 -70 -150.5t-166 -45.5q-123 0 -220 38zM281 642l-168 115l33 50l136 -75l128 75l35 -50z" />
    <glyph glyph-name="scaron" unicode="&#x161;" horiz-adv-x="465" 
d="M236 383q-38 0 -64 -14t-26 -39t16.5 -38t61.5 -19l60 -9q77 -10 112.5 -42.5t35.5 -90.5q0 -73 -56 -111.5t-140 -38.5q-106 0 -182 45l-18 104l95 17l11 -55q41 -20 88 -20q44 0 72.5 14.5t28.5 41.5q0 22 -16 34.5t-59 17.5l-57 9q-74 11 -114 45.5t-40 89.5
q0 65 52.5 103.5t136.5 38.5q94 0 161 -45l18 -96l-85 -16l-16 61q-39 13 -76 13zM231 500l-168 115l33 50l136 -75l128 75l35 -50z" />
    <glyph glyph-name="uni0162" unicode="&#x162;" horiz-adv-x="600" 
d="M30 589h533v-200h-103v99h-105l-1 -387h85v-101h-287v101h85l1 387h-105v-99h-103v200zM298 -222q-29 13 -57 32l32 48q46 -29 92 -29q22 0 32.5 10.5t10.5 28.5q0 32 -53 32h-58v100h71v-51q64 2 95 -19t31 -67q0 -48 -36 -73t-92 -25q-39 0 -68 13z" />
    <glyph glyph-name="uni0163" unicode="&#x163;" horiz-adv-x="401" 
d="M362 -70q31 -21 31 -67q0 -48 -36 -73t-92 -25q-39 0 -68 13t-57 32l32 48q46 -29 92 -29q22 0 32.5 10.5t10.5 28.5q0 32 -53 32h-58v95q-86 37 -86 167v195h-83v90h83v86l110 33v-119h121v-90h-121v-163q0 -121 67 -121q27 0 67 20l21 -84q-58 -28 -103 -28h-5v-32
q64 2 95 -19z" />
    <glyph glyph-name="Tcaron" unicode="&#x164;" horiz-adv-x="600" 
d="M30 589h533v-200h-103v99h-105l-1 -387h85v-101h-287v101h85l1 387h-105v-99h-103v200zM298 642l-168 115l33 50l136 -75l128 75l35 -50z" />
    <glyph glyph-name="tcaron" unicode="&#x165;" horiz-adv-x="401" 
d="M152.5 25.5q-42.5 44.5 -42.5 136.5v195h-83v90h83v86l110 33v-119h121v-90h-121v-163q0 -121 67 -121q27 0 67 20l21 -84q-58 -28 -103 -28q-77 0 -119.5 44.5zM177 571l-168 115l33 50l136 -75l128 75l35 -50z" />
    <glyph glyph-name="Tbar" unicode="&#x166;" horiz-adv-x="600" 
d="M30 589h533v-200h-103v99h-105v-155h105v-76h-106v-156h85v-101h-287v101h85v156h-104v76h105v155h-105v-99h-103v200z" />
    <glyph glyph-name="tbar" unicode="&#x167;" horiz-adv-x="401" 
d="M375 9q-58 -28 -103 -28q-77 0 -119.5 44.5t-42.5 136.5v74h-92v76h92v45h-83v90h83v86l110 33v-119h121v-90h-121v-45h125v-76h-125v-42q0 -121 67 -121q27 0 67 20z" />
    <glyph glyph-name="Utilde" unicode="&#x168;" horiz-adv-x="688" 
d="M516 40q-58 -60 -172 -60q-115 0 -173 60t-58 173v275h-85v101h259v-101h-58v-295q0 -61 29 -89t86 -28q114 0 114 127v285h-57v101h259v-101h-86v-275q0 -113 -58 -173zM176 735q35 27 60.5 37.5t59.5 10.5q20 0 37 -5.5t37 -16.5q18 -9 30.5 -13.5t25.5 -4.5q20 0 35 6
t43 24l27 -64q-30 -27 -55 -38.5t-60 -11.5q-15 0 -28.5 5t-33.5 15q-19 10 -33.5 15.5t-30.5 5.5q-17 0 -31 -4.5t-30.5 -12.5t-23.5 -11z" />
    <glyph glyph-name="utilde" unicode="&#x169;" horiz-adv-x="636" 
d="M374.5 -7.5q-39.5 -11.5 -74.5 -11.5q-102 0 -149.5 45t-47.5 140v191h-79v90h193v-264q0 -54 20.5 -78t66.5 -24q23 0 53.5 7.5t55.5 19.5v249h-79v90h193v-340l88 -30l-31 -98l-136 45q-34 -20 -73.5 -31.5zM126 593q35 27 60.5 37.5t59.5 10.5q20 0 37 -5.5t37 -16.5
q18 -9 30.5 -13.5t25.5 -4.5q20 0 35 6t43 24l27 -64q-30 -27 -55 -38.5t-60 -11.5q-15 0 -28.5 5t-33.5 15q-19 10 -33.5 15.5t-30.5 5.5q-17 0 -31 -4.5t-30.5 -12.5t-23.5 -11z" />
    <glyph glyph-name="Umacron" unicode="&#x16a;" horiz-adv-x="688" 
d="M516 40q-58 -60 -172 -60q-115 0 -173 60t-58 173v275h-85v101h259v-101h-58v-295q0 -61 29 -89t86 -28q114 0 114 127v285h-57v101h259v-101h-86v-275q0 -113 -58 -173zM176 760h334v-76h-334v76z" />
    <glyph glyph-name="umacron" unicode="&#x16b;" horiz-adv-x="636" 
d="M374.5 -7.5q-39.5 -11.5 -74.5 -11.5q-102 0 -149.5 45t-47.5 140v191h-79v90h193v-264q0 -54 20.5 -78t66.5 -24q23 0 53.5 7.5t55.5 19.5v249h-79v90h193v-340l88 -30l-31 -98l-136 45q-34 -20 -73.5 -31.5zM126 618h334v-76h-334v76z" />
    <glyph glyph-name="Ubreve" unicode="&#x16c;" horiz-adv-x="688" 
d="M516 40q-58 -60 -172 -60q-115 0 -173 60t-58 173v275h-85v101h259v-101h-58v-295q0 -61 29 -89t86 -28q114 0 114 127v285h-57v101h259v-101h-86v-275q0 -113 -58 -173zM224 693.5q-44 35.5 -54 104.5l78 11q3 -37 27 -56.5t68 -19.5q45 0 70 19.5t27 56.5l78 -11
q-10 -69 -54 -104.5t-121 -35.5q-75 0 -119 35.5z" />
    <glyph glyph-name="ubreve" unicode="&#x16d;" horiz-adv-x="636" 
d="M374.5 -7.5q-39.5 -11.5 -74.5 -11.5q-102 0 -149.5 45t-47.5 140v191h-79v90h193v-264q0 -54 20.5 -78t66.5 -24q23 0 53.5 7.5t55.5 19.5v249h-79v90h193v-340l88 -30l-31 -98l-136 45q-34 -20 -73.5 -31.5zM174 551.5q-44 35.5 -54 104.5l78 11q3 -37 27 -56.5
t68 -19.5q45 0 70 19.5t27 56.5l78 -11q-10 -69 -54 -104.5t-121 -35.5q-75 0 -119 35.5z" />
    <glyph glyph-name="Uring" unicode="&#x16e;" horiz-adv-x="688" 
d="M516 40q-58 -60 -172 -60q-115 0 -173 60t-58 173v275h-85v101h259v-101h-58v-295q0 -61 29 -89t86 -28q114 0 114 127v285h-57v101h259v-101h-86v-275q0 -113 -58 -173zM418.5 840.5q28.5 -28.5 28.5 -75.5t-28.5 -75.5t-75.5 -28.5t-75.5 28.5t-28.5 75.5t28.5 75.5
t75.5 28.5t75.5 -28.5zM307 800.5q-14 -13.5 -14 -35.5t14 -35.5t36 -13.5t35.5 13.5t13.5 35.5t-13.5 35.5t-35.5 13.5t-36 -13.5z" />
    <glyph glyph-name="uring" unicode="&#x16f;" horiz-adv-x="636" 
d="M374.5 -7.5q-39.5 -11.5 -74.5 -11.5q-102 0 -149.5 45t-47.5 140v191h-79v90h193v-264q0 -54 20.5 -78t66.5 -24q23 0 53.5 7.5t55.5 19.5v249h-79v90h193v-340l88 -30l-31 -98l-136 45q-34 -20 -73.5 -31.5zM368.5 698.5q28.5 -28.5 28.5 -75.5t-28.5 -75.5
t-75.5 -28.5t-75.5 28.5t-28.5 75.5t28.5 75.5t75.5 28.5t75.5 -28.5zM257 658.5q-14 -13.5 -14 -35.5t14 -35.5t36 -13.5t35.5 13.5t13.5 35.5t-13.5 35.5t-35.5 13.5t-36 -13.5z" />
    <glyph glyph-name="Uhungarumlaut" unicode="&#x170;" horiz-adv-x="688" 
d="M516 40q-58 -60 -172 -60q-115 0 -173 60t-58 173v275h-85v101h259v-101h-58v-295q0 -61 29 -89t86 -28q114 0 114 127v285h-57v101h259v-101h-86v-275q0 -113 -58 -173zM395 833l58 -68l-168 -112l-30 32zM566 791l37 -81l-195 -54l-21 38z" />
    <glyph glyph-name="uhungarumlaut" unicode="&#x171;" horiz-adv-x="636" 
d="M374.5 -7.5q-39.5 -11.5 -74.5 -11.5q-102 0 -149.5 45t-47.5 140v191h-79v90h193v-264q0 -54 20.5 -78t66.5 -24q23 0 53.5 7.5t55.5 19.5v249h-79v90h193v-340l88 -30l-31 -98l-136 45q-34 -20 -73.5 -31.5zM293 749l77 -57l-158 -183l-49 33zM490 728l63 -69
l-189 -150l-42 42z" />
    <glyph glyph-name="Uogonek" unicode="&#x172;" horiz-adv-x="688" 
d="M660 589v-101h-86v-275q0 -84 -32 -139t-95 -78q-60 -38 -60 -95q0 -22 16.5 -35t43.5 -13q25 0 49 10v-72q-43 -19 -89 -19q-59 0 -93 26.5t-34 67.5q0 67 56 114q-111 2 -167 62t-56 171v275h-85v101h259v-101h-58v-295q0 -61 29 -89t86 -28q114 0 114 127v285h-57v101
h259z" />
    <glyph glyph-name="uogonek" unicode="&#x173;" horiz-adv-x="636" 
d="M516.5 -165q16.5 -13 43.5 -13q25 0 49 10v-72q-43 -19 -89 -19q-59 0 -93 26.5t-34 67.5q0 50 32.5 90.5t101.5 72.5l-79 26q-34 -20 -73.5 -31.5t-74.5 -11.5q-102 0 -149.5 45t-47.5 140v191h-79v90h193v-264q0 -54 20.5 -78t66.5 -24q23 0 53.5 7.5t55.5 19.5v249
h-79v90h193v-340l88 -30l-31 -98q-45 -23 -64.5 -50t-19.5 -59q0 -22 16.5 -35z" />
    <glyph glyph-name="Wcircumflex" unicode="&#x174;" horiz-adv-x="933" 
d="M5 589h271v-101h-55l60 -236l31 -132l25 130l72 265h141l70 -263l25 -132l28 132l61 236h-62v101h256v-101h-72l-155 -488h-134l-89 393l-32 -125l-68 -268h-133l-154 488h-86v101zM478 794l180 -104l-31 -43l-148 59l-153 -59l-28 43z" />
    <glyph glyph-name="wcircumflex" unicode="&#x175;" horiz-adv-x="791" 
d="M188 0l-118 357h-65v90h241v-90h-57l41 -154l29 -107l27 107l55 179h114l56 -181l27 -106l27 105l47 157h-61v90h235v-90h-64l-129 -357h-120l-76 261l-84 -261h-125zM394 675l164 -115l-35 -50l-128 75l-136 -75l-33 50z" />
    <glyph glyph-name="Ycircumflex" unicode="&#x176;" horiz-adv-x="663" 
d="M6 589h272v-101h-65l126 -170l125 170h-66v101h259v-101h-72l-193 -250v-138h94v-100h-303v100h95v137l-194 251h-78v101zM330 794l180 -104l-31 -43l-148 59l-153 -59l-28 43z" />
    <glyph glyph-name="ycircumflex" unicode="&#x177;" horiz-adv-x="597" 
d="M592 447v-90h-77l-184 -433q-37 -88 -80 -127t-101 -39q-43 0 -88 19l21 88q20 -7 34 -10.5t30 -3.5q24 0 40.5 11.5t31 38t35.5 79.5l-176 377h-73v90h244v-90h-55l108 -256l102 256h-52l5 90h235zM304 675l164 -115l-35 -50l-128 75l-136 -75l-33 50z" />
    <glyph glyph-name="Ydieresis" unicode="&#x178;" horiz-adv-x="663" 
d="M6 589h272v-101h-65l126 -170l125 170h-66v101h259v-101h-72l-193 -250v-138h94v-100h-303v100h95v137l-194 251h-78v101zM282.5 779.5q20.5 -20.5 20.5 -48.5t-20.5 -48t-47.5 -20q-28 0 -48.5 20t-20.5 48t20.5 48.5t48.5 20.5q27 0 47.5 -20.5zM473.5 779.5
q20.5 -20.5 20.5 -48.5t-20.5 -48t-47.5 -20q-28 0 -48.5 20t-20.5 48t20.5 48.5t48.5 20.5q27 0 47.5 -20.5z" />
    <glyph glyph-name="Zacute" unicode="&#x179;" horiz-adv-x="567" 
d="M62 589h446v-73l-309 -415h205l35 96l96 -32l-56 -165h-432v80l304 408h-201l-19 -88l-99 14zM441 792l26 -95l-253 -39l-16 45z" />
    <glyph glyph-name="zacute" unicode="&#x17a;" horiz-adv-x="497" 
d="M50 0v77l249 280h-153l-12 -58l-100 20l25 128h376v-74l-252 -282h169l12 62l101 -19l-27 -134h-388zM334 749l77 -57l-158 -183l-49 33z" />
    <glyph glyph-name="Zdotaccent" unicode="&#x17b;" horiz-adv-x="567" 
d="M62 589h446v-73l-309 -415h205l35 96l96 -32l-56 -165h-432v80l304 408h-201l-19 -88l-99 14zM335 787q19 -19 19 -50t-19 -50t-50 -19t-49.5 19t-18.5 50t18.5 50t49.5 19t50 -19z" />
    <glyph glyph-name="zdotaccent" unicode="&#x17c;" horiz-adv-x="497" 
d="M50 0v77l249 280h-153l-12 -58l-100 20l25 128h376v-74l-252 -282h169l12 62l101 -19l-27 -134h-388zM297 645q19 -19 19 -50t-19 -50t-50 -19t-49.5 19t-18.5 50t18.5 50t49.5 19t50 -19z" />
    <glyph glyph-name="Zcaron" unicode="&#x17d;" horiz-adv-x="567" 
d="M62 589h446v-73l-309 -415h205l35 96l96 -32l-56 -165h-432v80l304 408h-201l-19 -88l-99 14zM287 642l-168 115l33 50l136 -75l128 75l35 -50z" />
    <glyph glyph-name="zcaron" unicode="&#x17e;" horiz-adv-x="497" 
d="M50 0v77l249 280h-153l-12 -58l-100 20l25 128h376v-74l-252 -282h169l12 62l101 -19l-27 -134h-388zM249 500l-168 115l33 50l136 -75l128 75l35 -50z" />
    <glyph glyph-name="uni018F" unicode="&#x18f;" horiz-adv-x="621" 
d="M429 571.5q68 -37.5 105.5 -108t37.5 -167.5q0 -98 -35 -169.5t-98.5 -109t-145.5 -37.5q-77 0 -137 35t-94 101.5t-34 158.5v47h429q-7 94 -55 142t-132 48q-60 0 -107 -19l-18 -84l-98 22l24 127q82 51 200 51q90 0 158 -37.5zM409 120q46 42 46 117h-315
q0 -80 41 -119.5t110 -39.5q72 0 118 42z" />
    <glyph glyph-name="florin" unicode="&#x192;" horiz-adv-x="574" 
d="M36 36l51 86q38 -30 76 -30q36 0 60 24.5t31 72.5l24 168h-84l13 90h84l5 43q14 90 73 142t150 52q36 0 67 -13t49 -37l-49 -73q-19 15 -36.5 20.5t-42.5 5.5q-38 0 -64 -26t-32 -67l-6 -47h116l-13 -90h-116l-25 -179q-13 -93 -65 -138.5t-140 -45.5q-81 0 -126 42z" />
    <glyph glyph-name="Ohorn" unicode="&#x1a0;" horiz-adv-x="668" 
d="M604.5 428.5q21.5 -59.5 21.5 -133.5q0 -98 -36.5 -169t-102.5 -108.5t-153 -37.5q-86 0 -152 37.5t-102.5 108.5t-36.5 169t36.5 169t102 108t151.5 37q61 0 115 -20q59 6 59 79h91q0 -98 -55 -139q40 -41 61.5 -100.5zM462 133.5q44 55.5 44 161.5t-43.5 161t-128.5 55
q-84 0 -127.5 -55t-43.5 -161t43.5 -161.5t127.5 -55.5t128 55.5z" />
    <glyph glyph-name="ohorn" unicode="&#x1a1;" horiz-adv-x="555" 
d="M466 383q47 -61 47 -160q0 -114 -62.5 -178t-174.5 -64q-110 0 -171.5 64t-61.5 178t61.5 178.5t171.5 64.5q59 0 104 -18q27 4 41 23.5t14 54.5h91q0 -102 -60 -143zM369 110.5q31 38.5 31 112.5q0 73 -31.5 111.5t-91.5 38.5t-91 -38.5t-31 -111.5q0 -74 31 -112.5
t91 -38.5q61 0 92 38.5z" />
    <glyph glyph-name="Uhorn" unicode="&#x1af;" horiz-adv-x="734" 
d="M653 553q-27 -44 -79 -58v-282q0 -113 -58 -173t-172 -60q-115 0 -173 60t-58 173v275h-85v101h259v-101h-58v-295q0 -61 29 -89t86 -28q114 0 114 127v285h-57v101h118q34 0 51.5 20t17.5 59h92q0 -71 -27 -115z" />
    <glyph glyph-name="uhorn" unicode="&#x1b0;" horiz-adv-x="661" 
d="M527 107l88 -30l-31 -98l-136 45q-34 -20 -73.5 -31.5t-74.5 -11.5q-102 0 -149.5 45t-47.5 140v191h-79v90h193v-264q0 -54 20.5 -78t66.5 -24q23 0 53.5 7.5t55.5 19.5v249h-79v90h140q34 0 51.5 20t17.5 59h91q0 -68 -27 -109t-80 -54v-256z" />
    <glyph glyph-name="Gcaron" unicode="&#x1e6;" horiz-adv-x="626" 
d="M460.5 -1q-47.5 -19 -118.5 -19q-88 0 -156 38t-106 109t-38 167q0 95 36.5 166t105 109.5t161.5 38.5q117 0 197 -59l30 -134l-95 -23l-23 96q-44 25 -106 25q-49 0 -91.5 -27t-68 -77t-25.5 -115q0 -67 22.5 -115.5t63 -74t91.5 -25.5q33 0 59.5 7t55.5 21v104h-128v92
h238v-245q-57 -40 -104.5 -59zM349 642l-168 115l33 50l136 -75l128 75l35 -50z" />
    <glyph glyph-name="gcaron" unicode="&#x1e7;" horiz-adv-x="574" 
d="M439.5 15q44.5 -36 44.5 -104q0 -76 -64.5 -114t-165.5 -38q-74 0 -134.5 16t-95.5 35l41 89q50 -21 95.5 -32t93.5 -11q63 0 91.5 15t28.5 39q0 22 -17.5 34.5t-63.5 12.5h-157v175q-51 19 -77.5 57t-26.5 93q0 85 58.5 134.5t156.5 49.5q39 0 68 -6t55 -21l151 53
l35 -99l-122 -19q15 -17 22 -40t7 -47q0 -87 -60.5 -129.5t-156.5 -42.5h-20v-64h81q88 0 132.5 -36zM167.5 356q-28.5 -24 -28.5 -68q0 -40 29 -64t80 -24t80 24t29 64q0 44 -28.5 68t-80.5 24t-80.5 -24zM248 500l-168 115l33 50l136 -75l128 75l35 -50z" />
    <glyph glyph-name="uni01EA" unicode="&#x1ea;" horiz-adv-x="668" 
d="M386 -99q0 -22 16.5 -35t43.5 -13q25 0 49 10v-72q-43 -19 -89 -19q-59 0 -93 26.5t-34 67.5q0 66 55 114q-86 0 -152 37.5t-102.5 108.5t-36.5 169t36.5 169t102 108t151.5 37q87 0 153 -37t103 -108t37 -169q0 -109 -45 -184.5t-124 -107.5q-71 -41 -71 -102z
M206.5 133.5q43.5 -55.5 127.5 -55.5t128 55.5t44 161.5t-43.5 161t-128.5 55q-84 0 -127.5 -55t-43.5 -161t43.5 -161.5z" />
    <glyph glyph-name="uni01EB" unicode="&#x1eb;" horiz-adv-x="555" 
d="M488 99.5q-25 -52.5 -72 -82.5l-2 -1l-15 -9q-67 -40 -67 -99q0 -22 16.5 -35t43.5 -13q25 0 49 10v-72q-43 -19 -89 -19q-59 0 -93 26.5t-34 67.5q0 62 49 108q-109 1 -170 65t-61 177q0 114 61.5 178.5t171.5 64.5q112 0 174.5 -64.5t62.5 -178.5q0 -71 -25 -123.5z
M186 110.5q31 -38.5 91 -38.5q61 0 92 38.5t31 112.5q0 73 -31.5 111.5t-91.5 38.5t-91 -38.5t-31 -111.5q0 -74 31 -112.5z" />
    <glyph glyph-name="Aringacute" unicode="&#x1fa;" horiz-adv-x="695" 
d="M673 101v-101h-259v101h53l-31 86h-199l-31 -86h58v-101h-258v101h99l151 387h-84v101h106q-32 29 -32 79q0 47 28.5 75.5t75.5 28.5t75.5 -28.5t28.5 -75.5q0 -31 -13.5 -55t-36.5 -36l179 -476h90zM314 703.5q-14 -13.5 -14 -35.5t14 -35.5t36 -13.5t35.5 13.5
t13.5 35.5t-13.5 35.5t-35.5 13.5t-36 -13.5zM266 266h143l-70 209zM505 941l26 -95l-253 -39l-16 45z" />
    <glyph glyph-name="aringacute" unicode="&#x1fb;" horiz-adv-x="551" 
d="M227 -19q-93 0 -141.5 36.5t-48.5 106.5q0 68 46.5 102.5t136.5 34.5h112q0 58 -24 88t-66 30t-80 -12l-9 -49l-94 13l18 106q81 29 168 29q98 0 149.5 -52t51.5 -151v-166l84 -27l-31 -94l-129 44q-72 -39 -143 -39zM171 170.5q-18 -16.5 -18 -47.5q0 -57 78 -57
q55 0 101 29v91l-109 1q-34 0 -52 -16.5zM322.5 698.5q28.5 -28.5 28.5 -75.5t-28.5 -75.5t-75.5 -28.5t-75.5 28.5t-28.5 75.5t28.5 75.5t75.5 28.5t75.5 -28.5zM211 658.5q-14 -13.5 -14 -35.5t14 -35.5t36 -13.5t35.5 13.5t13.5 35.5t-13.5 35.5t-35.5 13.5t-36 -13.5z
M334 1028l77 -57l-158 -183l-49 33z" />
    <glyph glyph-name="AEacute" unicode="&#x1fc;" horiz-adv-x="939" 
d="M28 0v101h95l239 387h-94v101h557l60 -177l-96 -32l-37 108h-172v-141h162v-99h-162v-147h196l37 100l95 -33l-58 -168h-472v101h86v71h-186l-43 -71h53v-101h-260zM336 272h128v216zM685 792l26 -95l-253 -39l-16 45z" />
    <glyph glyph-name="aeacute" unicode="&#x1fd;" horiz-adv-x="801" 
d="M154 450q37 8 81 8q67 0 108.5 -24t56.5 -65q32 43 76 66t93 23q55 0 98 -28t66.5 -77t23.5 -110q0 -23 -5 -55l-311 -1q7 -55 40.5 -86t85.5 -31q84 0 147 47l49 -64q-2 -5 -26.5 -23t-68.5 -34t-102 -16q-52 0 -92.5 13t-72.5 43q-31 -21 -81.5 -38.5t-91.5 -17.5
q-89 0 -140 38t-51 104q0 75 51 110.5t133 35.5h119q0 46 -20 68.5t-81 22.5q-25 0 -77 -8l-8 -50l-96 18l19 107q40 16 77 24zM636 340.5q-24 24.5 -74 24.5q-47 0 -78 -24.5t-41 -69.5l218 1q-1 44 -25 68.5zM153 123q0 -26 22.5 -39t56.5 -13q30 0 67 11.5t58 24.5
q-15 39 -18 77h-115q-71 0 -71 -61zM494 749l77 -57l-158 -183l-49 33z" />
    <glyph glyph-name="Oslashacute" unicode="&#x1fe;" horiz-adv-x="668" 
d="M598 444.5q28 -64.5 28 -149.5q0 -98 -36.5 -169t-102.5 -108.5t-153 -37.5q-42 0 -80 9l-27 -58h-96l42 92q-62 39 -96 108.5t-34 163.5q0 98 36.5 169t102 108t151.5 37q58 0 109 -17l27 59h97l-47 -101q51 -41 79 -105.5zM206.5 456q-43.5 -55 -43.5 -161
q0 -125 60 -179l176 385q-27 10 -65 10q-84 0 -127.5 -55zM462 133.5q44 55.5 44 161.5q0 101 -39 155l-169 -369q17 -3 36 -3q84 0 128 55.5zM489 792l26 -95l-253 -39l-16 45z" />
    <glyph glyph-name="oslashacute" unicode="&#x1ff;" horiz-adv-x="555" 
d="M483.5 356q29.5 -55 29.5 -133q0 -114 -62.5 -178t-174.5 -64q-37 0 -72 8l-28 -65h-61l37 85q-53 29 -81 83.5t-28 130.5q0 114 61.5 178.5t171.5 64.5q36 0 70 -8l24 55h61l-32 -74q55 -28 84.5 -83zM193 103l115 267q-15 3 -31 3q-60 0 -91 -38.5t-31 -111.5
q0 -80 38 -120zM369 110.5q31 38.5 31 112.5q0 84 -42 122l-116 -269q15 -4 35 -4q61 0 92 38.5zM364 749l77 -57l-158 -183l-49 33z" />
    <glyph glyph-name="uni0200" unicode="&#x200;" horiz-adv-x="680" 
d="M6 0v101h99l151 387h-84v101h227l184 -488h90v-101h-259v101h53l-31 86h-199l-31 -86h58v-101h-258zM266 266h143l-70 209zM280 833l141 -148l-31 -31l-167 111zM110 791l179 -97l-21 -38l-195 54z" />
    <glyph glyph-name="uni0201" unicode="&#x201;" horiz-adv-x="551" 
d="M227 -19q-93 0 -141.5 36.5t-48.5 106.5q0 68 46.5 102.5t136.5 34.5h112q0 58 -24 88t-66 30t-80 -12l-9 -49l-94 13l18 106q81 29 168 29q98 0 149.5 -52t51.5 -151v-166l84 -27l-31 -94l-129 44q-72 -39 -143 -39zM171 170.5q-18 -16.5 -18 -47.5q0 -57 78 -57
q55 0 101 29v91l-109 1q-34 0 -52 -16.5zM239 749l129 -207l-48 -33l-159 183zM42 728l167 -177l-41 -42l-190 150z" />
    <glyph glyph-name="uni0202" unicode="&#x202;" horiz-adv-x="680" 
d="M6 0v101h99l151 387h-84v101h227l184 -488h90v-101h-259v101h53l-31 86h-199l-31 -86h58v-101h-258zM266 266h143l-70 209zM451 783.5q44 -35.5 54 -104.5l-78 -11q-2 37 -27 56.5t-70 19.5q-44 0 -68 -19.5t-27 -56.5l-78 11q10 69 54 104.5t119 35.5q77 0 121 -35.5z
" />
    <glyph glyph-name="uni0203" unicode="&#x203;" horiz-adv-x="551" 
d="M227 -19q-93 0 -141.5 36.5t-48.5 106.5q0 68 46.5 102.5t136.5 34.5h112q0 58 -24 88t-66 30t-80 -12l-9 -49l-94 13l18 106q81 29 168 29q98 0 149.5 -52t51.5 -151v-166l84 -27l-31 -94l-129 44q-72 -39 -143 -39zM171 170.5q-18 -16.5 -18 -47.5q0 -57 78 -57
q55 0 101 29v91l-109 1q-34 0 -52 -16.5zM368 641.5q44 -35.5 54 -104.5l-78 -11q-2 37 -27 56.5t-70 19.5q-44 0 -68 -19.5t-27 -56.5l-78 11q10 69 54 104.5t119 35.5q77 0 121 -35.5z" />
    <glyph glyph-name="uni0204" unicode="&#x204;" horiz-adv-x="609" 
d="M42 589h454l59 -177l-95 -32l-38 108h-179v-138h170v-100h-170v-149h204l37 100l94 -33l-58 -168h-479v101h85l1 387h-85v101zM290 891l129 -207l-48 -33l-159 183zM93 870l167 -177l-41 -42l-190 150z" />
    <glyph glyph-name="uni0205" unicode="&#x205;" horiz-adv-x="521" 
d="M285 -19q-75 0 -131.5 30.5t-87.5 85t-31 125.5q0 72 29 127.5t82 86t121 30.5t119.5 -28t79.5 -79t28 -118q0 -26 -5 -56h-344q4 -56 43.5 -85t96.5 -29q83 0 149 52l40 -68q-87 -74 -189 -74zM350 343.5q-30 30.5 -80 30.5q-49 0 -84 -31t-39 -80h234q-1 50 -31 80.5z
M255 749l129 -207l-48 -33l-159 183zM58 728l167 -177l-41 -42l-190 150z" />
    <glyph glyph-name="uni0206" unicode="&#x206;" horiz-adv-x="609" 
d="M42 589h454l59 -177l-95 -32l-38 108h-179v-138h170v-100h-170v-149h204l37 100l94 -33l-58 -168h-479v101h85l1 387h-85v101zM419 783.5q44 -35.5 54 -104.5l-78 -11q-2 37 -27 56.5t-70 19.5q-44 0 -68 -19.5t-27 -56.5l-78 11q10 69 54 104.5t119 35.5q77 0 121 -35.5
z" />
    <glyph glyph-name="uni0207" unicode="&#x207;" horiz-adv-x="521" 
d="M285 -19q-75 0 -131.5 30.5t-87.5 85t-31 125.5q0 72 29 127.5t82 86t121 30.5t119.5 -28t79.5 -79t28 -118q0 -26 -5 -56h-344q4 -56 43.5 -85t96.5 -29q83 0 149 52l40 -68q-87 -74 -189 -74zM350 343.5q-30 30.5 -80 30.5q-49 0 -84 -31t-39 -80h234q-1 50 -31 80.5z
M384 641.5q44 -35.5 54 -104.5l-78 -11q-2 37 -27 56.5t-70 19.5q-44 0 -68 -19.5t-27 -56.5l-78 11q10 69 54 104.5t119 35.5q77 0 121 -35.5z" />
    <glyph glyph-name="uni0208" unicode="&#x208;" horiz-adv-x="389" 
d="M42 589h306v-101h-95v-387h95v-101h-307v101h97v387h-96v101zM186 891l129 -207l-48 -33l-159 183zM-11 870l167 -177l-41 -42l-190 150z" />
    <glyph glyph-name="uni0209" unicode="&#x209;" horiz-adv-x="345" 
d="M40 447h198v-356h83v-91h-281v91h83v266h-83v90zM162 749l129 -207l-48 -33l-159 183zM-35 728l167 -177l-41 -42l-190 150z" />
    <glyph glyph-name="uni020A" unicode="&#x20a;" horiz-adv-x="389" 
d="M42 589h306v-101h-95v-387h95v-101h-307v101h97v387h-96v101zM315 783.5q44 -35.5 54 -104.5l-78 -11q-2 37 -27 56.5t-70 19.5q-44 0 -68 -19.5t-27 -56.5l-78 11q10 69 54 104.5t119 35.5q77 0 121 -35.5z" />
    <glyph glyph-name="uni020B" unicode="&#x20b;" horiz-adv-x="345" 
d="M40 447h198v-356h83v-91h-281v91h83v266h-83v90zM276 641.5q38 -35.5 44 -104.5l-70 -11q-1 76 -80 76q-37 0 -57 -19t-21 -57l-70 11q6 69 44 104.5t104 35.5q68 0 106 -35.5z" />
    <glyph glyph-name="uni020C" unicode="&#x20c;" horiz-adv-x="668" 
d="M486 572q66 -37 103 -108t37 -169t-36.5 -169t-102.5 -108.5t-153 -37.5q-86 0 -152 37.5t-102.5 108.5t-36.5 169t36.5 169t102 108t151.5 37q87 0 153 -37zM206.5 456q-43.5 -55 -43.5 -161t43.5 -161.5t127.5 -55.5t128 55.5t44 161.5t-43.5 161t-128.5 55
q-84 0 -127.5 -55zM325 891l129 -207l-48 -33l-159 183zM128 870l167 -177l-41 -42l-190 150z" />
    <glyph glyph-name="uni020D" unicode="&#x20d;" horiz-adv-x="555" 
d="M450.5 401.5q62.5 -64.5 62.5 -178.5t-62.5 -178t-174.5 -64q-110 0 -171.5 64t-61.5 178t61.5 178.5t171.5 64.5q112 0 174.5 -64.5zM186 334.5q-31 -38.5 -31 -111.5q0 -74 31 -112.5t91 -38.5q61 0 92 38.5t31 112.5q0 73 -31.5 111.5t-91.5 38.5t-91 -38.5zM269 749
l129 -207l-48 -33l-159 183zM72 728l167 -177l-41 -42l-190 150z" />
    <glyph glyph-name="uni020E" unicode="&#x20e;" horiz-adv-x="668" 
d="M486 572q66 -37 103 -108t37 -169t-36.5 -169t-102.5 -108.5t-153 -37.5q-86 0 -152 37.5t-102.5 108.5t-36.5 169t36.5 169t102 108t151.5 37q87 0 153 -37zM206.5 456q-43.5 -55 -43.5 -161t43.5 -161.5t127.5 -55.5t128 55.5t44 161.5t-43.5 161t-128.5 55
q-84 0 -127.5 -55zM454 783.5q44 -35.5 54 -104.5l-78 -11q-2 37 -27 56.5t-70 19.5q-44 0 -68 -19.5t-27 -56.5l-78 11q10 69 54 104.5t119 35.5q77 0 121 -35.5z" />
    <glyph glyph-name="uni020F" unicode="&#x20f;" horiz-adv-x="555" 
d="M450.5 401.5q62.5 -64.5 62.5 -178.5t-62.5 -178t-174.5 -64q-110 0 -171.5 64t-61.5 178t61.5 178.5t171.5 64.5q112 0 174.5 -64.5zM186 334.5q-31 -38.5 -31 -111.5q0 -74 31 -112.5t91 -38.5q61 0 92 38.5t31 112.5q0 73 -31.5 111.5t-91.5 38.5t-91 -38.5z
M398 641.5q44 -35.5 54 -104.5l-78 -11q-2 37 -27 56.5t-70 19.5q-44 0 -68 -19.5t-27 -56.5l-78 11q10 69 54 104.5t119 35.5q77 0 121 -35.5z" />
    <glyph glyph-name="uni0210" unicode="&#x210;" horiz-adv-x="628" 
d="M599 101v-101h-171l-109 202h-78v-101h52v-101h-252v101h84v387h-84v101h265q130 0 181.5 -48.5t51.5 -144.5q0 -142 -110 -180l70 -115h100zM301 302q65 0 91.5 20t26.5 73t-28.5 73t-89.5 20h-59v-186h59zM268 891l129 -207l-48 -33l-159 183zM71 870l167 -177l-41 -42
l-190 150z" />
    <glyph glyph-name="uni0211" unicode="&#x211;" horiz-adv-x="472" 
d="M369 464q37 0 71 -13l17 -124l-94 -20l-10 54q-67 -4 -110 -36l-1 -234h98v-91h-295v91h84v244l-96 32l30 91l148 -49q84 55 158 55zM219 749l129 -207l-48 -33l-159 183zM22 728l167 -177l-41 -42l-190 150z" />
    <glyph glyph-name="uni0212" unicode="&#x212;" horiz-adv-x="628" 
d="M599 101v-101h-171l-109 202h-78v-101h52v-101h-252v101h84v387h-84v101h265q130 0 181.5 -48.5t51.5 -144.5q0 -142 -110 -180l70 -115h100zM301 302q65 0 91.5 20t26.5 73t-28.5 73t-89.5 20h-59v-186h59zM397 783.5q44 -35.5 54 -104.5l-78 -11q-2 37 -27 56.5
t-70 19.5q-44 0 -68 -19.5t-27 -56.5l-78 11q10 69 54 104.5t119 35.5q77 0 121 -35.5z" />
    <glyph glyph-name="uni0213" unicode="&#x213;" horiz-adv-x="472" 
d="M369 464q37 0 71 -13l17 -124l-94 -20l-10 54q-67 -4 -110 -36l-1 -234h98v-91h-295v91h84v244l-96 32l30 91l148 -49q84 55 158 55zM348 641.5q44 -35.5 54 -104.5l-78 -11q-2 37 -27 56.5t-70 19.5q-44 0 -68 -19.5t-27 -56.5l-78 11q10 69 54 104.5t119 35.5
q77 0 121 -35.5z" />
    <glyph glyph-name="uni0214" unicode="&#x214;" horiz-adv-x="688" 
d="M516 40q-58 -60 -172 -60q-115 0 -173 60t-58 173v275h-85v101h259v-101h-58v-295q0 -61 29 -89t86 -28q114 0 114 127v285h-57v101h259v-101h-86v-275q0 -113 -58 -173zM335 891l129 -207l-48 -33l-159 183zM138 870l167 -177l-41 -42l-190 150z" />
    <glyph glyph-name="uni0215" unicode="&#x215;" horiz-adv-x="636" 
d="M374.5 -7.5q-39.5 -11.5 -74.5 -11.5q-102 0 -149.5 45t-47.5 140v191h-79v90h193v-264q0 -54 20.5 -78t66.5 -24q23 0 53.5 7.5t55.5 19.5v249h-79v90h193v-340l88 -30l-31 -98l-136 45q-34 -20 -73.5 -31.5zM285 749l129 -207l-48 -33l-159 183zM88 728l167 -177
l-41 -42l-190 150z" />
    <glyph glyph-name="uni0216" unicode="&#x216;" horiz-adv-x="688" 
d="M516 40q-58 -60 -172 -60q-115 0 -173 60t-58 173v275h-85v101h259v-101h-58v-295q0 -61 29 -89t86 -28q114 0 114 127v285h-57v101h259v-101h-86v-275q0 -113 -58 -173zM464 783.5q44 -35.5 54 -104.5l-78 -11q-2 37 -27 56.5t-70 19.5q-44 0 -68 -19.5t-27 -56.5
l-78 11q10 69 54 104.5t119 35.5q77 0 121 -35.5z" />
    <glyph glyph-name="uni0217" unicode="&#x217;" horiz-adv-x="636" 
d="M374.5 -7.5q-39.5 -11.5 -74.5 -11.5q-102 0 -149.5 45t-47.5 140v191h-79v90h193v-264q0 -54 20.5 -78t66.5 -24q23 0 53.5 7.5t55.5 19.5v249h-79v90h193v-340l88 -30l-31 -98l-136 45q-34 -20 -73.5 -31.5zM414 641.5q44 -35.5 54 -104.5l-78 -11q-2 37 -27 56.5
t-70 19.5q-44 0 -68 -19.5t-27 -56.5l-78 11q10 69 54 104.5t119 35.5q77 0 121 -35.5z" />
    <glyph glyph-name="Scommaaccent" unicode="&#x218;" horiz-adv-x="559" 
d="M62 18l-18 137l94 11l11 -73q58 -20 125 -20q61 0 100.5 22t39.5 66q0 34 -22 55.5t-79 31.5l-72 12q-91 16 -138.5 60t-47.5 115q0 83 65.5 128.5t168.5 45.5q98 0 187 -37l19 -147l-101 -11l-13 90q-45 15 -96 15q-58 0 -92 -20.5t-34 -55.5t24.5 -54.5t80.5 -29.5
l75 -12q93 -14 136 -57t43 -114q0 -105 -70 -150.5t-166 -45.5q-123 0 -220 38zM211 -293q5 7 21.5 31.5t26.5 45.5q-30 6 -45 26t-15 46q0 34 22 55t57 21q32 0 57 -24.5t25 -57.5q0 -50 -31 -92.5t-54 -64t-27 -25.5z" />
    <glyph glyph-name="scommaaccent" unicode="&#x219;" horiz-adv-x="465" 
d="M236 383q-38 0 -64 -14t-26 -39t16.5 -38t61.5 -19l60 -9q77 -10 112.5 -42.5t35.5 -90.5q0 -73 -56 -111.5t-140 -38.5q-106 0 -182 45l-18 104l95 17l11 -55q41 -20 88 -20q44 0 72.5 14.5t28.5 41.5q0 22 -16 34.5t-59 17.5l-57 9q-74 11 -114 45.5t-40 89.5
q0 65 52.5 103.5t136.5 38.5q94 0 161 -45l18 -96l-85 -16l-16 61q-39 13 -76 13zM161 -293q5 7 21.5 31.5t26.5 45.5q-30 6 -45 26t-15 46q0 34 22 55t57 21q32 0 57 -24.5t25 -57.5q0 -50 -31 -92.5t-54 -64t-27 -25.5z" />
    <glyph glyph-name="uni021A" unicode="&#x21a;" horiz-adv-x="600" 
d="M30 589h533v-200h-103v99h-105l-1 -387h85v-101h-287v101h85l1 387h-105v-99h-103v200zM228 -293q5 7 21.5 31.5t26.5 45.5q-30 6 -45 26t-15 46q0 34 22 55t57 21q32 0 57 -24.5t25 -57.5q0 -50 -31 -92.5t-54 -64t-27 -25.5z" />
    <glyph glyph-name="uni021B" unicode="&#x21b;" horiz-adv-x="401" 
d="M152.5 25.5q-42.5 44.5 -42.5 136.5v195h-83v90h83v86l110 33v-119h121v-90h-121v-163q0 -121 67 -121q27 0 67 20l21 -84q-58 -28 -103 -28q-77 0 -119.5 44.5zM127 -293q5 7 21.5 31.5t26.5 45.5q-30 6 -45 26t-15 46q0 34 22 55t57 21q32 0 57 -24.5t25 -57.5
q0 -50 -31 -92.5t-54 -64t-27 -25.5z" />
    <glyph glyph-name="uni022A" unicode="&#x22a;" horiz-adv-x="668" 
d="M486 572q66 -37 103 -108t37 -169t-36.5 -169t-102.5 -108.5t-153 -37.5q-86 0 -152 37.5t-102.5 108.5t-36.5 169t36.5 169t102 108t151.5 37q87 0 153 -37zM206.5 456q-43.5 -55 -43.5 -161t43.5 -161.5t127.5 -55.5t128 55.5t44 161.5t-43.5 161t-128.5 55
q-84 0 -127.5 -55zM285.5 779.5q20.5 -20.5 20.5 -48.5t-20.5 -48t-47.5 -20q-28 0 -48.5 20t-20.5 48t20.5 48.5t48.5 20.5q27 0 47.5 -20.5zM476.5 779.5q20.5 -20.5 20.5 -48.5t-20.5 -48t-47.5 -20q-28 0 -48.5 20t-20.5 48t20.5 48.5t48.5 20.5q27 0 47.5 -20.5z
M166 918h334v-76h-334v76z" />
    <glyph glyph-name="uni022B" unicode="&#x22b;" horiz-adv-x="555" 
d="M450.5 401.5q62.5 -64.5 62.5 -178.5t-62.5 -178t-174.5 -64q-110 0 -171.5 64t-61.5 178t61.5 178.5t171.5 64.5q112 0 174.5 -64.5zM186 334.5q-31 -38.5 -31 -111.5q0 -74 31 -112.5t91 -38.5q61 0 92 38.5t31 112.5q0 73 -31.5 111.5t-91.5 38.5t-91 -38.5z
M229.5 637.5q20.5 -20.5 20.5 -48.5t-20.5 -48t-47.5 -20q-28 0 -48.5 20t-20.5 48t20.5 48.5t48.5 20.5q27 0 47.5 -20.5zM420.5 637.5q20.5 -20.5 20.5 -48.5t-20.5 -48t-47.5 -20q-28 0 -48.5 20t-20.5 48t20.5 48.5t48.5 20.5q27 0 47.5 -20.5zM110 776h334v-76h-334v76
z" />
    <glyph glyph-name="uni022C" unicode="&#x22c;" horiz-adv-x="668" 
d="M486 572q66 -37 103 -108t37 -169t-36.5 -169t-102.5 -108.5t-153 -37.5q-86 0 -152 37.5t-102.5 108.5t-36.5 169t36.5 169t102 108t151.5 37q87 0 153 -37zM206.5 456q-43.5 -55 -43.5 -161t43.5 -161.5t127.5 -55.5t128 55.5t44 161.5t-43.5 161t-128.5 55
q-84 0 -127.5 -55zM166 735q35 27 60.5 37.5t59.5 10.5q20 0 37 -5.5t37 -16.5q18 -9 30.5 -13.5t25.5 -4.5q20 0 35 6t43 24l27 -64q-30 -27 -55 -38.5t-60 -11.5q-15 0 -28.5 5t-33.5 15q-19 10 -33.5 15.5t-30.5 5.5q-17 0 -31 -4.5t-30.5 -12.5t-23.5 -11zM150 924h334
v-76h-334v76z" />
    <glyph glyph-name="uni022D" unicode="&#x22d;" horiz-adv-x="555" 
d="M450.5 401.5q62.5 -64.5 62.5 -178.5t-62.5 -178t-174.5 -64q-110 0 -171.5 64t-61.5 178t61.5 178.5t171.5 64.5q112 0 174.5 -64.5zM186 334.5q-31 -38.5 -31 -111.5q0 -74 31 -112.5t91 -38.5q61 0 92 38.5t31 112.5q0 73 -31.5 111.5t-91.5 38.5t-91 -38.5zM110 593
q35 27 60.5 37.5t59.5 10.5q20 0 37 -5.5t37 -16.5q18 -9 30.5 -13.5t25.5 -4.5q20 0 35 6t43 24l27 -64q-30 -27 -55 -38.5t-60 -11.5q-15 0 -28.5 5t-33.5 15q-19 10 -33.5 15.5t-30.5 5.5q-17 0 -31 -4.5t-30.5 -12.5t-23.5 -11zM94 782h334v-76h-334v76z" />
    <glyph glyph-name="uni0230" unicode="&#x230;" horiz-adv-x="668" 
d="M486 572q66 -37 103 -108t37 -169t-36.5 -169t-102.5 -108.5t-153 -37.5q-86 0 -152 37.5t-102.5 108.5t-36.5 169t36.5 169t102 108t151.5 37q87 0 153 -37zM206.5 456q-43.5 -55 -43.5 -161t43.5 -161.5t127.5 -55.5t128 55.5t44 161.5t-43.5 161t-128.5 55
q-84 0 -127.5 -55zM383 787q19 -19 19 -50t-19 -50t-50 -19t-49.5 19t-18.5 50t18.5 50t49.5 19t50 -19zM170 915h334v-76h-334v76z" />
    <glyph glyph-name="uni0231" unicode="&#x231;" horiz-adv-x="555" 
d="M450.5 401.5q62.5 -64.5 62.5 -178.5t-62.5 -178t-174.5 -64q-110 0 -171.5 64t-61.5 178t61.5 178.5t171.5 64.5q112 0 174.5 -64.5zM186 334.5q-31 -38.5 -31 -111.5q0 -74 31 -112.5t91 -38.5q61 0 92 38.5t31 112.5q0 73 -31.5 111.5t-91.5 38.5t-91 -38.5zM327 645
q19 -19 19 -50t-19 -50t-50 -19t-49.5 19t-18.5 50t18.5 50t49.5 19t50 -19zM109 776h334v-76h-334v76z" />
    <glyph glyph-name="uni0232" unicode="&#x232;" horiz-adv-x="663" 
d="M6 589h272v-101h-65l126 -170l125 170h-66v101h259v-101h-72l-193 -250v-138h94v-100h-303v100h95v137l-194 251h-78v101zM163 760h334v-76h-334v76z" />
    <glyph glyph-name="uni0233" unicode="&#x233;" horiz-adv-x="597" 
d="M592 447v-90h-77l-184 -433q-37 -88 -80 -127t-101 -39q-43 0 -88 19l21 88q20 -7 34 -10.5t30 -3.5q24 0 40.5 11.5t31 38t35.5 79.5l-176 377h-73v90h244v-90h-55l108 -256l102 256h-52l5 90h235zM135 618h334v-76h-334v76z" />
    <glyph glyph-name="uni0237" unicode="&#x237;" horiz-adv-x="281" 
d="M212.5 -139.5q-9.5 -41.5 -51 -71.5t-128.5 -30q-30 0 -75 10l12 89q32 -4 55 -4q39 0 57 14t22 33.5t4 51.5v404h-84v90h198v-482q0 -63 -9.5 -104.5z" />
    <glyph glyph-name="uni0259" unicode="&#x259;" horiz-adv-x="521" 
d="M236 466q75 0 131.5 -30.5t87.5 -85t31 -125.5q0 -72 -29 -127.5t-82 -86t-121 -30.5t-119.5 28t-79.5 79t-28 118q0 26 5 56h344q-4 56 -43.5 85t-96.5 29q-83 0 -149 -52l-40 68q87 74 189 74zM171 103.5q30 -30.5 80 -30.5q49 0 84 31t39 80h-234q1 -50 31 -80.5z" />
    <glyph glyph-name="uni02B9" unicode="&#x2b9;" horiz-adv-x="224" 
d="M65 611h109l-83 -219h-73z" />
    <glyph glyph-name="uni02BA" unicode="&#x2ba;" horiz-adv-x="374" 
d="M65 611h109l-83 -219h-73zM215 611h109l-83 -219h-73z" />
    <glyph glyph-name="uni02BB" unicode="&#x2bb;" horiz-adv-x="234" 
d="M189 675q-5 -7 -21.5 -31.5t-26.5 -45.5q30 -6 45 -26t15 -46q0 -34 -22 -55t-57 -21q-32 0 -57 24.5t-25 57.5q0 50 31 92.5t54 64t27 25.5z" />
    <glyph glyph-name="uni02BC" unicode="&#x2bc;" horiz-adv-x="263" 
d="M40.5 423q16.5 24 25.5 45q-30 7 -45 27t-15 45q0 34 22.5 55.5t57.5 21.5q32 0 56.5 -25t24.5 -58q1 -49 -30.5 -92t-54.5 -64.5t-27 -25.5l-37 40q6 7 22.5 31z" />
    <glyph glyph-name="uni02BE" unicode="&#x2be;" horiz-adv-x="214" 
d="M130.5 655.5q33.5 -30.5 33.5 -85.5t-33.5 -86t-80.5 -31v54q22 0 37.5 16.5t15.5 46.5t-15.5 46t-37.5 16v54q47 0 80.5 -30.5z" />
    <glyph glyph-name="uni02BF" unicode="&#x2bf;" horiz-adv-x="214" 
d="M83.5 483.5q-33.5 30.5 -33.5 85.5t33.5 86t80.5 31v-54q-22 0 -37.5 -16.5t-15.5 -46.5t15.5 -46t37.5 -16v-54q-47 0 -80.5 30.5z" />
    <glyph glyph-name="circumflex" unicode="&#x2c6;" horiz-adv-x="412" 
d="M207 675l164 -115l-35 -50l-128 75l-136 -75l-33 50z" />
    <glyph glyph-name="caron" unicode="&#x2c7;" horiz-adv-x="416" 
d="M207 500l-168 115l33 50l136 -75l128 75l35 -50z" />
    <glyph glyph-name="uni02C8" unicode="&#x2c8;" horiz-adv-x="307" 
d="M100 672h107v-220h-107v220z" />
    <glyph glyph-name="uni02C9" unicode="&#x2c9;" horiz-adv-x="425" 
d="M46 618h334v-76h-334v76z" />
    <glyph glyph-name="uni02CA" unicode="&#x2ca;" horiz-adv-x="254" 
d="M88 611h116l-123 -112h-81z" />
    <glyph glyph-name="uni02CB" unicode="&#x2cb;" horiz-adv-x="254" 
d="M166 611l88 -112h-81l-123 112h116z" />
    <glyph glyph-name="uni02CC" unicode="&#x2cc;" horiz-adv-x="207" 
d="M50 0h107v-220h-107v220z" />
    <glyph glyph-name="breve" unicode="&#x2d8;" horiz-adv-x="442" 
d="M101 551.5q-44 35.5 -54 104.5l78 11q3 -37 27 -56.5t68 -19.5q45 0 70 19.5t27 56.5l78 -11q-10 -69 -54 -104.5t-121 -35.5q-75 0 -119 35.5z" />
    <glyph glyph-name="dotaccent" unicode="&#x2d9;" horiz-adv-x="295" 
d="M197 645q19 -19 19 -50t-19 -50t-50 -19t-49.5 19t-18.5 50t18.5 50t49.5 19t50 -19z" />
    <glyph glyph-name="ring" unicode="&#x2da;" horiz-adv-x="329" 
d="M239.5 698.5q28.5 -28.5 28.5 -75.5t-28.5 -75.5t-75.5 -28.5t-75.5 28.5t-28.5 75.5t28.5 75.5t75.5 28.5t75.5 -28.5zM128 658.5q-14 -13.5 -14 -35.5t14 -35.5t36 -13.5t35.5 13.5t13.5 35.5t-13.5 35.5t-35.5 13.5t-36 -13.5z" />
    <glyph glyph-name="ogonek" unicode="&#x2db;" horiz-adv-x="302" 
d="M234 1q-45 -23 -64.5 -50t-19.5 -59q0 -22 16.5 -35t43.5 -13q25 0 49 10v-72q-43 -19 -89 -19q-59 0 -93 26.5t-34 67.5q0 54 38.5 97t120.5 77z" />
    <glyph glyph-name="tilde" unicode="&#x2dc;" horiz-adv-x="510" 
d="M30 650q35 36 65.5 56t67.5 20q20 0 40 -7t48 -21q3 -2 17.5 -8t25 -9t17.5 -3q15 0 31 9.5t38 31.5l53 -57q-43 -43 -70 -60t-60 -17q-18 0 -62 21q-24 12 -41 18t-32 6q-17 0 -34 -9.5t-44 -32.5z" />
    <glyph glyph-name="hungarumlaut" unicode="&#x2dd;" horiz-adv-x="600" 
d="M175 749l77 -57l-158 -183l-49 33zM372 728l63 -69l-189 -150l-42 42z" />
    <glyph glyph-name="gravecomb" unicode="&#x300;" 
d="M-86 509l-159 183l78 57l129 -207z" />
    <glyph glyph-name="acutecomb" unicode="&#x301;" 
d="M-120 749l77 -57l-158 -183l-49 33z" />
    <glyph glyph-name="uni0302" unicode="&#x302;" 
d="M-205 675l164 -115l-35 -50l-128 75l-136 -75l-33 50z" />
    <glyph glyph-name="tildecomb" unicode="&#x303;" 
d="M-405 593q35 27 60.5 37.5t59.5 10.5q20 0 37 -5.5t37 -16.5q18 -9 30.5 -13.5t25.5 -4.5q20 0 35 6t43 24l27 -64q-30 -27 -55 -38.5t-60 -11.5q-15 0 -28.5 5t-33.5 15q-19 10 -33.5 15.5t-30.5 5.5q-17 0 -31 -4.5t-30.5 -12.5t-23.5 -11z" />
    <glyph glyph-name="uni0304" unicode="&#x304;" 
d="M-379 618h334v-76h-334v76z" />
    <glyph glyph-name="uni0306" unicode="&#x306;" 
d="M-341 551.5q-44 35.5 -54 104.5l78 11q3 -37 27 -56.5t68 -19.5q45 0 70 19.5t27 56.5l78 -11q-10 -69 -54 -104.5t-121 -35.5q-75 0 -119 35.5z" />
    <glyph glyph-name="uni0307" unicode="&#x307;" 
d="M-98 645q19 -19 19 -50t-19 -50t-50 -19t-49.5 19t-18.5 50t18.5 50t49.5 19t50 -19z" />
    <glyph glyph-name="uni0308" unicode="&#x308;" 
d="M-275.5 637.5q20.5 -20.5 20.5 -48.5t-20.5 -48t-47.5 -20q-28 0 -48.5 20t-20.5 48t20.5 48.5t48.5 20.5q27 0 47.5 -20.5zM-84.5 637.5q20.5 -20.5 20.5 -48.5t-20.5 -48t-47.5 -20q-28 0 -48.5 20t-20.5 48t20.5 48.5t48.5 20.5q27 0 47.5 -20.5z" />
    <glyph glyph-name="hookabovecomb" unicode="&#x309;" 
d="M-156 529q18 15 28.5 31.5t10.5 31.5q0 13 -8.5 21.5t-23.5 8.5q-25 0 -52 -29l-44 49q50 56 110 56q43 0 68 -24t25 -62q0 -31 -19.5 -62t-57.5 -56z" />
    <glyph glyph-name="uni030A" unicode="&#x30a;" 
d="M-75.5 698.5q28.5 -28.5 28.5 -75.5t-28.5 -75.5t-75.5 -28.5t-75.5 28.5t-28.5 75.5t28.5 75.5t75.5 28.5t75.5 -28.5zM-187 658.5q-14 -13.5 -14 -35.5t14 -35.5t36 -13.5t35.5 13.5t13.5 35.5t-13.5 35.5t-35.5 13.5t-36 -13.5z" />
    <glyph glyph-name="uni030B" unicode="&#x30b;" 
d="M-304 749l77 -57l-158 -183l-49 33zM-107 728l63 -69l-189 -150l-42 42z" />
    <glyph glyph-name="uni030C" unicode="&#x30c;" 
d="M-209 500l-168 115l33 50l136 -75l128 75l35 -50z" />
    <glyph glyph-name="uni030F" unicode="&#x30f;" 
d="M-179 749l129 -207l-48 -33l-159 183zM-376 728l167 -177l-41 -42l-190 150z" />
    <glyph glyph-name="uni0311" unicode="&#x311;" 
d="M-101 641.5q44 -35.5 54 -104.5l-78 -11q-2 37 -27 56.5t-70 19.5q-44 0 -68 -19.5t-27 -56.5l-78 11q10 69 54 104.5t119 35.5q77 0 121 -35.5z" />
    <glyph glyph-name="uni0312" unicode="&#x312;" 
d="M-62 738q-5 -7 -21.5 -31.5t-26.5 -45.5q30 -6 45 -26t15 -46q0 -34 -22 -55t-57 -21q-32 0 -57 24.5t-25 57.5q0 50 31 92.5t54 64t27 25.5z" />
    <glyph glyph-name="uni031B" unicode="&#x31b;" 
d="M-190 447q34 0 51.5 20t17.5 59h91q0 -83 -40.5 -126t-119.5 -43v90z" />
    <glyph glyph-name="dotbelowcomb" unicode="&#x323;" 
d="M-98 -77q19 -19 19 -50t-19 -50t-50 -19t-49.5 19t-18.5 50t18.5 50t49.5 19t50 -19z" />
    <glyph glyph-name="uni0324" unicode="&#x324;" 
d="M-260.5 -80.5q20.5 -20.5 20.5 -48.5t-20.5 -48t-47.5 -20q-28 0 -48.5 20t-20.5 48t20.5 48.5t48.5 20.5q27 0 47.5 -20.5zM-69.5 -80.5q20.5 -20.5 20.5 -48.5t-20.5 -48t-47.5 -20q-28 0 -48.5 20t-20.5 48t20.5 48.5t48.5 20.5q27 0 47.5 -20.5z" />
    <glyph glyph-name="uni0326" unicode="&#x326;" 
d="M-181 -293q5 7 21.5 31.5t26.5 45.5q-30 6 -45 26t-15 46q0 34 22 55t57 21q32 0 57 -24.5t25 -57.5q0 -50 -31 -92.5t-54 -64t-27 -25.5z" />
    <glyph glyph-name="uni0327" unicode="&#x327;" 
d="M-223 -222q-29 13 -57 32l32 48q46 -29 92 -29q22 0 32.5 10.5t10.5 28.5q0 32 -53 32h-58v100h71v-51q64 2 95 -19t31 -67q0 -48 -36 -73t-92 -25q-39 0 -68 13z" />
    <glyph glyph-name="uni0328" unicode="&#x328;" 
d="M-75 0q-45 -23 -64.5 -50t-19.5 -59q0 -22 16.5 -35t43.5 -13q25 0 49 10v-72q-43 -19 -89 -19q-59 0 -93 26.5t-34 67.5q0 54 38.5 97t120.5 77z" />
    <glyph glyph-name="uni032E" unicode="&#x32e;" 
d="M-341 -169.5q-44 35.5 -54 104.5l78 11q3 -37 27 -56.5t68 -19.5q45 0 70 19.5t27 56.5l78 -11q-10 -69 -54 -104.5t-121 -35.5q-75 0 -119 35.5z" />
    <glyph glyph-name="uni0331" unicode="&#x331;" 
d="M-328 -55h328v-76h-328v76z" />
    <glyph glyph-name="uni0335" unicode="&#x335;" 
d="M-406 271h327v-76h-327v76z" />
    <glyph glyph-name="pi" unicode="&#x3c0;" horiz-adv-x="578" 
d="M477 103.5q21 -21.5 61 -19.5v-92q-11 -1 -32 -1q-80 0 -121.5 38.5t-41.5 114.5v213h-117v-266h56v-91h-236v91h66v266h-65v91h485v-91h-76v-188q0 -44 21 -65.5z" />
    <glyph glyph-name="uni0400" unicode="&#x400;" horiz-adv-x="609" 
d="M42 589h454l59 -177l-95 -32l-38 108h-179v-138h170v-100h-170v-149h204l37 100l94 -33l-58 -168h-479v101h85l1 387h-85v101zM301 651l-159 183l78 57l129 -207z" />
    <glyph glyph-name="uni0401" unicode="&#x401;" horiz-adv-x="609" 
d="M42 589h454l59 -177l-95 -32l-38 108h-179v-138h170v-100h-170v-149h204l37 100l94 -33l-58 -168h-479v101h85l1 387h-85v101zM252.5 779.5q20.5 -20.5 20.5 -48.5t-20.5 -48t-47.5 -20q-28 0 -48.5 20t-20.5 48t20.5 48.5t48.5 20.5q27 0 47.5 -20.5zM443.5 779.5
q20.5 -20.5 20.5 -48.5t-20.5 -48t-47.5 -20q-28 0 -48.5 20t-20.5 48t20.5 48.5t48.5 20.5q27 0 47.5 -20.5z" />
    <glyph glyph-name="uni0402" unicode="&#x402;" horiz-adv-x="700" 
d="M493 357q81 0 128.5 -45.5t47.5 -127.5q0 -51 -20 -94t-60 -69t-96 -26q-22 0 -51 6l9 99q18 -3 32 -3q35 0 52.5 23.5t17.5 64.5q0 38 -23.5 57.5t-65.5 19.5q-28 0 -57.5 -7t-52.5 -19v-135h17v-101h-229v101h95l1 387h-105v-81h-103v182h533v-182h-103v81h-105
l-1 -164q63 33 139 33z" />
    <glyph glyph-name="uni0403" unicode="&#x403;" horiz-adv-x="553" 
d="M50 589h436l53 -174l-96 -30l-33 103h-150v-387h102v-101h-313v101h96v387h-95v101zM432 891l77 -57l-158 -183l-49 33z" />
    <glyph glyph-name="uni0404" unicode="&#x404;" horiz-adv-x="624" 
d="M227 122.5q46 -45.5 124 -45.5q42 0 73 11.5t34 12.5l21 87l97 -22l-30 -142q0 -1 -28 -12.5t-71.5 -21.5t-95.5 -10q-139 0 -220.5 80.5t-81.5 235.5q0 97 37 167.5t105 108t159 37.5q58 0 102.5 -11.5t70.5 -24.5t26 -15l28 -141l-98 -22l-21 98q-7 5 -40.5 12t-66.5 7
q-79 0 -125 -45.5t-54 -130.5l110 8h135v-100h-135l-110 9q9 -85 55 -130.5z" />
    <glyph glyph-name="uni0405" unicode="&#x405;" horiz-adv-x="559" 
d="M62 18l-18 137l94 11l11 -73q58 -20 125 -20q61 0 100.5 22t39.5 66q0 34 -22 55.5t-79 31.5l-72 12q-91 16 -138.5 60t-47.5 115q0 83 65.5 128.5t168.5 45.5q98 0 187 -37l19 -147l-101 -11l-13 90q-45 15 -96 15q-58 0 -92 -20.5t-34 -55.5t24.5 -54.5t80.5 -29.5
l75 -12q93 -14 136 -57t43 -114q0 -105 -70 -150.5t-166 -45.5q-123 0 -220 38z" />
    <glyph glyph-name="uni0406" unicode="&#x406;" horiz-adv-x="389" 
d="M42 589h306v-101h-95v-387h95v-101h-307v101h97v387h-96v101z" />
    <glyph glyph-name="uni0407" unicode="&#x407;" horiz-adv-x="389" 
d="M42 589h306v-101h-95v-387h95v-101h-307v101h97v387h-96v101zM146.5 779.5q20.5 -20.5 20.5 -48.5t-20.5 -48t-47.5 -20q-28 0 -48.5 20t-20.5 48t20.5 48.5t48.5 20.5q27 0 47.5 -20.5zM337.5 779.5q20.5 -20.5 20.5 -48.5t-20.5 -48t-47.5 -20q-28 0 -48.5 20t-20.5 48
t20.5 48.5t48.5 20.5q27 0 47.5 -20.5z" />
    <glyph glyph-name="uni0408" unicode="&#x408;" horiz-adv-x="528" 
d="M207 -20q-43 0 -78 11t-76 32l-30 141l99 23l21 -98q30 -13 57 -13q47 0 72 38.5t25 105.5l1 268h-125v101h326v-101h-85v-249q0 -259 -207 -259z" />
    <glyph glyph-name="uni0409" unicode="&#x409;" horiz-adv-x="902" 
d="M819 328q55 -46 55 -140q0 -85 -53 -136.5t-148 -51.5h-297v101h65l1 388h-138l-15 -209q-11 -146 -61 -221.5t-154 -75.5q-9 0 -33 2v111q51 -4 79.5 15t42.5 65t20 130l13 183h-89v100h545v-100h-95v-115h111q96 0 151 -46zM727 122q26 21 26 69q0 83 -99 83h-97v-173
h95q49 0 75 21z" />
    <glyph glyph-name="uni040A" unicode="&#x40a;" horiz-adv-x="955" 
d="M41 101h85v387h-84v101l258 -1v-100h-58v-140h252v140h-57v101h258v-101h-85v-140h110q206 0 206 -173q0 -79 -52.5 -127t-148.5 -48h-287v101h56v148h-252v-148h56v-101h-257v101zM703 101q103 0 103 77q0 39 -25.5 55t-73.5 16h-97v-148h93z" />
    <glyph glyph-name="uni040B" unicode="&#x40b;" horiz-adv-x="782" 
d="M477 379q94 0 136.5 -51t42.5 -139v-88h96v-101h-271v101h60v72q0 51 -20 78t-69 27q-31 0 -61 -8.5t-49 -18.5v-150h67v-101h-279v101h95v387h-105v-81h-102v182h533v-160h-103v59h-106v-151q59 42 135 42z" />
    <glyph glyph-name="uni040C" unicode="&#x40c;" horiz-adv-x="692" 
d="M41 589h257v-101h-57v-146h74l108 146h-50v101h260v-101h-93l-138 -175l155 -212h100v-101h-295v101h70l-103 144h-88v-144h57v-101h-257v101h85v387h-85v101zM419 891l77 -57l-158 -183l-49 33z" />
    <glyph glyph-name="uni040D" unicode="&#x40d;" horiz-adv-x="753" 
d="M42 589l257 -1v-100h-56l-1 -340l269 441h200v-101h-85v-387h85v-101h-256v101h56v340l-269 -441h-201v101h86v387h-85v101zM388 651l-159 183l78 57l129 -207z" />
    <glyph glyph-name="uni040E" unicode="&#x40e;" horiz-adv-x="650" 
d="M186.5 -16.5q-26.5 4.5 -69.5 16.5l29 99q48 -20 91 -20q23 0 35 11.5t25 44.5l-201 353h-91v101h271v-101h-55l125 -231l86 231h-60v102h272v-102h-100l-154 -382q-27 -68 -59 -97.5t-90 -29.5q-28 0 -54.5 4.5zM203.5 677q-49.5 32 -65.5 93l90 12q9 -33 35.5 -51
t66.5 -18q41 0 67.5 18t35.5 51l90 -12q-16 -61 -66 -93t-127 -32t-126.5 32z" />
    <glyph glyph-name="uni040F" unicode="&#x40f;" horiz-adv-x="744" 
d="M315 -183l1 183h-267v101h85v387h-85v101l258 -1v-100h-57v-387h244v387h-57v101h258v-101h-85v-387h85v-101h-266v-183h-114z" />
    <glyph glyph-name="uni0410" unicode="&#x410;" horiz-adv-x="680" 
d="M6 0v101h99l151 387h-84v101h227l184 -488h90v-101h-259v101h53l-31 86h-199l-31 -86h58v-101h-258zM266 266h143l-70 209z" />
    <glyph glyph-name="uni0411" unicode="&#x411;" horiz-adv-x="586" 
d="M509 307q51 -44 51 -129q0 -86 -50 -132t-145 -46h-324v101h85v387h-85v101h447l46 -151l-97 -31l-25 81h-170v-139l118 1q98 1 149 -43zM440 178q0 36 -23.5 54.5t-68.5 17.5l-106 -1l-1 -148h101q98 0 98 77z" />
    <glyph glyph-name="uni0412" unicode="&#x412;" horiz-adv-x="593" 
d="M41 101h85v387h-85v101h263q115 0 176.5 -40.5t61.5 -117.5q0 -44 -20.5 -77.5t-58.5 -53.5q46 -14 71.5 -49.5t25.5 -88.5q0 -77 -51 -119.5t-149 -42.5h-319v101zM349 340q35 0 53.5 19.5t18.5 54.5q0 74 -106 74h-73v-148h107zM342 101q48 0 73 19.5t25 56.5
q0 35 -23.5 54t-68.5 19h-106v-149h100z" />
    <glyph glyph-name="uni0413" unicode="&#x413;" horiz-adv-x="553" 
d="M50 589h436l53 -174l-96 -30l-33 103h-150v-387h102v-101h-313v101h96v387h-95v101z" />
    <glyph glyph-name="uni0414" unicode="&#x414;" horiz-adv-x="701" 
d="M164 189q16 48 22 118l15 181h-104v101h555v-101h-96v-387h95v-235h-97v134h-416v-134h-96v235h77q29 40 45 88zM441 101v387h-138l-19 -196q-6 -63 -22 -108t-43 -83h222z" />
    <glyph glyph-name="uni0415" unicode="&#x415;" horiz-adv-x="609" 
d="M42 589h454l59 -177l-95 -32l-38 108h-179v-138h170v-100h-170v-149h204l37 100l94 -33l-58 -168h-479v101h85l1 387h-85v101z" />
    <glyph glyph-name="uni0416" unicode="&#x416;" horiz-adv-x="1003" 
d="M54 589h268v-101h-57l100 -143h79v143h-68v101h252v-101h-69v-143h79l101 143h-57v101h267v-101h-83l-133 -181l136 -206h86v-101h-273v101h52l-91 144h-84v-144h69v-101h-252v101h68v144h-84l-91 -144h53v-101h-274v101h86l136 206l-131 181h-85v101z" />
    <glyph glyph-name="uni0417" unicode="&#x417;" horiz-adv-x="561" 
d="M180.5 596q52.5 12 102.5 12q98 0 160 -45t62 -129q0 -98 -103 -130q124 -28 124 -139q0 -88 -69 -136.5t-177 -48.5q-61 0 -115.5 18t-96.5 54l-26 107l98 25l20 -71q26 -20 54 -29t69 -9q57 0 90.5 23.5t33.5 69.5q0 39 -26 62t-76 23h-92v92h90q42 0 63 22.5t21 63.5
q0 40 -31 61t-80 21q-53 0 -102 -22l-20 -69l-98 23l26 115q46 24 98.5 36z" />
    <glyph glyph-name="uni0418" unicode="&#x418;" horiz-adv-x="753" 
d="M42 589l257 -1v-100h-56l-1 -340l269 441h200v-101h-85v-387h85v-101h-256v101h56v340l-269 -441h-201v101h86v387h-85v101z" />
    <glyph glyph-name="uni0419" unicode="&#x419;" horiz-adv-x="753" 
d="M42 589l257 -1v-100h-56l-1 -340l269 441h200v-101h-85v-387h85v-101h-256v101h56v340l-269 -441h-201v101h86v387h-85v101zM260.5 677q-49.5 32 -65.5 93l90 12q9 -33 35.5 -51t66.5 -18q41 0 67.5 18t35.5 51l90 -12q-16 -61 -66 -93t-127 -32t-126.5 32z" />
    <glyph glyph-name="uni041A" unicode="&#x41a;" horiz-adv-x="692" 
d="M41 589h257v-101h-57v-146h74l108 146h-50v101h260v-101h-93l-138 -175l155 -212h100v-101h-295v101h70l-103 144h-88v-144h57v-101h-257v101h85v387h-85v101z" />
    <glyph glyph-name="uni041B" unicode="&#x41b;" horiz-adv-x="708" 
d="M40 -15v108q57 0 87 17t43 58t19 122l14 199h-90v101h546v-101h-96v-388h95v-101h-275v101h64v388h-143l-18 -226q-10 -136 -55.5 -207.5t-150.5 -72.5q-13 0 -40 2z" />
    <glyph glyph-name="uni041C" unicode="&#x41c;" horiz-adv-x="869" 
d="M42 589h264l134 -365l121 365h267v-101h-85v-387h85v-101h-265v101h64v406l-40 -134l-106 -302h-85l-122 314l-40 115l-1 -399h66v-101h-258v101h85v387h-84v101z" />
    <glyph glyph-name="uni041D" unicode="&#x41d;" horiz-adv-x="737" 
d="M42 589l258 -1v-100h-57l-1 -140h252l1 140h-58v101h258v-101h-84l-1 -387h85v-101h-257v101h56v147h-252v-147h56v-101h-257v101h85l1 387h-85v101z" />
    <glyph glyph-name="uni041E" unicode="&#x41e;" horiz-adv-x="668" 
d="M486 572q66 -37 103 -108t37 -169t-36.5 -169t-102.5 -108.5t-153 -37.5q-86 0 -152 37.5t-102.5 108.5t-36.5 169t36.5 169t102 108t151.5 37q87 0 153 -37zM206.5 456q-43.5 -55 -43.5 -161t43.5 -161.5t127.5 -55.5t128 55.5t44 161.5t-43.5 161t-128.5 55
q-84 0 -127.5 -55z" />
    <glyph glyph-name="uni041F" unicode="&#x41f;" horiz-adv-x="730" 
d="M42 589h646v-101h-95l-1 -387h96v-101h-276v101h66v387h-226v-387h65v-101h-276v101h96v387h-95v101z" />
    <glyph glyph-name="uni0420" unicode="&#x420;" horiz-adv-x="560" 
d="M479 540q61 -49 61 -143q0 -97 -61 -147t-177 -50h-61v-99h101v-101h-301v101h84v387h-84v101h261q116 0 177 -49zM419 394q0 48 -29 71t-89 23h-59v-197h59q118 0 118 103z" />
    <glyph glyph-name="uni0421" unicode="&#x421;" horiz-adv-x="607" 
d="M406.5 505q-31.5 7 -62.5 7q-87 0 -134 -56t-47 -160q0 -105 47.5 -162t133.5 -57q42 0 70.5 11.5t31.5 12.5l21 87l97 -22l-30 -142q0 -1 -27.5 -12.5t-70 -21.5t-92.5 -10q-139 0 -220 81t-81 237q0 96 37.5 166.5t105 107.5t157.5 37q56 0 99 -11.5t69 -24.5t26 -15
l28 -141l-98 -22l-21 99q-8 4 -39.5 11z" />
    <glyph glyph-name="uni0422" unicode="&#x422;" horiz-adv-x="600" 
d="M30 589h533v-200h-103v99h-105l-1 -387h85v-101h-287v101h85l1 387h-105v-99h-103v200z" />
    <glyph glyph-name="uni0423" unicode="&#x423;" horiz-adv-x="650" 
d="M186.5 -16.5q-26.5 4.5 -69.5 16.5l29 99q48 -20 91 -20q23 0 35 11.5t25 44.5l-201 353h-91v101h271v-101h-55l125 -231l86 231h-60v102h272v-102h-100l-154 -382q-27 -68 -59 -97.5t-90 -29.5q-28 0 -54.5 4.5z" />
    <glyph glyph-name="uni0424" unicode="&#x424;" horiz-adv-x="748" 
d="M221 60h95v47h-15q-268 0 -268 223q0 118 69 164t197 46h17v38l-94 29l33 97l176 -57v-108l18 -1q129 -3 197.5 -48t68.5 -161q0 -222 -266 -222h-18v-47h96v-100h-306v100zM316 191v272h-22q-64 0 -95.5 -29.5t-31.5 -103.5t32.5 -106.5t93.5 -32.5h23zM450 191
q61 0 96 33t35 105q0 74 -33 104t-97 30h-20v-272h19z" />
    <glyph glyph-name="uni0425" unicode="&#x425;" horiz-adv-x="699" 
d="M26 0v99h100l153 193l-162 196h-83v101h269v-101h-58l102 -123l103 123h-55v101h263v-101h-90l-153 -195l157 -194h105v-99h-289v99h59l-100 121l-101 -121h50v-99h-270z" />
    <glyph glyph-name="uni0426" unicode="&#x426;" horiz-adv-x="744" 
d="M581 -175l3 175h-535v101h85v387h-85v101l258 -1v-100h-57v-387h244v387h-57v101h258v-101h-85v-387h85v-276h-114z" />
    <glyph glyph-name="uni0427" unicode="&#x427;" horiz-adv-x="707" 
d="M318 101h139v143q-58 -31 -120 -31q-101 0 -158.5 55.5t-57.5 159.5v60h-85v101h256v-101h-57v-60q0 -63 28.5 -92.5t91.5 -29.5t102 25v157h-57v101h257v-101h-85v-387h85v-101h-339v101z" />
    <glyph glyph-name="uni0428" unicode="&#x428;" horiz-adv-x="981" 
d="M49 0v101h85v387h-84v101l257 -1v-100h-57v-387h181v387h-56v101h229v-101h-57l-1 -387h185v387h-57v101h258v-101h-85v-387h85v-101h-883z" />
    <glyph glyph-name="uni0429" unicode="&#x429;" horiz-adv-x="1000" 
d="M50 589l257 -1v-100h-57v-387h181v387h-56v101h229v-101h-57l-1 -387h185v387h-57v101h258v-101h-85v-387h109v-276h-114l1 175h-794v101h85v387h-84v101z" />
    <glyph glyph-name="uni042A" unicode="&#x42a;" horiz-adv-x="708" 
d="M154 101h95v388h-104v-122h-96v222h402v-100h-88v-115h111q99 0 152.5 -46t53.5 -140q0 -85 -52.5 -136.5t-148.5 -51.5h-325v101zM457 101q48 0 75 19.5t27 70.5q0 45 -24.5 64t-73.5 19h-97v-173h93z" />
    <glyph glyph-name="uni042B" unicode="&#x42b;" horiz-adv-x="908" 
d="M49 101h84v388h-82v100h255v-100h-58v-115h110q100 0 153 -45.5t53 -140.5q0 -85 -52.5 -136.5t-147.5 -51.5h-315v101zM602 0v101h57v387h-58v101h257v-101h-84l-1 -387h85v-101h-256zM342 101q48 0 75 19.5t27 70.5q0 45 -24.5 64t-73.5 19h-98v-173h94z" />
    <glyph glyph-name="uni042C" unicode="&#x42c;" horiz-adv-x="593" 
d="M510.5 328q53.5 -46 53.5 -140q0 -85 -52.5 -136.5t-148.5 -51.5h-314v101h84v388h-82v100h255v-100h-58v-115h110q99 0 152.5 -46zM416.5 120.5q27.5 19.5 27.5 70.5q0 45 -24.5 64t-74.5 19h-97v-173h93q48 0 75.5 19.5z" />
    <glyph glyph-name="uni042D" unicode="&#x42d;" horiz-adv-x="615" 
d="M174.5 -10q-43.5 10 -71.5 21.5t-28 12.5l-28 124l98 23l18 -69q58 -25 107 -25q77 0 123 45t55 130l-119 -7h-111v99h111l120 -7q-9 85 -54.5 130t-124.5 45q-33 0 -66.5 -7t-40.5 -12l-18 -84l-98 22l24 127q89 51 202 51q90 0 157.5 -37.5t104.5 -108.5t37 -167
q0 -155 -81.5 -235.5t-220.5 -80.5q-52 0 -95.5 10z" />
    <glyph glyph-name="uni042E" unicode="&#x42e;" horiz-adv-x="901" 
d="M425 52q-68 72 -77 204l-81 -4h-25l-1 -151h57v-101h-257v101h85v387h-85v101l258 -1v-100h-57v-136h25l82 -5q11 125 78.5 193.5t175.5 68.5q121 0 188.5 -82t67.5 -232t-67.5 -232.5t-187.5 -82.5q-111 0 -179 72zM738 295q0 108 -32.5 162.5t-101.5 54.5
q-67 0 -102 -55.5t-35 -161.5t35 -162t102 -56q134 0 134 218z" />
    <glyph glyph-name="uni042F" unicode="&#x42f;" horiz-adv-x="630" 
d="M41 101h91l76 133q-59 21 -94 63.5t-35 99.5q0 91 64 141.5t185 50.5h261v-101h-84v-387h84v-101h-256v101h56v109h-82l-105 -210h-161v101zM388 298v190h-59q-65 0 -98 -24.5t-33 -72.5q0 -45 33.5 -69t97.5 -24h59z" />
    <glyph glyph-name="uni0430" unicode="&#x430;" horiz-adv-x="551" 
d="M227 -19q-93 0 -141.5 36.5t-48.5 106.5q0 68 46.5 102.5t136.5 34.5h112q0 58 -24 88t-66 30t-80 -12l-9 -49l-94 13l18 106q81 29 168 29q98 0 149.5 -52t51.5 -151v-166l84 -27l-31 -94l-129 44q-72 -39 -143 -39zM171 170.5q-18 -16.5 -18 -47.5q0 -57 78 -57
q55 0 101 29v91l-109 1q-34 0 -52 -16.5z" />
    <glyph glyph-name="uni0431" unicode="&#x431;" horiz-adv-x="554" 
d="M418.5 550q-40.5 -16 -103.5 -37l-46 -16q-52 -18 -80.5 -42t-41.5 -57.5t-19 -89.5q13 48 61 81t112 33q96 0 153.5 -60t57.5 -160q0 -67 -28 -117t-78 -77t-115 -27q-81 0 -135.5 35.5t-81.5 96t-27 136.5q0 137 39.5 223.5t149.5 124.5q7 2 16 5.5t22 7.5
q60 21 99.5 37t58.5 30l44 -97q-17 -14 -57.5 -30zM201.5 297.5q-30.5 -32.5 -30.5 -95.5t29 -95.5t85 -32.5t85 32.5t29 95.5t-27 95.5t-80 32.5q-60 0 -90.5 -32.5z" />
    <glyph glyph-name="uni0432" unicode="&#x432;" horiz-adv-x="591" 
d="M481.5 417q47.5 -30 47.5 -85q0 -34 -16.5 -58.5t-46.5 -36.5q41 -7 62.5 -33t21.5 -68q0 -66 -37 -101.5t-107 -35.5h-360v91h89v267h-89v90h300q88 0 135.5 -30zM412 313q0 50 -74 50h-87v-97h107q54 0 54 47zM435 142q0 53 -66 53h-118v-110h114q70 0 70 57z" />
    <glyph glyph-name="uni0433" unicode="&#x433;" horiz-adv-x="492" 
d="M46 448h398l38 -161l-98 -23l-24 94h-114v-267h114v-91h-314v91h86v267h-86v90z" />
    <glyph glyph-name="uni0434" unicode="&#x434;" horiz-adv-x="631" 
d="M31 91h70q34 20 47 77.5t21 140.5l5 47h-89v91h499v-91h-87v-265h87v-234h-112v143h-329v-143h-111zM383 91v265h-118l-6 -58q-8 -87 -20 -137.5t-34 -69.5h178z" />
    <glyph glyph-name="uni0435" unicode="&#x435;" horiz-adv-x="521" 
d="M285 -19q-75 0 -131.5 30.5t-87.5 85t-31 125.5q0 72 29 127.5t82 86t121 30.5t119.5 -28t79.5 -79t28 -118q0 -26 -5 -56h-344q4 -56 43.5 -85t96.5 -29q83 0 149 52l40 -68q-87 -74 -189 -74zM350 343.5q-30 30.5 -80 30.5q-49 0 -84 -31t-39 -80h234q-1 50 -31 80.5z
" />
    <glyph glyph-name="uni0436" unicode="&#x436;" horiz-adv-x="835" 
d="M32 0v91h83l94 132l-97 134h-75v90h241v-90h-65l69 -99h80v98h-48v91h202v-91h-48v-98h79l68 99h-63v90h240v-90h-76l-96 -134l94 -132h84v-91h-140l-122 179h-68v-88h48v-91h-202v91h48v88h-68l-120 -179h-142z" />
    <glyph glyph-name="uni0437" unicode="&#x437;" horiz-adv-x="470" 
d="M112 -1.5q-54 18.5 -91 52.5l61 72q28 -25 66 -38t79 -13q47 0 72.5 16t25.5 45q0 28 -22 39t-68 11h-48v87h51q38 0 57 12t19 38q0 30 -25.5 45t-65.5 15q-47 0 -96 -19l-14 -67l-83 19l20 108q93 43 183 43q85 0 135.5 -34.5t50.5 -94.5q0 -33 -21 -60t-58 -42
q48 -10 74 -37.5t26 -72.5t-29.5 -77t-78.5 -49t-105 -17q-61 0 -115 18.5z" />
    <glyph glyph-name="uni0438" unicode="&#x438;" horiz-adv-x="669" 
d="M46 448h237v-91h-43v-222l189 312l194 1v-91h-85v-266h85v-91h-237v91h43v226l-189 -317h-194v91h85v266h-85v91z" />
    <glyph glyph-name="uni0439" unicode="&#x439;" horiz-adv-x="669" 
d="M46 448h237v-91h-43v-222l189 312l194 1v-91h-85v-266h85v-91h-237v91h43v226l-189 -317h-194v91h85v266h-85v91zM225 555q-45 39 -54 101l78 11q3 -35 26.5 -55.5t68.5 -20.5q46 0 70.5 20.5t26.5 55.5l78 -11q-9 -62 -54.5 -101t-120.5 -39q-74 0 -119 39z" />
    <glyph glyph-name="uni043A" unicode="&#x43a;" horiz-adv-x="615" 
d="M46 447h232v-90h-34v-92h77l62 92h-51v90h241v-90h-76l-96 -134l94 -132h83v-91h-148l-121 175h-65v-84h34v-91h-232v91h84v266h-84v90z" />
    <glyph glyph-name="uni043B" unicode="&#x43b;" horiz-adv-x="629" 
d="M582 91v-91h-241v91h41v266h-111l-8 -118q-9 -122 -54.5 -185.5t-140.5 -63.5q-9 0 -33 2v92q7 -1 19 -1q43 0 66 20t33.5 58.5t14.5 103.5l6 92h-83v91h490v-91h-86v-266h87z" />
    <glyph glyph-name="uni043C" unicode="&#x43c;" horiz-adv-x="834" 
d="M788 357h-84v-266h84v-91h-237v91h44v282l-134 -316h-81l-140 299v-265h43v-91h-237v91h85v266h-85v91h252l123 -271l116 271h251v-91z" />
    <glyph glyph-name="uni043D" unicode="&#x43d;" horiz-adv-x="679" 
d="M46 447h242v-90h-43v-88h189v88h-43v90h241v-90h-84v-266h84v-91h-241v91h43v87h-189v-87h43v-91h-242v91h85v266h-85v90z" />
    <glyph glyph-name="uni043E" unicode="&#x43e;" horiz-adv-x="555" 
d="M450.5 401.5q62.5 -64.5 62.5 -178.5t-62.5 -178t-174.5 -64q-110 0 -171.5 64t-61.5 178t61.5 178.5t171.5 64.5q112 0 174.5 -64.5zM186 334.5q-31 -38.5 -31 -111.5q0 -74 31 -112.5t91 -38.5q61 0 92 38.5t31 112.5q0 73 -31.5 111.5t-91.5 38.5t-91 -38.5z" />
    <glyph glyph-name="uni043F" unicode="&#x43f;" horiz-adv-x="676" 
d="M46 448h584v-91h-85v-266h85v-91h-242v91h43v266h-186v-266h43v-91h-242v91h85v266h-85v91z" />
    <glyph glyph-name="uni0440" unicode="&#x440;" horiz-adv-x="596" 
d="M31 -130h84v470l-95 32l30 92l141 -48q33 23 70.5 36.5t71.5 13.5q104 0 164 -63.5t60 -174.5q0 -74 -29 -130.5t-82.5 -87t-124.5 -30.5q-50 0 -92 12v-122h84v-90h-282v90zM408.5 112q31.5 41 31.5 115q0 71 -29 108.5t-84 37.5q-28 0 -54.5 -9.5t-45.5 -26.5v-248
q17 -8 42.5 -13t50.5 -5q57 0 88.5 41z" />
    <glyph glyph-name="uni0441" unicode="&#x441;" horiz-adv-x="497" 
d="M282 379q-62 0 -94.5 -40t-32.5 -119q0 -68 35 -107.5t89 -39.5q68 0 137 49l46 -68q-49 -38 -90 -55.5t-96 -17.5q-110 0 -173.5 62t-63.5 177q0 120 63.5 183.5t178.5 63.5q70 0 154 -29l25 -129l-96 -21l-14 81q-36 10 -68 10z" />
    <glyph glyph-name="uni0442" unicode="&#x442;" horiz-adv-x="507" 
d="M21 447h466v-178h-84v88h-92v-266h84v-91h-284v91h86v266h-93v-88h-83v178z" />
    <glyph glyph-name="uni0443" unicode="&#x443;" horiz-adv-x="597" 
d="M592 447v-90h-77l-184 -433q-37 -88 -80 -127t-101 -39q-43 0 -88 19l21 88q20 -7 34 -10.5t30 -3.5q24 0 40.5 11.5t31 38t35.5 79.5l-176 377h-73v90h244v-90h-55l108 -256l102 256h-52l5 90h235z" />
    <glyph glyph-name="uni0444" unicode="&#x444;" horiz-adv-x="768" 
d="M239 -128h89v118q-29 -8 -75 -8q-52 0 -100 28t-78.5 83.5t-30.5 132.5q0 76 27 127.5t71.5 76.5t96.5 25t89 -14v110l-97 29l28 92l182 -57v-174q37 14 88 14q52 0 96.5 -25t71.5 -76.5t27 -127.5q0 -77 -30.5 -132.5t-78.5 -83.5t-100 -28q-47 0 -74 8v-118h87v-91
h-289v91zM317 65q9 2 11 2v294q-13 5 -23 7.5t-28 2.5q-53 0 -85.5 -38t-32.5 -109q0 -72 38 -116.5t96 -44.5q15 0 24 2zM571 107.5q38 44.5 38 116.5q0 71 -32.5 109t-84.5 38q-24 0 -51 -10v-294q20 -4 34 -4q58 0 96 44.5z" />
    <glyph glyph-name="uni0445" unicode="&#x445;" horiz-adv-x="620" 
d="M32 0v91h86l123 138l-129 128h-80v90h247v-90h-36l72 -77l69 77h-37v90h230v-90h-76l-119 -136l133 -130h79v-91h-249v91h43l-80 80l-73 -80h40v-91h-243z" />
    <glyph glyph-name="uni0446" unicode="&#x446;" horiz-adv-x="669" 
d="M520 -143v143h-473v91h87v266h-88v90h242v-90h-41v-266h175v266h-41v90h242v-90h-88v-266h87v-234h-102z" />
    <glyph glyph-name="uni0447" unicode="&#x447;" horiz-adv-x="632" 
d="M255 157q-89 0 -119 47.5t-28 119.5l1 32h-84v92h241v-92h-44v-13q0 -40 4.5 -61.5t20.5 -34t49 -12.5q51 0 91 25v96h-43v92h241v-92h-84v-265h84v-91h-281v91h83v100q-56 -34 -132 -34z" />
    <glyph glyph-name="uni0448" unicode="&#x448;" horiz-adv-x="847" 
d="M46 447h241v-90h-41v-266h121v266h-13v90h167v-90h-40v-266h119v266h-12v90h212v-90h-87v-266h87v-91h-753v91h86v266h-87v90z" />
    <glyph glyph-name="uni0449" unicode="&#x449;" horiz-adv-x="847" 
d="M698 -143v143h-651v91h86v266h-87v91h242v-91h-41v-266h120v266h-13v90h167v-90h-40v-266h119v266h-12v90h212v-90h-87v-266h87v-234h-102z" />
    <glyph glyph-name="uni044A" unicode="&#x44a;" horiz-adv-x="599" 
d="M526 250q53 -32 53 -108q0 -64 -38.5 -103.5t-107.5 -39.5h-316v91h86v267h-93v-86h-89v176h377l-1 -90h-86v-75h77q85 0 138 -32zM446 105q19 14 19 40q0 24 -18 37t-49 13h-87v-104h83q33 0 52 14z" />
    <glyph glyph-name="uni044B" unicode="&#x44b;" horiz-adv-x="826" 
d="M46 90h86v267h-86v90h289v-90h-95v-82h81q83 0 134 -30.5t51 -103.5q0 -64 -36.5 -103t-102.5 -39h-321v91zM569 0v91h12v266h-65v90h263v-90h-84v-266h84v-91h-210zM328 91q33 0 51.5 13.5t18.5 40.5q0 24 -17.5 36.5t-48.5 12.5h-92v-103h88z" />
    <glyph glyph-name="uni044C" unicode="&#x44c;" horiz-adv-x="549" 
d="M46 90h86v267h-86v90h289v-90h-87v-75h89q85 0 138.5 -32t53.5 -108q0 -64 -39 -103.5t-108 -39.5h-336v91zM344 91q32 0 51 14t19 40q0 24 -17.5 37t-48.5 13h-100v-104h96z" />
    <glyph glyph-name="uni044D" unicode="&#x44d;" horiz-adv-x="499" 
d="M303.5 342.5q-30.5 30.5 -83.5 30.5q-40 0 -69 -9l-15 -75l-95 21l26 129q26 12 69.5 19.5t86.5 7.5q109 0 171.5 -66t62.5 -180q0 -111 -63 -175t-173 -64q-94 0 -185 48l33 78q67 -35 151 -35q51 0 81 28.5t38 82.5l-60 -7h-92v82h91l61 -7q-5 61 -35.5 91.5z" />
    <glyph glyph-name="uni044E" unicode="&#x44e;" horiz-adv-x="816" 
d="M400.5 36q-58.5 52 -68.5 148l-72 -6h-15v-87h43v-91h-242v91h85v266h-85v91h242v-91h-43v-87h15l72 -4q11 96 70 148.5t148 52.5q65 0 116 -28.5t79.5 -83t28.5 -130.5q0 -116 -61 -178.5t-163 -62.5q-91 0 -149.5 52zM631.5 115q27.5 38 27.5 110q0 71 -27.5 108.5
t-80.5 37.5q-52 0 -79.5 -37.5t-27.5 -108.5q0 -72 27.5 -110t79.5 -38q53 0 80.5 38z" />
    <glyph glyph-name="uni044F" unicode="&#x44f;" horiz-adv-x="602" 
d="M471 367v-277h85v-90h-249v90h49v68h-69l-106 -158h-145v91h87l59 82q-49 17 -77.5 51.5t-28.5 82.5q0 64 52.5 102.5t150.5 38.5h277v-81h-85zM356 367h-64q-48 0 -74 -15.5t-26 -52.5q0 -64 99 -64h65v132z" />
    <glyph glyph-name="uni0450" unicode="&#x450;" horiz-adv-x="521" 
d="M285 -19q-75 0 -131.5 30.5t-87.5 85t-31 125.5q0 72 29 127.5t82 86t121 30.5t119.5 -28t79.5 -79t28 -118q0 -26 -5 -56h-344q4 -56 43.5 -85t96.5 -29q83 0 149 52l40 -68q-87 -74 -189 -74zM350 343.5q-30 30.5 -80 30.5q-49 0 -84 -31t-39 -80h234q-1 50 -31 80.5z
M272 509l-159 183l78 57l129 -207z" />
    <glyph glyph-name="uni0451" unicode="&#x451;" horiz-adv-x="521" 
d="M285 -19q-75 0 -131.5 30.5t-87.5 85t-31 125.5q0 72 29 127.5t82 86t121 30.5t119.5 -28t79.5 -79t28 -118q0 -26 -5 -56h-344q4 -56 43.5 -85t96.5 -29q83 0 149 52l40 -68q-87 -74 -189 -74zM350 343.5q-30 30.5 -80 30.5q-49 0 -84 -31t-39 -80h234q-1 50 -31 80.5z
M223.5 637.5q20.5 -20.5 20.5 -48.5t-20.5 -48t-47.5 -20q-28 0 -48.5 20t-20.5 48t20.5 48.5t48.5 20.5q27 0 47.5 -20.5zM414.5 637.5q20.5 -20.5 20.5 -48.5t-20.5 -48t-47.5 -20q-28 0 -48.5 20t-20.5 48t20.5 48.5t48.5 20.5q27 0 47.5 -20.5z" />
    <glyph glyph-name="uni0452" unicode="&#x452;" horiz-adv-x="572" 
d="M262 -150q74 39 118.5 116.5t44.5 178.5q0 71 -28.5 107.5t-80.5 36.5q-44 0 -96 -27v-171h41v-91h-239v91h83v361h-83v69h83v38l-95 31l30 92l179 -61v-100h148v-69h-148v-103q67 35 129 35q86 0 138.5 -56.5t52.5 -159.5q0 -86 -29 -163.5t-80 -136.5t-117 -93z" />
    <glyph glyph-name="uni0453" unicode="&#x453;" horiz-adv-x="492" 
d="M46 448h398l38 -161l-98 -23l-24 94h-114v-267h114v-91h-314v91h86v267h-86v90zM383 749l77 -57l-158 -183l-49 33z" />
    <glyph glyph-name="uni0454" unicode="&#x454;" horiz-adv-x="500" 
d="M199 101.5q30 -29.5 83 -29.5q43 0 82 10.5t63 22.5l34 -77q-31 -17 -77 -32t-103 -15q-107 0 -172 63t-65 176q0 117 63.5 181.5t173.5 64.5q47 0 91 -9t63 -18l26 -129l-96 -21l-15 75q-36 9 -68 9q-54 0 -84 -30.5t-36 -88.5l62 8h98v-82h-100l-59 7q6 -56 36 -85.5z
" />
    <glyph glyph-name="uni0455" unicode="&#x455;" horiz-adv-x="465" 
d="M236 383q-38 0 -64 -14t-26 -39t16.5 -38t61.5 -19l60 -9q77 -10 112.5 -42.5t35.5 -90.5q0 -73 -56 -111.5t-140 -38.5q-106 0 -182 45l-18 104l95 17l11 -55q41 -20 88 -20q44 0 72.5 14.5t28.5 41.5q0 22 -16 34.5t-59 17.5l-57 9q-74 11 -114 45.5t-40 89.5
q0 65 52.5 103.5t136.5 38.5q94 0 161 -45l18 -96l-85 -16l-16 61q-39 13 -76 13z" />
    <glyph glyph-name="uni0456" unicode="&#x456;" horiz-adv-x="345" 
d="M40 447h198v-356h83v-91h-281v91h83v266h-83v90zM220 645q19 -19 19 -50t-19 -50t-50 -19t-49.5 19t-18.5 50t18.5 50t49.5 19t50 -19z" />
    <glyph glyph-name="uni0457" unicode="&#x457;" horiz-adv-x="345" 
d="M40 447h198v-356h83v-91h-281v91h83v266h-83v90zM122.5 637.5q20.5 -20.5 20.5 -48.5t-20.5 -48t-47.5 -20q-28 0 -48.5 20t-20.5 48t20.5 48.5t48.5 20.5q27 0 47.5 -20.5zM313.5 637.5q20.5 -20.5 20.5 -48.5t-20.5 -48t-47.5 -20q-28 0 -48.5 20t-20.5 48t20.5 48.5
t48.5 20.5q27 0 47.5 -20.5z" />
    <glyph glyph-name="uni0458" unicode="&#x458;" horiz-adv-x="281" 
d="M212.5 -139.5q-9.5 -41.5 -51 -71.5t-128.5 -30q-30 0 -75 10l12 89q32 -4 55 -4q39 0 57 14t22 33.5t4 51.5v404h-84v90h198v-482q0 -63 -9.5 -104.5zM207 645q19 -19 19 -50t-19 -50t-50 -19t-49.5 19t-18.5 50t18.5 50t49.5 19t50 -19z" />
    <glyph glyph-name="uni0459" unicode="&#x459;" horiz-adv-x="810" 
d="M35 84q7 -1 19 -1q43 0 66.5 20t34 58.5t14.5 103.5l5 92h-74v90h494v-90h-86v-85h90q87 0 139.5 -29t52.5 -105q0 -64 -38.5 -101t-108.5 -37h-290v91h41v266h-123l-8 -118q-9 -122 -54.5 -185.5t-140.5 -63.5q-9 0 -33 2v92zM604 91q36 0 53.5 12t17.5 39
q0 24 -16.5 33t-50.5 9h-100v-93h96z" />
    <glyph glyph-name="uni045A" unicode="&#x45a;" horiz-adv-x="849" 
d="M777.5 238q51.5 -28 51.5 -104q0 -63 -38.5 -98.5t-109.5 -35.5h-292v91h44v87h-188v-87h43v-91h-242v91h85v266h-85v91h242v-91h-43v-88h188v88h-44v91h243v-91h-84v-91h88q90 0 141.5 -28zM697 101.5q17 10.5 17 36.5q0 23 -17 31.5t-50 8.5h-99v-87h95q37 0 54 10.5z
" />
    <glyph glyph-name="uni045B" unicode="&#x45b;" horiz-adv-x="652" 
d="M39 91h83v361h-83v69h83v38l-95 31l30 92l179 -61v-100h177v-69h-177v-85q29 16 65 26t74 10q82 0 123 -46.5t41 -135.5v-130h84v-91h-239v91h41v114q0 52 -19.5 77t-65.5 25q-43 0 -103 -26v-190h41v-91h-239v91z" />
    <glyph glyph-name="uni045C" unicode="&#x45c;" horiz-adv-x="615" 
d="M46 447h232v-90h-34v-92h77l62 92h-51v90h241v-90h-76l-96 -134l94 -132h83v-91h-148l-121 175h-65v-84h34v-91h-232v91h84v266h-84v90zM389 749l77 -57l-158 -183l-49 33z" />
    <glyph glyph-name="uni045D" unicode="&#x45d;" horiz-adv-x="669" 
d="M46 448h237v-91h-43v-222l189 312l194 1v-91h-85v-266h85v-91h-237v91h43v226l-189 -317h-194v91h85v266h-85v91zM345 509l-159 183l78 57l129 -207z" />
    <glyph glyph-name="uni045E" unicode="&#x45e;" horiz-adv-x="597" 
d="M592 447v-90h-77l-184 -433q-37 -88 -80 -127t-101 -39q-43 0 -88 19l21 88q20 -7 34 -10.5t30 -3.5q24 0 40.5 11.5t31 38t35.5 79.5l-176 377h-73v90h244v-90h-55l108 -256l102 256h-52l5 90h235zM200 555q-45 39 -54 101l78 11q3 -35 26.5 -55.5t68.5 -20.5
q46 0 70.5 20.5t26.5 55.5l78 -11q-9 -62 -54.5 -101t-120.5 -39q-74 0 -119 39z" />
    <glyph glyph-name="uni045F" unicode="&#x45f;" horiz-adv-x="669" 
d="M283 -143v143h-236v91h87v266h-88v91h242v-91h-41v-266h175v266h-41v91h242v-91h-88v-266h87v-91h-236v-143h-103z" />
    <glyph glyph-name="uni0462" unicode="&#x462;" horiz-adv-x="614" 
d="M71 101h85v341h-76v-39h-59v117h135v54h-83v99h279v-99h-82v-54h167v-117h-66v39h-101v-73h110q99 0 152.5 -46t53.5 -138q0 -84 -52.5 -134.5t-147.5 -50.5h-315v101zM364 101q47 0 74.5 19t27.5 68q0 42 -23.5 61.5t-75.5 19.5h-97v-168h94z" />
    <glyph glyph-name="uni0463" unicode="&#x463;" horiz-adv-x="572" 
d="M70 89h85v266h-81v-41h-58v116h139v68h-85v91h288v-90h-88v-69h165v-116h-53v42l-112 -1v-73h90q85 0 138.5 -32.5t53.5 -108.5q0 -65 -39 -103.5t-108 -38.5h-335v90zM367 91q32 0 51 14t19 40q0 24 -17.5 36.5t-49.5 12.5h-100v-103h97z" />
    <glyph glyph-name="uni046A" unicode="&#x46a;" horiz-adv-x="885" 
d="M7 101h86l103 142q27 38 59 61t65 27l-141 157h-78v101h680v-101h-86l-132 -157q33 -3 65.5 -26t60.5 -62l102 -142h86v-101h-274v101h53l-64 103q-18 31 -35.5 39t-50.5 8h-5l-1 -151h52v-100h-218v100h52v151h-7q-33 0 -50.5 -8t-35.5 -39l-64 -103h52v-101h-274v101z
M447 338l128 150h-260z" />
    <glyph glyph-name="uni046B" unicode="&#x46b;" horiz-adv-x="687" 
d="M17 91h83l22 80q11 40 41.5 58t83.5 19l-128 123h-65v76h579v-76h-65l-123 -123l13 -1q44 -3 70 -20.5t36 -55.5l23 -80h83v-91h-170l-29 127q-7 33 -21 46t-42 13h-15v-95h41v-91h-152v91h12v95h-15q-27 0 -42 -13.5t-22 -45.5l-28 -127h-170v91zM346 246l125 125h-245z
" />
    <glyph glyph-name="uni0472" unicode="&#x472;" horiz-adv-x="668" 
d="M486 572q66 -37 103 -108t37 -169t-36.5 -169t-102.5 -108.5t-153 -37.5q-86 0 -152 37.5t-102.5 108.5t-36.5 169t36.5 169t102 108t151.5 37q87 0 153 -37zM217 467.5q-43 -43.5 -52 -127.5h339q-9 84 -52 127.5t-118 43.5q-74 0 -117 -43.5zM453.5 123.5
q43.5 45.5 50.5 133.5h-339q8 -88 50.5 -133.5t118.5 -45.5t119.5 45.5z" />
    <glyph glyph-name="uni0473" unicode="&#x473;" horiz-adv-x="555" 
d="M450.5 401.5q62.5 -64.5 62.5 -178.5t-62.5 -178t-174.5 -64q-110 0 -171.5 64t-61.5 178t61.5 178.5t171.5 64.5q112 0 174.5 -64.5zM196 344.5q-30 -28.5 -38 -82.5h239q-8 54 -38 82.5t-82 28.5q-51 0 -81 -28.5zM359.5 101q30.5 29 38.5 85h-241q8 -56 38 -85t82 -29
t82.5 29z" />
    <glyph glyph-name="uni0474" unicode="&#x474;" horiz-adv-x="664" 
d="M506 556q36 34 82 34q22 0 37 -3t32 -12l-20 -112q-13 3 -25 3q-27 0 -47 -20.5t-36 -68.5l-130 -377h-115l-196 488h-82v101h271v-101h-56l85 -235l42 -121l39 113l64 212q19 65 55 99z" />
    <glyph glyph-name="uni0475" unicode="&#x475;" horiz-adv-x="558" 
d="M78 357h-73l-1 90h244v-90h-54l56 -165l34 -91l34 90l59 161q21 55 55.5 83t79.5 28q22 0 44 -6v-91q-16 2 -21 2q-33 0 -53.5 -22.5t-40.5 -73.5l-108 -272h-111z" />
    <glyph glyph-name="uni048A" unicode="&#x48a;" horiz-adv-x="753" 
d="M260.5 677q-49.5 32 -65.5 93l90 12q9 -33 35.5 -51t66.5 -18q41 0 67.5 18t35.5 51l90 -12q-16 -61 -66 -93t-127 -32t-126.5 32zM718 101v-101l-77 -175h-95l59 175h-150v101h56v340l-269 -441h-201v101h86v387h-85v101l257 -1v-100h-56l-1 -340l269 441h200v-101h-85
v-387h92z" />
    <glyph glyph-name="uni048B" unicode="&#x48b;" horiz-adv-x="669" 
d="M225 555q-45 39 -54 101l78 11q3 -35 26.5 -55.5t68.5 -20.5q46 0 70.5 20.5t26.5 55.5l78 -11q-9 -62 -54.5 -101t-120.5 -39q-74 0 -119 39zM630 91v-91l-60 -143h-89l51 143h-146v91h43v226l-189 -317h-194v91h85v266h-85v91h237v-91h-43v-222l189 312l194 1v-91h-85
v-266h92z" />
    <glyph glyph-name="uni048C" unicode="&#x48c;" horiz-adv-x="608" 
d="M510.5 328q53.5 -46 53.5 -140q0 -85 -52.5 -136.5t-148.5 -51.5h-314v101h84v300h-87v61h87v27h-82v100h255v-100h-58v-27h126v-61h-126v-27h110q99 0 152.5 -46zM416.5 120.5q27.5 19.5 27.5 70.5q0 45 -24.5 64t-74.5 19h-97v-173h93q48 0 75.5 19.5z" />
    <glyph glyph-name="uni048D" unicode="&#x48d;" horiz-adv-x="567" 
d="M475.5 270q53.5 -35 53.5 -118q0 -69 -39 -111t-108 -42h-336v91h88v288h-81v69h81v101l-95 32l29 91l180 -61v-163h96v-69h-96v-73h89q85 0 138.5 -35zM395.5 107.5q18.5 16.5 18.5 48.5q0 30 -17.5 45.5t-48.5 15.5h-100v-126h96q33 0 51.5 16.5z" />
    <glyph glyph-name="uni048E" unicode="&#x48e;" horiz-adv-x="575" 
d="M470 243l40 -48l-44 -35l-48 57q-49 -17 -116 -17h-61v-99h101v-101h-301v101h84v387h-84v101h261q116 0 177 -49t61 -143q0 -104 -70 -154zM351 297l-41 48l44 35l45 -53q20 25 20 67q0 48 -29 71t-89 23h-59v-197h59q28 0 50 6z" />
    <glyph glyph-name="uni048F" unicode="&#x48f;" horiz-adv-x="600" 
d="M535.5 113q-21.5 -51 -61.5 -83l57 -78l-50 -36l-60 83q-44 -19 -100 -19q-50 0 -92 12v-122h84v-90h-282v90h84v470l-95 32l30 92l141 -48q33 23 70.5 36.5t71.5 13.5q104 0 164 -63.5t60 -174.5q0 -64 -21.5 -115zM363 78l-52 71l49 36l51 -70q29 41 29 112t-29 108.5
t-84 37.5q-28 0 -54.5 -9.5t-45.5 -26.5v-248q17 -8 42.5 -13t50.5 -5t43 7z" />
    <glyph glyph-name="uni0490" unicode="&#x490;" horiz-adv-x="527" 
d="M418 693l96 -31l-54 -174h-208v-387h102v-101h-313v101h96v387h-95v101h343z" />
    <glyph glyph-name="uni0491" unicode="&#x491;" horiz-adv-x="513" 
d="M410 545l92 -29l-48 -158h-208v-267h114v-91h-314v91h86v267h-86v90h335z" />
    <glyph glyph-name="uni0492" unicode="&#x492;" horiz-adv-x="553" 
d="M486 589l53 -174l-96 -30l-33 103h-150v-155h135v-76h-135v-156h102v-101h-313v101h96v156h-77v76h77v155h-95v101h436z" />
    <glyph glyph-name="uni0493" unicode="&#x493;" horiz-adv-x="487" 
d="M444 448l33 -139l-98 -23l-19 72h-114v-108h113v-67h-113v-92h114v-91h-314v91h86v92h-80v67h80v108h-86v90h398z" />
    <glyph glyph-name="uni0494" unicode="&#x494;" horiz-adv-x="608" 
d="M349 -56q55 28 84.5 78.5t29.5 115.5q-1 63 -28 94t-77 31t-106 -33v-129h73v-101h-284v101h96v387h-95v101h436l47 -155l-96 -30l-26 84h-151v-173q36 21 68.5 30t69.5 9q89 0 138 -52t49 -146q0 -93 -49.5 -169t-145.5 -123z" />
    <glyph glyph-name="uni0495" unicode="&#x495;" horiz-adv-x="550" 
d="M471.5 188q55.5 -50 55.5 -138q0 -174 -218 -270l-38 64q54 32 83 58t42 57.5t13 77.5q0 117 -105 117q-27 0 -58 -7v-56h20v-91h-220v91h86v267h-86v90h398l32 -141l-97 -22l-18 73h-115v-131q40 11 81 11q89 0 144.5 -50z" />
    <glyph glyph-name="uni0496" unicode="&#x496;" horiz-adv-x="1003" 
d="M955 101v-101h-1v-175h-113l2 175h-161v101h52l-91 144h-84v-144h69v-101h-252v101h68v144h-84l-91 -144h53v-101h-274v101h86l136 206l-131 181h-85v101h268v-101h-57l100 -143h79v143h-68v101h252v-101h-69v-143h79l101 143h-57v101h267v-101h-83l-133 -181l136 -206
h86z" />
    <glyph glyph-name="uni0497" unicode="&#x497;" horiz-adv-x="848" 
d="M726 91h85l-1 -234h-101v143h-46l-114 179h-68v-88h48v-91h-210v91h48v88h-68l-114 -179h-148v91h83l94 132l-96 134h-76v90h241v-90h-63l67 -99h80v98h-48v91h210v-91h-48v-98h78l69 99h-64v90h241v-90h-76l-96 -134z" />
    <glyph glyph-name="uni0498" unicode="&#x498;" horiz-adv-x="561" 
d="M480.5 49.5q-45.5 -45.5 -122.5 -61.5v-163h-107l3 156q-111 6 -186 71l-26 107l98 25l20 -71q26 -20 54 -29t69 -9q57 0 90.5 23.5t33.5 69.5q0 39 -26 62t-76 23h-92v92h90q42 0 63 22.5t21 63.5q0 40 -31 61t-80 21q-53 0 -102 -22l-20 -69l-98 23l26 115
q46 24 98.5 36t102.5 12q98 0 160 -45t62 -129q0 -98 -103 -130q124 -28 124 -139q0 -70 -45.5 -115.5z" />
    <glyph glyph-name="uni0499" unicode="&#x499;" horiz-adv-x="473" 
d="M403.5 35q-40.5 -35 -105.5 -49l-1 -129h-101l-1 125q-50 5 -94.5 22.5t-75.5 46.5l61 72q28 -25 66 -38t79 -13q47 0 72.5 16t25.5 45q0 28 -22 39t-68 11h-48v87h51q38 0 57 12t19 38q0 30 -25.5 45t-65.5 15q-47 0 -96 -19l-14 -67l-83 19l20 108q93 43 183 43
q85 0 135.5 -34.5t50.5 -94.5q0 -33 -21 -60t-58 -42q48 -10 74 -37.5t26 -72.5q0 -53 -40.5 -88z" />
    <glyph glyph-name="uni049A" unicode="&#x49a;" horiz-adv-x="692" 
d="M659 101v-276h-113l2 175h-186v101h70l-103 144h-88v-144h57v-101h-257v101h85v387h-85v101h257v-101h-57v-146h74l108 146h-50v101h260v-101h-93l-138 -175l155 -212h102z" />
    <glyph glyph-name="uni049B" unicode="&#x49b;" horiz-adv-x="623" 
d="M476 -143v143h-46l-122 175h-64v-84h33v-91h-231v91h84v266h-84v90h231v-90h-33v-92h76l63 92h-51v90h240v-90h-76l-96 -134l93 -132h85v-234h-102z" />
    <glyph glyph-name="uni049C" unicode="&#x49c;" horiz-adv-x="731" 
d="M586 101h101v-101h-296v101h69l-103 144h-3v-75h-57v75h-56v-144h57v-101h-257v101h85v387h-85v101h257v-101h-57v-146h56v88h57v-73l97 131h-49v101h260v-101h-93l-138 -175z" />
    <glyph glyph-name="uni049D" unicode="&#x49d;" horiz-adv-x="657" 
d="M528 91h84v-91h-147l-114 164v-70h-56v81h-51v-84h12v-91h-210v91h84v266h-84v90h210v-90h-12v-92h51v76h56v-76h4l62 92h-41v90h231v-90h-76l-96 -134z" />
    <glyph glyph-name="uni049E" unicode="&#x49e;" horiz-adv-x="692" 
d="M557 101h100v-101h-295v101h70l-103 144h-88v-144h57v-101h-257v101h85v290h-69v63h69v34h-85v101h257v-101h-57v-34h76v-63h-76v-49h74l108 146h-50v101h260v-101h-93l-138 -175z" />
    <glyph glyph-name="uni049F" unicode="&#x49f;" horiz-adv-x="623" 
d="M495 91h83v-91h-147l-122 175h-65v-84h34v-91h-232v91h84v378h-89v62h89v27l-96 29l29 92l181 -57v-91h117v-62h-117v-204h77l62 92h-51v90h241v-90h-76l-96 -134z" />
    <glyph glyph-name="uni04A0" unicode="&#x4a0;" horiz-adv-x="802" 
d="M667 101h100v-101h-295v101h70l-103 144h-88v-144h57v-101h-257v101h85v387h-103v-99h-103v200h378v-101h-57v-146h74l108 146h-50v101h260v-101h-93l-138 -175z" />
    <glyph glyph-name="uni04A1" unicode="&#x4a1;" horiz-adv-x="697" 
d="M576 91h83v-91h-148l-121 175h-65v-84h34v-91h-232v91h84v266h-107v-88h-83v178h338v-90h-34v-92h77l62 92h-51v90h241v-90h-76l-96 -134z" />
    <glyph glyph-name="uni04A2" unicode="&#x4a2;" horiz-adv-x="737" 
d="M696 101v-276h-113l2 175h-147v101h56v147h-252v-147h56v-101h-257v101h85l1 387h-85v101l258 -1v-100h-57l-1 -140h252l1 140h-58v101h258v-101h-84l-1 -387h86z" />
    <glyph glyph-name="uni04A3" unicode="&#x4a3;" horiz-adv-x="679" 
d="M635 91l-1 -234h-102v143h-141v91h43v87h-189v-87h43v-91h-242v91h85v266h-85v90h242v-90h-43v-88h189v88h-43v90h241v-90h-84v-266h87z" />
    <glyph glyph-name="uni04A4" unicode="&#x4a4;" horiz-adv-x="904" 
d="M838 589l53 -174l-96 -30l-33 103h-151l-1 -387h85v-101h-257v101h56v147h-252v-147h56v-101h-257v101h85l1 387h-85v101l258 -1v-100h-57l-1 -140h252l1 140h-58v101h401z" />
    <glyph glyph-name="uni04A5" unicode="&#x4a5;" horiz-adv-x="764" 
d="M631 357h-83v-266h84v-91h-241v91h43v87h-189v-87h43v-91h-242v91h85v266h-85v90h242v-90h-43v-88h189v88h-43v90h325l37 -161l-98 -23z" />
    <glyph glyph-name="uni04A8" unicode="&#x4a8;" horiz-adv-x="860" 
d="M840 89q-44 -50 -102.5 -75t-119.5 -25q-54 0 -98 17q-61 -24 -146 -24q-97 0 -171.5 35t-117 107t-42.5 179q-1 119 55 191.5t156 99.5l27 -74q-55 -20 -88.5 -76t-33.5 -145q0 -119 58.5 -172t167.5 -55q-119 91 -119 253q0 84 31 146.5t87 95.5t130 33q73 0 128 -34
t85 -96t30 -146q0 -168 -138 -254h9q43 0 80.5 24t75.5 69zM383 322q0 -89 29.5 -149t86.5 -84q69 25 105.5 84t36.5 146q0 91 -34 141t-94 50q-131 0 -130 -188z" />
    <glyph glyph-name="uni04A9" unicode="&#x4a9;" horiz-adv-x="707" 
d="M601 4q-37 -16 -92 -16q-43 0 -79 16q-51 -19 -111 -19q-128 0 -202 57.5t-74 184.5q0 67 25.5 115.5t62 77.5t73.5 41l31 -67q-36 -21 -58.5 -62t-22.5 -99q0 -81 42.5 -121t111.5 -47q-80 69 -80 183q0 107 53 162.5t145 55.5q90 0 141 -55.5t51 -164.5
q0 -58 -29 -105.5t-77 -74.5q29 0 54.5 14.5t50.5 41.5l56 -68q-35 -34 -72 -50zM343 243q0 -60 19 -102.5t55 -59.5q41 20 63.5 61.5t22.5 98.5q0 67 -20.5 99.5t-56.5 32.5q-83 0 -83 -130z" />
    <glyph glyph-name="uni04AA" unicode="&#x4aa;" horiz-adv-x="618" 
d="M473 188l97 -22l-30 -142q-5 -3 -24.5 -11.5t-54 -18t-76.5 -13.5v-156h-106l3 160q-109 18 -171 98t-62 215q0 96 37.5 166.5t105 107.5t157.5 37q56 0 99 -11.5t69 -24.5t26 -15l28 -141l-98 -22l-21 99q-8 4 -39.5 11t-62.5 7q-87 0 -134 -56t-47 -160
q0 -105 47.5 -162t133.5 -57q42 0 70.5 11.5t31.5 12.5z" />
    <glyph glyph-name="uni04AB" unicode="&#x4ab;" horiz-adv-x="502" 
d="M399 8.5q-31 -16.5 -67 -23.5l-1 -128h-102v128q-88 14 -136.5 74t-48.5 161q0 120 63.5 183.5t178.5 63.5q70 0 154 -29l25 -129l-96 -21l-14 81q-36 10 -68 10q-62 0 -94.5 -40t-32.5 -119q0 -68 35 -107.5t89 -39.5q68 0 137 49l46 -68q-37 -29 -68 -45.5z" />
    <glyph glyph-name="uni04AC" unicode="&#x4ac;" horiz-adv-x="600" 
d="M30 589h533v-200h-103v99h-105l-1 -387h100v-276h-113l2 175h-191v101h85l1 387h-105v-99h-103v200z" />
    <glyph glyph-name="uni04AD" unicode="&#x4ad;" horiz-adv-x="507" 
d="M487 269h-84v88h-92v-266h101l-1 -234h-102v143h-198v91h86v266h-93v-88h-83v178h466v-178z" />
    <glyph glyph-name="uni04AE" unicode="&#x4ae;" horiz-adv-x="663" 
d="M6 589h272v-101h-65l126 -170l125 170h-66v101h259v-101h-72l-193 -250v-138h94v-100h-303v100h95v137l-194 251h-78v101z" />
    <glyph glyph-name="uni04AF" unicode="&#x4af;" horiz-adv-x="595" 
d="M158 -220v90h84v118l-164 369h-73l-1 90h244v-90h-54l105 -280l36 96l70 184h-54v90h239v-90h-67l-167 -367v-120h84v-90h-282z" />
    <glyph glyph-name="uni04B0" unicode="&#x4b0;" horiz-adv-x="663" 
d="M398 589h259v-101h-72l-181 -235h95v-76h-107v-77h94v-100h-303v100h95v77h-106v76h94l-182 235h-78v101h272v-101h-65l126 -170l125 170h-66v101z" />
    <glyph glyph-name="uni04B1" unicode="&#x4b1;" horiz-adv-x="595" 
d="M351 447h239v-90h-67l-145 -319h85v-76h-107v-92h84v-90h-282v90h84v92h-106v76h84l-142 319h-73l-1 90h244v-90h-54l105 -280l36 96l70 184h-54v90z" />
    <glyph glyph-name="uni04B2" unicode="&#x4b2;" horiz-adv-x="699" 
d="M570 101h107v-276h-113l2 175h-178v99h59l-100 121l-101 -121h50v-99h-270v99h100l153 193l-162 196h-83v101h269v-101h-58l102 -123l103 123h-55v101h263v-101h-90l-153 -195z" />
    <glyph glyph-name="uni04B3" unicode="&#x4b3;" horiz-adv-x="620" 
d="M599 91l-1 -234h-102v143h-151v91h43l-80 80l-73 -80h40v-91h-243v91h86l123 138l-129 128h-80v90h247v-90h-36l72 -77l69 77h-37v90h230v-90h-76l-119 -136l133 -130h84z" />
    <glyph glyph-name="uni04B4" unicode="&#x4b4;" horiz-adv-x="864" 
d="M814 488h-85v-387h85v-276h-114l3 175h-535v101h85v387h-120v-99h-103v200h492v-200h-102v99h-51v-387h244v387h-57v101h258v-101z" />
    <glyph glyph-name="uni04B5" unicode="&#x4b5;" horiz-adv-x="728" 
d="M682 357h-88v-266h87v-234h-102v143h-473v91h87v266h-89v-88h-83v178h397v-178h-83v88h-29v-266h175v266h-41v90h242v-90z" />
    <glyph glyph-name="uni04B6" unicode="&#x4b6;" horiz-adv-x="707" 
d="M572 488v-387h85v-276h-113l2 175h-228v101h139v143q-58 -31 -120 -31q-101 0 -158.5 55.5t-57.5 159.5v60h-85v101h256v-101h-57v-60q0 -63 28.5 -92.5t91.5 -29.5t102 25v157h-57v101h257v-101h-85z" />
    <glyph glyph-name="uni04B7" unicode="&#x4b7;" horiz-adv-x="632" 
d="M587 -143h-102v143h-181v91h83v100q-56 -34 -132 -34q-89 0 -119 47.5t-28 119.5l1 32h-84v92h241v-92h-44v-13q0 -40 4.5 -61.5t20.5 -34t49 -12.5q51 0 91 25v96h-43v92h241v-92h-84v-265h87z" />
    <glyph glyph-name="uni04B8" unicode="&#x4b8;" horiz-adv-x="707" 
d="M572 488v-387h85v-101h-339v101h139v143q-37 -20 -79 -28v-80h-58v77q-94 5 -146.5 60.5t-52.5 154.5v60h-85v101h256v-101h-57v-60q0 -54 20.5 -83t64.5 -36v87h58v-89q47 4 79 24v157h-57v101h257v-101h-85z" />
    <glyph glyph-name="uni04B9" unicode="&#x4b9;" horiz-adv-x="632" 
d="M501 356v-265h84v-91h-220v91h22v81q-23 -14 -48 -22v-80h-56v69q-8 -1 -25 -1q-150 0 -150 173l1 45h-84v91h236v-91h-40v-45q0 -44 14.5 -67t47.5 -27v100h56v-96q26 6 48 20v115h-14v91h212v-91h-84z" />
    <glyph glyph-name="uni04BA" unicode="&#x4ba;" horiz-adv-x="696" 
d="M342 488h-94v-143q56 31 119 31q101 0 159.5 -56t58.5 -159v-60h83v-101h-257v101h58v60q0 63 -28.5 92.5t-91.5 29.5q-62 0 -101 -25v-157h56v-101h-258v101h86v387h-85v101h295v-101z" />
    <glyph glyph-name="uni04BB" unicode="&#x4bb;" horiz-adv-x="638" 
d="M22 91h83v457l-95 32l30 91l179 -61v-182q30 18 68 28t76 10q81 0 124 -47t43 -136v-192h84v-91h-240v91h42v176q0 54 -21 78.5t-67 24.5q-23 0 -53 -7.5t-55 -18.5v-253h41v-91h-239v91z" />
    <glyph glyph-name="uni04BC" unicode="&#x4bc;" horiz-adv-x="734" 
d="M690 267l-433 -1q2 -59 27 -102t66.5 -66t91.5 -23q56 0 94.5 18.5t78.5 60.5l55 -69q-89 -104 -234 -104q-83 0 -146 36t-99.5 102.5t-40.5 155.5q-68 11 -111 54.5t-39 114.5h89q-3 -36 13.5 -60t49.5 -34q9 77 47 135.5t97.5 90.5t132.5 32q127 0 194.5 -78t67.5 -216
q0 -31 -1 -47zM585 345q-1 76 -39 121t-111 45q-75 0 -121.5 -44t-54.5 -122h326z" />
    <glyph glyph-name="uni04BD" unicode="&#x4bd;" horiz-adv-x="599" 
d="M567 185h-344q4 -56 43.5 -85t96.5 -29q83 0 149 52l40 -68q-87 -74 -189 -74q-105 0 -171.5 57.5t-76.5 152.5q-51 8 -87 47t-36 101q0 12 1 18h80q-1 -7 -1 -21q0 -30 12 -47t32 -23q13 91 74.5 145.5t154.5 54.5q68 0 119.5 -28t79.5 -79t28 -118q0 -26 -5 -56z
M459 263q-1 50 -31 80.5t-80 30.5q-49 0 -84 -31t-39 -80h234z" />
    <glyph glyph-name="uni04BE" unicode="&#x4be;" horiz-adv-x="734" 
d="M690 267l-433 -1q2 -59 27 -102t66.5 -66t91.5 -23q56 0 94.5 18.5t78.5 60.5l55 -69q-75 -88 -192 -102l9 -140h-113l11 142q-104 16 -166.5 92.5t-68.5 197.5q-68 11 -111 54.5t-39 114.5h89q-3 -36 13.5 -60t49.5 -34q9 77 47 135.5t97.5 90.5t132.5 32
q127 0 194.5 -78t67.5 -216q0 -31 -1 -47zM585 345q-1 76 -39 121t-111 45q-75 0 -121.5 -44t-54.5 -122h326z" />
    <glyph glyph-name="uni04BF" unicode="&#x4bf;" horiz-adv-x="599" 
d="M567 185h-344q4 -56 43.5 -85t96.5 -29q83 0 149 52l40 -68q-76 -64 -161 -73l9 -125h-103l9 129q-82 15 -132.5 69.5t-58.5 135.5q-51 8 -87 47t-36 101q0 12 1 18h80q-1 -7 -1 -21q0 -30 12 -47t32 -23q13 91 74.5 145.5t154.5 54.5q68 0 119.5 -28t79.5 -79t28 -118
q0 -26 -5 -56zM459 263q-1 50 -31 80.5t-80 30.5q-49 0 -84 -31t-39 -80h234z" />
    <glyph glyph-name="uni04C0" unicode="&#x4c0;" horiz-adv-x="389" 
d="M42 589h306v-101h-95v-387h95v-101h-307v101h97v387h-96v101z" />
    <glyph glyph-name="uni04C1" unicode="&#x4c1;" horiz-adv-x="1003" 
d="M54 589h268v-101h-57l100 -143h79v143h-68v101h252v-101h-69v-143h79l101 143h-57v101h267v-101h-83l-133 -181l136 -206h86v-101h-273v101h52l-91 144h-84v-144h69v-101h-252v101h68v144h-84l-91 -144h53v-101h-274v101h86l136 206l-131 181h-85v101zM375.5 677
q-49.5 32 -65.5 93l90 12q9 -33 35.5 -51t66.5 -18q41 0 67.5 18t35.5 51l90 -12q-16 -61 -66 -93t-127 -32t-126.5 32z" />
    <glyph glyph-name="uni04C2" unicode="&#x4c2;" horiz-adv-x="835" 
d="M32 0v91h83l94 132l-97 134h-75v90h241v-90h-65l69 -99h80v98h-48v91h202v-91h-48v-98h79l68 99h-63v90h240v-90h-76l-96 -134l94 -132h84v-91h-140l-122 179h-68v-88h48v-91h-202v91h48v88h-68l-120 -179h-142zM296 555q-45 39 -54 101l78 11q3 -35 26.5 -55.5
t68.5 -20.5q46 0 70.5 20.5t26.5 55.5l78 -11q-9 -62 -54.5 -101t-120.5 -39q-74 0 -119 39z" />
    <glyph glyph-name="uni04C3" unicode="&#x4c3;" horiz-adv-x="692" 
d="M350 -206l29 92q35 -13 67 -13q77 0 77 68q0 33 -22.5 73.5t-66.5 96.5l-106 134h-87v-144h57v-101h-257v101h85v387h-85v101h257v-101h-57v-146h74l108 146h-50v101h260v-101h-93l-138 -175l135 -166q108 -130 108 -223q0 -69 -46.5 -112t-131.5 -43q-57 0 -117 25z" />
    <glyph glyph-name="uni04C4" unicode="&#x4c4;" horiz-adv-x="583" 
d="M313 -177l28 82q34 -14 60 -14q30 0 46.5 17t16.5 44q0 41 -35 83l-121 140h-64v-84h34v-91h-232v91h84v266h-84v90h232v-90h-34v-92h77l62 92h-51v90h241v-90h-76l-96 -134l99 -113q72 -82 72 -171q0 -64 -39.5 -105t-110.5 -41q-52 0 -109 30z" />
    <glyph glyph-name="uni04C5" unicode="&#x4c5;" horiz-adv-x="708" 
d="M675 0l-77 -175h-95l59 175h-179v101h64v388h-143l-18 -226q-10 -136 -55.5 -207.5t-150.5 -72.5q-13 0 -40 2v108q57 0 87 17t43 58t19 122l14 199h-90v101h546v-101h-96v-388h112v-101z" />
    <glyph glyph-name="uni04C6" unicode="&#x4c6;" horiz-adv-x="629" 
d="M596 0l-60 -143h-89l51 143h-157v91h41v266h-111l-8 -118q-9 -122 -54.5 -185.5t-140.5 -63.5q-9 0 -33 2v92q7 -1 19 -1q43 0 66 20t33.5 58.5t14.5 103.5l6 92h-83v91h490v-91h-86v-266h101v-91z" />
    <glyph glyph-name="uni04C7" unicode="&#x4c7;" horiz-adv-x="737" 
d="M695 589v-101h-84l-1 -488q0 -115 -55.5 -175.5t-146.5 -60.5q-57 0 -116 25l29 98q39 -13 67 -13q49 0 77.5 33t28.5 93v248h-252v-147h56v-101h-257v101h85l1 387h-85v101l258 -1v-100h-57l-1 -140h252l1 140h-58v101h258z" />
    <glyph glyph-name="uni04C8" unicode="&#x4c8;" horiz-adv-x="678" 
d="M547 357v-357h1q0 -114 -44 -174.5t-119 -60.5q-53 0 -111 29l28 82q36 -15 60 -15q38 0 55 33t17 106v178h-189v-87h43v-91h-242v91h85v266h-85v90h242v-90h-43v-88h189v88h-43v90h241v-90h-85z" />
    <glyph glyph-name="uni04C9" unicode="&#x4c9;" horiz-adv-x="737" 
d="M703 101v-101l-77 -175h-95l59 175h-152v101h56v147h-252v-147h56v-101h-257v101h85l1 387h-85v101l258 -1v-100h-57l-1 -140h252l1 140h-58v101h258v-101h-84l-1 -387h93z" />
    <glyph glyph-name="uni04CA" unicode="&#x4ca;" horiz-adv-x="679" 
d="M635 91v-91l-60 -143h-89l51 143h-146v91h43v87h-189v-87h43v-91h-242v91h85v266h-85v90h242v-90h-43v-88h189v88h-43v90h241v-90h-84v-266h87z" />
    <glyph glyph-name="uni04CB" unicode="&#x4cb;" horiz-adv-x="712" 
d="M575 488v-387h85v-101h-239l3 -175h-114v276h150v143q-58 -31 -120 -31q-101 0 -158.5 55.5t-57.5 159.5v60h-85v101h256v-101h-57v-60q0 -63 28.5 -92.5t91.5 -29.5t102 25v157h-57v101h257v-101h-85z" />
    <glyph glyph-name="uni04CC" unicode="&#x4cc;" horiz-adv-x="632" 
d="M501 356v-265h84v-91h-186v-143h-102l-1 234h91v100q-56 -34 -132 -34q-89 0 -119 47.5t-28 119.5l1 32h-84v92h241v-92h-44v-13q0 -40 4.5 -61.5t20.5 -34t49 -12.5q51 0 91 25v96h-43v92h241v-92h-84z" />
    <glyph glyph-name="uni04CD" unicode="&#x4cd;" horiz-adv-x="869" 
d="M835 101v-101l-77 -175h-95l59 175h-159v101h64v406l-40 -134l-106 -302h-85l-122 314l-40 115l-1 -399h66v-101h-258v101h85v387h-84v101h264l134 -365l121 365h267v-101h-85v-387h92z" />
    <glyph glyph-name="uni04CE" unicode="&#x4ce;" horiz-adv-x="834" 
d="M791 91v-91l-60 -143h-89l51 143h-142v91h44v282l-134 -316h-81l-140 299v-265h43v-91h-237v91h85v266h-85v91h252l123 -271l116 271h251v-91h-84v-266h87z" />
    <glyph glyph-name="uni04CF" unicode="&#x4cf;" horiz-adv-x="335" 
d="M29 0v91h84v460l-96 29l28 92l182 -57v-524h84v-91h-282z" />
    <glyph glyph-name="uni04D0" unicode="&#x4d0;" horiz-adv-x="680" 
d="M6 0v101h99l151 387h-84v101h227l184 -488h90v-101h-259v101h53l-31 86h-199l-31 -86h58v-101h-258zM266 266h143l-70 209zM196.5 677q-49.5 32 -65.5 93l90 12q9 -33 35.5 -51t66.5 -18q41 0 67.5 18t35.5 51l90 -12q-16 -61 -66 -93t-127 -32t-126.5 32z" />
    <glyph glyph-name="uni04D1" unicode="&#x4d1;" horiz-adv-x="551" 
d="M227 -19q-93 0 -141.5 36.5t-48.5 106.5q0 68 46.5 102.5t136.5 34.5h112q0 58 -24 88t-66 30t-80 -12l-9 -49l-94 13l18 106q81 29 168 29q98 0 149.5 -52t51.5 -151v-166l84 -27l-31 -94l-129 44q-72 -39 -143 -39zM171 170.5q-18 -16.5 -18 -47.5q0 -57 78 -57
q55 0 101 29v91l-109 1q-34 0 -52 -16.5zM118 555q-45 39 -54 101l78 11q3 -35 26.5 -55.5t68.5 -20.5q46 0 70.5 20.5t26.5 55.5l78 -11q-9 -62 -54.5 -101t-120.5 -39q-74 0 -119 39z" />
    <glyph glyph-name="uni04D2" unicode="&#x4d2;" horiz-adv-x="680" 
d="M6 0v101h99l151 387h-84v101h227l184 -488h90v-101h-259v101h53l-31 86h-199l-31 -86h58v-101h-258zM266 266h143l-70 209zM275.5 779.5q20.5 -20.5 20.5 -48.5t-20.5 -48t-47.5 -20q-28 0 -48.5 20t-20.5 48t20.5 48.5t48.5 20.5q27 0 47.5 -20.5zM466.5 779.5
q20.5 -20.5 20.5 -48.5t-20.5 -48t-47.5 -20q-28 0 -48.5 20t-20.5 48t20.5 48.5t48.5 20.5q27 0 47.5 -20.5z" />
    <glyph glyph-name="uni04D3" unicode="&#x4d3;" horiz-adv-x="551" 
d="M227 -19q-93 0 -141.5 36.5t-48.5 106.5q0 68 46.5 102.5t136.5 34.5h112q0 58 -24 88t-66 30t-80 -12l-9 -49l-94 13l18 106q81 29 168 29q98 0 149.5 -52t51.5 -151v-166l84 -27l-31 -94l-129 44q-72 -39 -143 -39zM171 170.5q-18 -16.5 -18 -47.5q0 -57 78 -57
q55 0 101 29v91l-109 1q-34 0 -52 -16.5zM189.5 637.5q20.5 -20.5 20.5 -48.5t-20.5 -48t-47.5 -20q-28 0 -48.5 20t-20.5 48t20.5 48.5t48.5 20.5q27 0 47.5 -20.5zM380.5 637.5q20.5 -20.5 20.5 -48.5t-20.5 -48t-47.5 -20q-28 0 -48.5 20t-20.5 48t20.5 48.5t48.5 20.5
q27 0 47.5 -20.5z" />
    <glyph glyph-name="uni04D4" unicode="&#x4d4;" horiz-adv-x="939" 
d="M28 0v101h95l239 387h-94v101h557l60 -177l-96 -32l-37 108h-172v-141h162v-99h-162v-147h196l37 100l95 -33l-58 -168h-472v101h86v71h-186l-43 -71h53v-101h-260zM336 272h128v216z" />
    <glyph glyph-name="uni04D5" unicode="&#x4d5;" horiz-adv-x="801" 
d="M154 450q37 8 81 8q67 0 108.5 -24t56.5 -65q32 43 76 66t93 23q55 0 98 -28t66.5 -77t23.5 -110q0 -23 -5 -55l-311 -1q7 -55 40.5 -86t85.5 -31q84 0 147 47l49 -64q-2 -5 -26.5 -23t-68.5 -34t-102 -16q-52 0 -92.5 13t-72.5 43q-31 -21 -81.5 -38.5t-91.5 -17.5
q-89 0 -140 38t-51 104q0 75 51 110.5t133 35.5h119q0 46 -20 68.5t-81 22.5q-25 0 -77 -8l-8 -50l-96 18l19 107q40 16 77 24zM636 340.5q-24 24.5 -74 24.5q-47 0 -78 -24.5t-41 -69.5l218 1q-1 44 -25 68.5zM153 123q0 -26 22.5 -39t56.5 -13q30 0 67 11.5t58 24.5
q-15 39 -18 77h-115q-71 0 -71 -61z" />
    <glyph glyph-name="uni04D6" unicode="&#x4d6;" horiz-adv-x="609" 
d="M42 589h454l59 -177l-95 -32l-38 108h-179v-138h170v-100h-170v-149h204l37 100l94 -33l-58 -168h-479v101h85l1 387h-85v101zM173.5 677q-49.5 32 -65.5 93l90 12q9 -33 35.5 -51t66.5 -18q41 0 67.5 18t35.5 51l90 -12q-16 -61 -66 -93t-127 -32t-126.5 32z" />
    <glyph glyph-name="uni04D7" unicode="&#x4d7;" horiz-adv-x="521" 
d="M285 -19q-75 0 -131.5 30.5t-87.5 85t-31 125.5q0 72 29 127.5t82 86t121 30.5t119.5 -28t79.5 -79t28 -118q0 -26 -5 -56h-344q4 -56 43.5 -85t96.5 -29q83 0 149 52l40 -68q-87 -74 -189 -74zM350 343.5q-30 30.5 -80 30.5q-49 0 -84 -31t-39 -80h234q-1 50 -31 80.5z
M152 555q-45 39 -54 101l78 11q3 -35 26.5 -55.5t68.5 -20.5q46 0 70.5 20.5t26.5 55.5l78 -11q-9 -62 -54.5 -101t-120.5 -39q-74 0 -119 39z" />
    <glyph glyph-name="uni04D8" unicode="&#x4d8;" horiz-adv-x="632" 
d="M77 552q46 29 102.5 43.5t115.5 14.5q83 0 150.5 -39t106 -112t38.5 -171q0 -96 -38.5 -166.5t-102.5 -107t-138 -36.5t-135 34.5t-97 101.5t-36 161q0 33 1 51h433q-2 58 -28.5 101t-70 65.5t-96.5 22.5q-55 0 -114 -27l-19 -79l-98 22zM195 119.5q40 -43.5 111 -43.5
q69 0 116 43t53 122h-319q-1 -78 39 -121.5z" />
    <glyph glyph-name="uni04D9" unicode="&#x4d9;" horiz-adv-x="531" 
d="M148 8.5q-49 27.5 -76 77.5t-27 116q0 31 5 53h321q-4 62 -39.5 95t-89.5 33q-49 0 -100 -22l-13 -56l-82 18l18 96q88 47 183 47q68 0 122.5 -28t86.5 -82.5t32 -130.5q0 -72 -28.5 -127.5t-80.5 -86t-120 -30.5q-63 0 -112 27.5zM337 99.5q27 32.5 31 87.5h-215
q0 -55 26.5 -87.5t78.5 -32.5t79 32.5z" />
    <glyph glyph-name="uni04DA" unicode="&#x4da;" horiz-adv-x="632" 
d="M77 552q46 29 102.5 43.5t115.5 14.5q83 0 150.5 -39t106 -112t38.5 -171q0 -96 -38.5 -166.5t-102.5 -107t-138 -36.5t-135 34.5t-97 101.5t-36 161q0 33 1 51h433q-2 58 -28.5 101t-70 65.5t-96.5 22.5q-55 0 -114 -27l-19 -79l-98 22zM195 119.5q40 -43.5 111 -43.5
q69 0 116 43t53 122h-319q-1 -78 39 -121.5zM259.5 779.5q20.5 -20.5 20.5 -48.5t-20.5 -48t-47.5 -20q-28 0 -48.5 20t-20.5 48t20.5 48.5t48.5 20.5q27 0 47.5 -20.5zM450.5 779.5q20.5 -20.5 20.5 -48.5t-20.5 -48t-47.5 -20q-28 0 -48.5 20t-20.5 48t20.5 48.5
t48.5 20.5q27 0 47.5 -20.5z" />
    <glyph glyph-name="uni04DB" unicode="&#x4db;" horiz-adv-x="531" 
d="M148 8.5q-49 27.5 -76 77.5t-27 116q0 31 5 53h321q-4 62 -39.5 95t-89.5 33q-49 0 -100 -22l-13 -56l-82 18l18 96q88 47 183 47q68 0 122.5 -28t86.5 -82.5t32 -130.5q0 -72 -28.5 -127.5t-80.5 -86t-120 -30.5q-63 0 -112 27.5zM337 99.5q27 32.5 31 87.5h-215
q0 -55 26.5 -87.5t78.5 -32.5t79 32.5zM199.5 637.5q20.5 -20.5 20.5 -48.5t-20.5 -48t-47.5 -20q-28 0 -48.5 20t-20.5 48t20.5 48.5t48.5 20.5q27 0 47.5 -20.5zM390.5 637.5q20.5 -20.5 20.5 -48.5t-20.5 -48t-47.5 -20q-28 0 -48.5 20t-20.5 48t20.5 48.5t48.5 20.5
q27 0 47.5 -20.5z" />
    <glyph glyph-name="uni04DC" unicode="&#x4dc;" horiz-adv-x="1003" 
d="M54 589h268v-101h-57l100 -143h79v143h-68v101h252v-101h-69v-143h79l101 143h-57v101h267v-101h-83l-133 -181l136 -206h86v-101h-273v101h52l-91 144h-84v-144h69v-101h-252v101h68v144h-84l-91 -144h53v-101h-274v101h86l136 206l-131 181h-85v101zM454.5 779.5
q20.5 -20.5 20.5 -48.5t-20.5 -48t-47.5 -20q-28 0 -48.5 20t-20.5 48t20.5 48.5t48.5 20.5q27 0 47.5 -20.5zM645.5 779.5q20.5 -20.5 20.5 -48.5t-20.5 -48t-47.5 -20q-28 0 -48.5 20t-20.5 48t20.5 48.5t48.5 20.5q27 0 47.5 -20.5z" />
    <glyph glyph-name="uni04DD" unicode="&#x4dd;" horiz-adv-x="835" 
d="M32 0v91h83l94 132l-97 134h-75v90h241v-90h-65l69 -99h80v98h-48v91h202v-91h-48v-98h79l68 99h-63v90h240v-90h-76l-96 -134l94 -132h84v-91h-140l-122 179h-68v-88h48v-91h-202v91h48v88h-68l-120 -179h-142zM367.5 637.5q20.5 -20.5 20.5 -48.5t-20.5 -48t-47.5 -20
q-28 0 -48.5 20t-20.5 48t20.5 48.5t48.5 20.5q27 0 47.5 -20.5zM558.5 637.5q20.5 -20.5 20.5 -48.5t-20.5 -48t-47.5 -20q-28 0 -48.5 20t-20.5 48t20.5 48.5t48.5 20.5q27 0 47.5 -20.5z" />
    <glyph glyph-name="uni04DE" unicode="&#x4de;" horiz-adv-x="561" 
d="M180.5 596q52.5 12 102.5 12q98 0 160 -45t62 -129q0 -98 -103 -130q124 -28 124 -139q0 -88 -69 -136.5t-177 -48.5q-61 0 -115.5 18t-96.5 54l-26 107l98 25l20 -71q26 -20 54 -29t69 -9q57 0 90.5 23.5t33.5 69.5q0 39 -26 62t-76 23h-92v92h90q42 0 63 22.5t21 63.5
q0 40 -31 61t-80 21q-53 0 -102 -22l-20 -69l-98 23l26 115q46 24 98.5 36zM232.5 779.5q20.5 -20.5 20.5 -48.5t-20.5 -48t-47.5 -20q-28 0 -48.5 20t-20.5 48t20.5 48.5t48.5 20.5q27 0 47.5 -20.5zM423.5 779.5q20.5 -20.5 20.5 -48.5t-20.5 -48t-47.5 -20
q-28 0 -48.5 20t-20.5 48t20.5 48.5t48.5 20.5q27 0 47.5 -20.5z" />
    <glyph glyph-name="uni04DF" unicode="&#x4df;" horiz-adv-x="470" 
d="M112 -1.5q-54 18.5 -91 52.5l61 72q28 -25 66 -38t79 -13q47 0 72.5 16t25.5 45q0 28 -22 39t-68 11h-48v87h51q38 0 57 12t19 38q0 30 -25.5 45t-65.5 15q-47 0 -96 -19l-14 -67l-83 19l20 108q93 43 183 43q85 0 135.5 -34.5t50.5 -94.5q0 -33 -21 -60t-58 -42
q48 -10 74 -37.5t26 -72.5t-29.5 -77t-78.5 -49t-105 -17q-61 0 -115 18.5zM179.5 637.5q20.5 -20.5 20.5 -48.5t-20.5 -48t-47.5 -20q-28 0 -48.5 20t-20.5 48t20.5 48.5t48.5 20.5q27 0 47.5 -20.5zM370.5 637.5q20.5 -20.5 20.5 -48.5t-20.5 -48t-47.5 -20
q-28 0 -48.5 20t-20.5 48t20.5 48.5t48.5 20.5q27 0 47.5 -20.5z" />
    <glyph glyph-name="uni04E0" unicode="&#x4e0;" horiz-adv-x="572" 
d="M71 52l-27 107l96 25l20 -71q49 -39 125 -39q55 0 89.5 24.5t34.5 68.5q0 45 -29.5 68t-86.5 23h-81v84l145 146h-196l-19 -88l-93 14l30 175h426v-73l-180 -176q202 -13 202 -172q0 -90 -65.5 -139t-174.5 -49q-137 0 -216 72z" />
    <glyph glyph-name="uni04E1" unicode="&#x4e1;" horiz-adv-x="491" 
d="M119.5 -215q-52.5 18 -89.5 51l61 74q58 -50 131 -50q59 0 91 31t32 84q0 50 -29 79.5t-85 29.5h-84v90l162 183h-190l-12 -59l-93 21l26 128h387v-80l-185 -201q105 0 155 -51.5t50 -133.5q0 -70 -29 -118t-79 -72t-111 -24q-56 0 -108.5 18z" />
    <glyph glyph-name="uni04E2" unicode="&#x4e2;" horiz-adv-x="753" 
d="M42 589l257 -1v-100h-56l-1 -340l269 441h200v-101h-85v-387h85v-101h-256v101h56v340l-269 -441h-201v101h86v387h-85v101zM220 760h334v-76h-334v76z" />
    <glyph glyph-name="uni04E3" unicode="&#x4e3;" horiz-adv-x="669" 
d="M46 448h237v-91h-43v-222l189 312l194 1v-91h-85v-266h85v-91h-237v91h43v226l-189 -317h-194v91h85v266h-85v91zM177 618h334v-76h-334v76z" />
    <glyph glyph-name="uni04E4" unicode="&#x4e4;" horiz-adv-x="753" 
d="M42 589l257 -1v-100h-56l-1 -340l269 441h200v-101h-85v-387h85v-101h-256v101h56v340l-269 -441h-201v101h86v387h-85v101zM339.5 779.5q20.5 -20.5 20.5 -48.5t-20.5 -48t-47.5 -20q-28 0 -48.5 20t-20.5 48t20.5 48.5t48.5 20.5q27 0 47.5 -20.5zM530.5 779.5
q20.5 -20.5 20.5 -48.5t-20.5 -48t-47.5 -20q-28 0 -48.5 20t-20.5 48t20.5 48.5t48.5 20.5q27 0 47.5 -20.5z" />
    <glyph glyph-name="uni04E5" unicode="&#x4e5;" horiz-adv-x="669" 
d="M46 448h237v-91h-43v-222l189 312l194 1v-91h-85v-266h85v-91h-237v91h43v226l-189 -317h-194v91h85v266h-85v91zM296.5 637.5q20.5 -20.5 20.5 -48.5t-20.5 -48t-47.5 -20q-28 0 -48.5 20t-20.5 48t20.5 48.5t48.5 20.5q27 0 47.5 -20.5zM487.5 637.5
q20.5 -20.5 20.5 -48.5t-20.5 -48t-47.5 -20q-28 0 -48.5 20t-20.5 48t20.5 48.5t48.5 20.5q27 0 47.5 -20.5z" />
    <glyph glyph-name="uni04E6" unicode="&#x4e6;" horiz-adv-x="668" 
d="M486 572q66 -37 103 -108t37 -169t-36.5 -169t-102.5 -108.5t-153 -37.5q-86 0 -152 37.5t-102.5 108.5t-36.5 169t36.5 169t102 108t151.5 37q87 0 153 -37zM206.5 456q-43.5 -55 -43.5 -161t43.5 -161.5t127.5 -55.5t128 55.5t44 161.5t-43.5 161t-128.5 55
q-84 0 -127.5 -55zM285.5 779.5q20.5 -20.5 20.5 -48.5t-20.5 -48t-47.5 -20q-28 0 -48.5 20t-20.5 48t20.5 48.5t48.5 20.5q27 0 47.5 -20.5zM476.5 779.5q20.5 -20.5 20.5 -48.5t-20.5 -48t-47.5 -20q-28 0 -48.5 20t-20.5 48t20.5 48.5t48.5 20.5q27 0 47.5 -20.5z" />
    <glyph glyph-name="uni04E7" unicode="&#x4e7;" horiz-adv-x="555" 
d="M450.5 401.5q62.5 -64.5 62.5 -178.5t-62.5 -178t-174.5 -64q-110 0 -171.5 64t-61.5 178t61.5 178.5t171.5 64.5q112 0 174.5 -64.5zM186 334.5q-31 -38.5 -31 -111.5q0 -74 31 -112.5t91 -38.5q61 0 92 38.5t31 112.5q0 73 -31.5 111.5t-91.5 38.5t-91 -38.5z
M223.5 637.5q20.5 -20.5 20.5 -48.5t-20.5 -48t-47.5 -20q-28 0 -48.5 20t-20.5 48t20.5 48.5t48.5 20.5q27 0 47.5 -20.5zM414.5 637.5q20.5 -20.5 20.5 -48.5t-20.5 -48t-47.5 -20q-28 0 -48.5 20t-20.5 48t20.5 48.5t48.5 20.5q27 0 47.5 -20.5z" />
    <glyph glyph-name="uni04E8" unicode="&#x4e8;" horiz-adv-x="668" 
d="M486 572q66 -37 103 -108t37 -169t-36.5 -169t-102.5 -108.5t-153 -37.5q-86 0 -152 37.5t-102.5 108.5t-36.5 169t36.5 169t102 108t151.5 37q87 0 153 -37zM217 467.5q-43 -43.5 -52 -127.5h339q-9 84 -52 127.5t-118 43.5q-74 0 -117 -43.5zM453.5 123.5
q43.5 45.5 50.5 133.5h-339q8 -88 50.5 -133.5t118.5 -45.5t119.5 45.5z" />
    <glyph glyph-name="uni04E9" unicode="&#x4e9;" horiz-adv-x="555" 
d="M450.5 401.5q62.5 -64.5 62.5 -178.5t-62.5 -178t-174.5 -64q-110 0 -171.5 64t-61.5 178t61.5 178.5t171.5 64.5q112 0 174.5 -64.5zM196 344.5q-30 -28.5 -38 -82.5h239q-8 54 -38 82.5t-82 28.5q-51 0 -81 -28.5zM359.5 101q30.5 29 38.5 85h-241q8 -56 38 -85t82 -29
t82.5 29z" />
    <glyph glyph-name="uni04EA" unicode="&#x4ea;" horiz-adv-x="668" 
d="M486 572q66 -37 103 -108t37 -169t-36.5 -169t-102.5 -108.5t-153 -37.5q-86 0 -152 37.5t-102.5 108.5t-36.5 169t36.5 169t102 108t151.5 37q87 0 153 -37zM217 467.5q-43 -43.5 -52 -127.5h339q-9 84 -52 127.5t-118 43.5q-74 0 -117 -43.5zM453.5 123.5
q43.5 45.5 50.5 133.5h-339q8 -88 50.5 -133.5t118.5 -45.5t119.5 45.5zM285.5 779.5q20.5 -20.5 20.5 -48.5t-20.5 -48t-47.5 -20q-28 0 -48.5 20t-20.5 48t20.5 48.5t48.5 20.5q27 0 47.5 -20.5zM476.5 779.5q20.5 -20.5 20.5 -48.5t-20.5 -48t-47.5 -20q-28 0 -48.5 20
t-20.5 48t20.5 48.5t48.5 20.5q27 0 47.5 -20.5z" />
    <glyph glyph-name="uni04EB" unicode="&#x4eb;" horiz-adv-x="555" 
d="M450.5 401.5q62.5 -64.5 62.5 -178.5t-62.5 -178t-174.5 -64q-110 0 -171.5 64t-61.5 178t61.5 178.5t171.5 64.5q112 0 174.5 -64.5zM196 344.5q-30 -28.5 -38 -82.5h239q-8 54 -38 82.5t-82 28.5q-51 0 -81 -28.5zM359.5 101q30.5 29 38.5 85h-241q8 -56 38 -85t82 -29
t82.5 29zM223.5 637.5q20.5 -20.5 20.5 -48.5t-20.5 -48t-47.5 -20q-28 0 -48.5 20t-20.5 48t20.5 48.5t48.5 20.5q27 0 47.5 -20.5zM414.5 637.5q20.5 -20.5 20.5 -48.5t-20.5 -48t-47.5 -20q-28 0 -48.5 20t-20.5 48t20.5 48.5t48.5 20.5q27 0 47.5 -20.5z" />
    <glyph glyph-name="uni04EC" unicode="&#x4ec;" horiz-adv-x="615" 
d="M174.5 -10q-43.5 10 -71.5 21.5t-28 12.5l-28 124l98 23l18 -69q58 -25 107 -25q77 0 123 45t55 130l-119 -7h-111v99h111l120 -7q-9 85 -54.5 130t-124.5 45q-33 0 -66.5 -7t-40.5 -12l-18 -84l-98 22l24 127q89 51 202 51q90 0 157.5 -37.5t104.5 -108.5t37 -167
q0 -155 -81.5 -235.5t-220.5 -80.5q-52 0 -95.5 10zM246.5 779.5q20.5 -20.5 20.5 -48.5t-20.5 -48t-47.5 -20q-28 0 -48.5 20t-20.5 48t20.5 48.5t48.5 20.5q27 0 47.5 -20.5zM437.5 779.5q20.5 -20.5 20.5 -48.5t-20.5 -48t-47.5 -20q-28 0 -48.5 20t-20.5 48t20.5 48.5
t48.5 20.5q27 0 47.5 -20.5z" />
    <glyph glyph-name="uni04ED" unicode="&#x4ed;" horiz-adv-x="499" 
d="M303.5 342.5q-30.5 30.5 -83.5 30.5q-40 0 -69 -9l-15 -75l-95 21l26 129q26 12 69.5 19.5t86.5 7.5q109 0 171.5 -66t62.5 -180q0 -111 -63 -175t-173 -64q-94 0 -185 48l33 78q67 -35 151 -35q51 0 81 28.5t38 82.5l-60 -7h-92v82h91l61 -7q-5 61 -35.5 91.5z
M181.5 637.5q20.5 -20.5 20.5 -48.5t-20.5 -48t-47.5 -20q-28 0 -48.5 20t-20.5 48t20.5 48.5t48.5 20.5q27 0 47.5 -20.5zM372.5 637.5q20.5 -20.5 20.5 -48.5t-20.5 -48t-47.5 -20q-28 0 -48.5 20t-20.5 48t20.5 48.5t48.5 20.5q27 0 47.5 -20.5z" />
    <glyph glyph-name="uni04EE" unicode="&#x4ee;" horiz-adv-x="650" 
d="M186.5 -16.5q-26.5 4.5 -69.5 16.5l29 99q48 -20 91 -20q23 0 35 11.5t25 44.5l-201 353h-91v101h271v-101h-55l125 -231l86 231h-60v102h272v-102h-100l-154 -382q-27 -68 -59 -97.5t-90 -29.5q-28 0 -54.5 4.5zM163 760h334v-76h-334v76z" />
    <glyph glyph-name="uni04EF" unicode="&#x4ef;" horiz-adv-x="597" 
d="M592 447v-90h-77l-184 -433q-37 -88 -80 -127t-101 -39q-43 0 -88 19l21 88q20 -7 34 -10.5t30 -3.5q24 0 40.5 11.5t31 38t35.5 79.5l-176 377h-73v90h244v-90h-55l108 -256l102 256h-52l5 90h235zM152 618h334v-76h-334v76z" />
    <glyph glyph-name="uni04F0" unicode="&#x4f0;" horiz-adv-x="650" 
d="M186.5 -16.5q-26.5 4.5 -69.5 16.5l29 99q48 -20 91 -20q23 0 35 11.5t25 44.5l-201 353h-91v101h271v-101h-55l125 -231l86 231h-60v102h272v-102h-100l-154 -382q-27 -68 -59 -97.5t-90 -29.5q-28 0 -54.5 4.5zM282.5 779.5q20.5 -20.5 20.5 -48.5t-20.5 -48t-47.5 -20
q-28 0 -48.5 20t-20.5 48t20.5 48.5t48.5 20.5q27 0 47.5 -20.5zM473.5 779.5q20.5 -20.5 20.5 -48.5t-20.5 -48t-47.5 -20q-28 0 -48.5 20t-20.5 48t20.5 48.5t48.5 20.5q27 0 47.5 -20.5z" />
    <glyph glyph-name="uni04F1" unicode="&#x4f1;" horiz-adv-x="597" 
d="M592 447v-90h-77l-184 -433q-37 -88 -80 -127t-101 -39q-43 0 -88 19l21 88q20 -7 34 -10.5t30 -3.5q24 0 40.5 11.5t31 38t35.5 79.5l-176 377h-73v90h244v-90h-55l108 -256l102 256h-52l5 90h235zM271.5 637.5q20.5 -20.5 20.5 -48.5t-20.5 -48t-47.5 -20
q-28 0 -48.5 20t-20.5 48t20.5 48.5t48.5 20.5q27 0 47.5 -20.5zM462.5 637.5q20.5 -20.5 20.5 -48.5t-20.5 -48t-47.5 -20q-28 0 -48.5 20t-20.5 48t20.5 48.5t48.5 20.5q27 0 47.5 -20.5z" />
    <glyph glyph-name="uni04F2" unicode="&#x4f2;" horiz-adv-x="650" 
d="M186.5 -16.5q-26.5 4.5 -69.5 16.5l29 99q48 -20 91 -20q23 0 35 11.5t25 44.5l-201 353h-91v101h271v-101h-55l125 -231l86 231h-60v102h272v-102h-100l-154 -382q-27 -68 -59 -97.5t-90 -29.5q-28 0 -54.5 4.5zM382 833l58 -68l-168 -112l-30 32zM553 791l37 -81
l-195 -54l-21 38z" />
    <glyph glyph-name="uni04F3" unicode="&#x4f3;" horiz-adv-x="597" 
d="M592 447v-90h-77l-184 -433q-37 -88 -80 -127t-101 -39q-43 0 -88 19l21 88q20 -7 34 -10.5t30 -3.5q24 0 40.5 11.5t31 38t35.5 79.5l-176 377h-73v90h244v-90h-55l108 -256l102 256h-52l5 90h235zM319 749l77 -57l-158 -183l-49 33zM516 728l63 -69l-189 -150l-42 42z
" />
    <glyph glyph-name="uni04F4" unicode="&#x4f4;" horiz-adv-x="707" 
d="M318 101h139v143q-58 -31 -120 -31q-101 0 -158.5 55.5t-57.5 159.5v60h-85v101h256v-101h-57v-60q0 -63 28.5 -92.5t91.5 -29.5t102 25v157h-57v101h257v-101h-85v-387h85v-101h-339v101zM305.5 779.5q20.5 -20.5 20.5 -48.5t-20.5 -48t-47.5 -20q-28 0 -48.5 20
t-20.5 48t20.5 48.5t48.5 20.5q27 0 47.5 -20.5zM496.5 779.5q20.5 -20.5 20.5 -48.5t-20.5 -48t-47.5 -20q-28 0 -48.5 20t-20.5 48t20.5 48.5t48.5 20.5q27 0 47.5 -20.5z" />
    <glyph glyph-name="uni04F5" unicode="&#x4f5;" horiz-adv-x="632" 
d="M255 157q-89 0 -119 47.5t-28 119.5l1 32h-84v92h241v-92h-44v-13q0 -40 4.5 -61.5t20.5 -34t49 -12.5q51 0 91 25v96h-43v92h241v-92h-84v-265h84v-91h-281v91h83v100q-56 -34 -132 -34zM261.5 637.5q20.5 -20.5 20.5 -48.5t-20.5 -48t-47.5 -20q-28 0 -48.5 20
t-20.5 48t20.5 48.5t48.5 20.5q27 0 47.5 -20.5zM452.5 637.5q20.5 -20.5 20.5 -48.5t-20.5 -48t-47.5 -20q-28 0 -48.5 20t-20.5 48t20.5 48.5t48.5 20.5q27 0 47.5 -20.5z" />
    <glyph glyph-name="uni04F6" unicode="&#x4f6;" horiz-adv-x="553" 
d="M486 589l53 -174l-96 -30l-33 103h-150v-387h102v-276h-113l2 175h-202v101h96v387h-95v101h436z" />
    <glyph glyph-name="uni04F7" unicode="&#x4f7;" horiz-adv-x="492" 
d="M444 448l38 -161l-98 -23l-24 94h-114v-267h114v-91l-1 -143h-102v143h-211v91h86v267h-86v90h398z" />
    <glyph glyph-name="uni04F8" unicode="&#x4f8;" horiz-adv-x="908" 
d="M49 101h84v388h-82v100h255v-100h-58v-115h110q100 0 153 -45.5t53 -140.5q0 -85 -52.5 -136.5t-147.5 -51.5h-315v101zM602 0v101h57v387h-58v101h257v-101h-84l-1 -387h85v-101h-256zM342 101q48 0 75 19.5t27 70.5q0 45 -24.5 64t-73.5 19h-98v-173h94zM405.5 779.5
q20.5 -20.5 20.5 -48.5t-20.5 -48t-47.5 -20q-28 0 -48.5 20t-20.5 48t20.5 48.5t48.5 20.5q27 0 47.5 -20.5zM596.5 779.5q20.5 -20.5 20.5 -48.5t-20.5 -48t-47.5 -20q-28 0 -48.5 20t-20.5 48t20.5 48.5t48.5 20.5q27 0 47.5 -20.5z" />
    <glyph glyph-name="uni04F9" unicode="&#x4f9;" horiz-adv-x="826" 
d="M46 90h86v267h-86v90h289v-90h-95v-82h81q83 0 134 -30.5t51 -103.5q0 -64 -36.5 -103t-102.5 -39h-321v91zM569 0v91h12v266h-65v90h263v-90h-84v-266h84v-91h-210zM328 91q33 0 51.5 13.5t18.5 40.5q0 24 -17.5 36.5t-48.5 12.5h-92v-103h88zM374.5 637.5
q20.5 -20.5 20.5 -48.5t-20.5 -48t-47.5 -20q-28 0 -48.5 20t-20.5 48t20.5 48.5t48.5 20.5q27 0 47.5 -20.5zM565.5 637.5q20.5 -20.5 20.5 -48.5t-20.5 -48t-47.5 -20q-28 0 -48.5 20t-20.5 48t20.5 48.5t48.5 20.5q27 0 47.5 -20.5z" />
    <glyph glyph-name="uni04FA" unicode="&#x4fa;" horiz-adv-x="553" 
d="M486 589l53 -174l-96 -30l-33 103h-150v-155h135v-76h-135v-156h102v-101h-313v101h96v156h-77v76h77v155h-95v101h436zM307.5 -175.5q-55.5 -60.5 -146.5 -60.5q-57 0 -116 25l29 98q39 -13 67 -13q49 0 77.5 33t28.5 93h116q0 -115 -55.5 -175.5z" />
    <glyph glyph-name="uni04FB" unicode="&#x4fb;" horiz-adv-x="487" 
d="M444 448l33 -139l-98 -23l-19 72h-114v-108h113v-67h-113v-92h114v-91h-314v91h86v92h-80v67h80v108h-86v90h398zM317 -174.5q-44 -60.5 -119 -60.5q-53 0 -111 29l28 82q36 -15 60 -15q38 0 55 33t17 106h114q0 -114 -44 -174.5z" />
    <glyph glyph-name="uni04FC" unicode="&#x4fc;" horiz-adv-x="695" 
d="M356 -206l29 92q35 -13 67 -13q75 0 75 63q0 33 -23.5 78.5t-66.5 96.5l-90 109l-101 -121h50v-99h-270v99h100l153 193l-162 196h-83v101h269v-101h-58l102 -123l103 123h-55v101h263v-101h-90l-153 -195l148 -182q38 -47 59 -97t21 -94q0 -66 -44 -108.5t-126 -42.5
q-57 0 -117 25z" />
    <glyph glyph-name="uni04FD" unicode="&#x4fd;" horiz-adv-x="595" 
d="M319 -177l28 82q34 -14 60 -14q25 0 41 18t16 47q0 27 -14 57t-43 59l-99 99l-73 -80h40v-91h-243v91h86l123 138l-129 128h-80v90h247v-90h-36l72 -77l69 77h-37v90h230v-90h-76l-119 -136l106 -104q42 -41 62.5 -85.5t20.5 -88.5q0 -64 -40 -107t-103 -43
q-52 0 -109 30z" />
    <glyph glyph-name="uni04FE" unicode="&#x4fe;" horiz-adv-x="699" 
d="M572 99h105v-99h-289v99h59l-100 121l-101 -121h50v-99h-270v99h100l125 158h-111v76h105l-128 155h-83v101h269v-101h-58l102 -123l103 123h-55v101h263v-101h-90l-126 -160h106v-76h-100z" />
    <glyph glyph-name="uni04FF" unicode="&#x4ff;" horiz-adv-x="620" 
d="M515 91h79v-91h-249v91h43l-80 80l-73 -80h40v-91h-243v91h86l91 102h-96v67h97l-98 97h-80v90h247v-90h-36l72 -77l69 77h-37v90h230v-90h-76l-89 -102h94v-67h-90z" />
    <glyph glyph-name="uni0510" unicode="&#x510;" horiz-adv-x="572" 
d="M522 445l-98 -23l-16 71q-51 24 -103 24q-56 0 -92 -22.5t-36 -63.5q0 -86 93 -86h72v-92h-75q-49 0 -75.5 -23t-26.5 -62q0 -46 36 -70t89 -24q42 0 73 9.5t58 29.5l19 71l98 -25l-26 -114q-43 -31 -100.5 -48t-119.5 -17q-108 0 -177 48.5t-69 136.5q0 111 124 139
q-55 16 -83 49t-28 81q0 84 64 129t166 45q52 0 107 -12.5t100 -35.5z" />
    <glyph glyph-name="uni0511" unicode="&#x511;" horiz-adv-x="495" 
d="M147.5 -3.5q-48.5 16.5 -78 49t-29.5 77.5t26 72.5t74 37.5q-37 15 -58 42t-21 60q0 60 50.5 94.5t134.5 34.5q92 0 183 -43l20 -108l-82 -19l-15 67q-47 19 -95 19q-40 0 -65.5 -15t-25.5 -45q0 -26 19 -38t57 -12h50v-87h-47q-47 0 -69 -11t-22 -39q0 -29 26 -45
t73 -16q40 0 78 13t67 38l60 -72q-36 -34 -90 -52.5t-115 -18.5q-57 0 -105.5 16.5z" />
    <glyph glyph-name="uni0512" unicode="&#x512;" horiz-adv-x="700" 
d="M659 590v-101h-95l-1 -489h1q0 -115 -55.5 -175.5t-146.5 -60.5q-57 0 -116 25l29 98q39 -13 67 -13q49 0 77.5 33t28.5 93v489h-144l-18 -226q-10 -136 -55.5 -207.5t-150.5 -72.5q-13 0 -40 2v108q57 0 87 17t43 58t19 122l14 199h-90v101h546z" />
    <glyph glyph-name="uni0513" unicode="&#x513;" horiz-adv-x="628" 
d="M495 357v-357h1q0 -114 -44 -174.5t-119 -60.5q-53 0 -111 29l28 82q36 -15 60 -15q38 0 55 33t17 106v357h-111l-8 -118q-9 -122 -54.5 -185.5t-140.5 -63.5q-9 0 -33 2v92q7 -1 19 -1q43 0 66 20t33.5 58.5t14.5 103.5l6 92h-83v91h490v-91h-86z" />
    <glyph glyph-name="uni051A" unicode="&#x51a;" horiz-adv-x="691" 
d="M334 -20q-86 0 -152 37t-102.5 108t-36.5 170t36.5 169.5t102 107.5t151.5 37q87 0 153 -37t103 -107.5t37 -169.5q0 -143 -77 -228l119 -69l-74 -91l-122 103q-60 -30 -138 -30zM206 456.5q-43 -55.5 -43 -161.5q0 -107 43 -162.5t128 -55.5t128.5 56t43.5 162
q0 107 -43 162t-129 55q-85 0 -128 -55.5z" />
    <glyph glyph-name="uni051B" unicode="&#x51b;" horiz-adv-x="548" 
d="M272 -130h97v135q-22 -11 -49.5 -17.5t-54.5 -6.5q-106 0 -165.5 66.5t-59.5 184.5q0 110 65.5 172t180.5 62q48 0 100 -14.5t97 -41.5v-540h71v-90h-282v90zM322.5 78q26.5 6 46.5 16v254q-17 11 -42 18t-53 7q-53 0 -86 -38.5t-33 -102.5q0 -71 32.5 -115.5t85.5 -44.5
q23 0 49.5 6z" />
    </font>
</defs>
</svg>
